STARTFONT 2.1
FONT -nerdypepper-scientifica-medium-r-normal--11-80-100-100-C-50-ISO10646-1
SIZE 11 75 75
FONTBOUNDINGBOX 10 24 0 -4
STARTPROPERTIES 34
FOUNDRY "nerdypepper"
FAMILY_NAME "scientifica"
WEIGHT_NAME "medium"
SLANT "r"
SETWIDTH_NAME "normal"
ADD_STYLE_NAME ""
SPACING "C"
AVERAGE_WIDTH 50
CHARSET_REGISTRY "ISO10646"
CHARSET_ENCODING "1"
FONTNAME_REGISTRY ""
CHARSET_COLLECTIONS "ASCII ISOLatin1Encoding ISO8859-2 ISO8859-9 ISO8859-4 Symbol ISO10646-1"
FONT_NAME "scientifica"
COPYRIGHT "Copyright (c) 2016, romeovs"
FONT_VERSION "1.0.0"
UNDERLINE_POSITION -1
UNDERLINE_THICKNESS 1
X_HEIGHT 4
CAP_HEIGHT 4
RAW_ASCENT 818
RAW_DESCENT 181
NORM_SPACE 5
RELATIVE_WEIGHT 50
RELATIVE_SETWIDTH 50
FIGURE_WIDTH 5
AVG_LOWERCASE_WIDTH 50
AVG_UPPERCASE_WIDTH 50
DEFAULT_CHAR 61680
FACE_NAME "-nerdypepper-scientifica-medium-r-normal--11-80-100-100-C-50-ISO10646-1"
FONT_ASCENT 20
FONT_DESCENT 4
PIXEL_SIZE 12
POINT_SIZE 110
RESOLUTION_X 75
RESOLUTION_Y 75
ENDPROPERTIES
CHARS 1070
STARTCHAR space
ENCODING 32
SWIDTH 833 0
DWIDTH 10 0
BBX 2 2 8 0
BITMAP
00
00
ENDCHAR
STARTCHAR exclam
ENCODING 33
SWIDTH 833 0
DWIDTH 10 0
BBX 2 14 4 0
BITMAP
C0
C0
C0
C0
C0
C0
C0
C0
C0
C0
00
00
C0
C0
ENDCHAR
STARTCHAR quotedbl
ENCODING 34
SWIDTH 833 0
DWIDTH 10 0
BBX 6 6 2 8
BITMAP
CC
CC
CC
CC
CC
CC
ENDCHAR
STARTCHAR numbersign
ENCODING 35
SWIDTH 833 0
DWIDTH 10 0
BBX 10 10 0 0
BITMAP
3300
3300
FFC0
FFC0
3300
3300
FFC0
FFC0
3300
3300
ENDCHAR
STARTCHAR dollar
ENCODING 36
SWIDTH 833 0
DWIDTH 10 0
BBX 6 18 2 -2
BITMAP
30
30
30
30
FC
FC
C0
C0
FC
FC
0C
0C
FC
FC
30
30
30
30
ENDCHAR
STARTCHAR percent
ENCODING 37
SWIDTH 833 0
DWIDTH 10 0
BBX 8 8 0 2
BITMAP
C3
C3
0C
0C
30
30
C3
C3
ENDCHAR
STARTCHAR ampersand
ENCODING 38
SWIDTH 833 0
DWIDTH 10 0
BBX 10 14 0 0
BITMAP
3C00
3C00
C000
C000
C300
C300
3FC0
3FC0
C300
C300
C300
C300
3CC0
3CC0
ENDCHAR
STARTCHAR quotesingle
ENCODING 39
SWIDTH 833 0
DWIDTH 10 0
BBX 2 6 4 8
BITMAP
C0
C0
C0
C0
C0
C0
ENDCHAR
STARTCHAR parenleft
ENCODING 40
SWIDTH 833 0
DWIDTH 10 0
BBX 8 18 0 -2
BITMAP
0F
0F
30
30
C0
C0
C0
C0
C0
C0
C0
C0
C0
C0
30
30
0F
0F
ENDCHAR
STARTCHAR parenright
ENCODING 41
SWIDTH 833 0
DWIDTH 10 0
BBX 8 18 0 -2
BITMAP
F0
F0
0C
0C
03
03
03
03
03
03
03
03
03
03
0C
0C
F0
F0
ENDCHAR
STARTCHAR asterisk
ENCODING 42
SWIDTH 833 0
DWIDTH 10 0
BBX 10 10 0 0
BITMAP
3300
3300
0C00
0C00
FFC0
FFC0
0C00
0C00
3300
3300
ENDCHAR
STARTCHAR plus
ENCODING 43
SWIDTH 833 0
DWIDTH 10 0
BBX 10 10 0 0
BITMAP
0C00
0C00
0C00
0C00
FFC0
FFC0
0C00
0C00
0C00
0C00
ENDCHAR
STARTCHAR comma
ENCODING 44
SWIDTH 833 0
DWIDTH 10 0
BBX 4 6 2 -2
BITMAP
30
30
30
30
C0
C0
ENDCHAR
STARTCHAR hyphen
ENCODING 45
SWIDTH 833 0
DWIDTH 10 0
BBX 8 2 0 4
BITMAP
FF
FF
ENDCHAR
STARTCHAR period
ENCODING 46
SWIDTH 833 0
DWIDTH 10 0
BBX 2 2 4 0
BITMAP
C0
C0
ENDCHAR
STARTCHAR slash
ENCODING 47
SWIDTH 833 0
DWIDTH 10 0
BBX 8 16 0 -2
BITMAP
03
03
03
03
0C
0C
0C
0C
30
30
30
30
C0
C0
C0
C0
ENDCHAR
STARTCHAR zero
ENCODING 48
SWIDTH 833 0
DWIDTH 10 0
BBX 8 14 0 0
BITMAP
3C
3C
C3
C3
CF
CF
F3
F3
C3
C3
C3
C3
3C
3C
ENDCHAR
STARTCHAR one
ENCODING 49
SWIDTH 833 0
DWIDTH 10 0
BBX 6 14 2 0
BITMAP
30
30
F0
F0
30
30
30
30
30
30
30
30
FC
FC
ENDCHAR
STARTCHAR two
ENCODING 50
SWIDTH 833 0
DWIDTH 10 0
BBX 8 14 0 0
BITMAP
3C
3C
C3
C3
03
03
0C
0C
30
30
C0
C0
FF
FF
ENDCHAR
STARTCHAR three
ENCODING 51
SWIDTH 833 0
DWIDTH 10 0
BBX 8 14 0 0
BITMAP
FF
FF
03
03
0C
0C
33
33
03
03
C3
C3
3C
3C
ENDCHAR
STARTCHAR four
ENCODING 52
SWIDTH 833 0
DWIDTH 10 0
BBX 8 14 0 0
BITMAP
C0
C0
C0
C0
CC
CC
CC
CC
FF
FF
0C
0C
0C
0C
ENDCHAR
STARTCHAR five
ENCODING 53
SWIDTH 833 0
DWIDTH 10 0
BBX 8 14 0 0
BITMAP
FF
FF
C0
C0
FC
FC
03
03
03
03
C3
C3
3C
3C
ENDCHAR
STARTCHAR six
ENCODING 54
SWIDTH 833 0
DWIDTH 10 0
BBX 8 14 0 0
BITMAP
3C
3C
C3
C3
C0
C0
FC
FC
C3
C3
C3
C3
3C
3C
ENDCHAR
STARTCHAR seven
ENCODING 55
SWIDTH 833 0
DWIDTH 10 0
BBX 8 14 0 0
BITMAP
FF
FF
03
03
03
03
0C
0C
0C
0C
30
30
30
30
ENDCHAR
STARTCHAR eight
ENCODING 56
SWIDTH 833 0
DWIDTH 10 0
BBX 8 14 0 0
BITMAP
3C
3C
C3
C3
C3
C3
3C
3C
C3
C3
C3
C3
3C
3C
ENDCHAR
STARTCHAR nine
ENCODING 57
SWIDTH 833 0
DWIDTH 10 0
BBX 8 14 0 0
BITMAP
3C
3C
C3
C3
C3
C3
3F
3F
03
03
C3
C3
3C
3C
ENDCHAR
STARTCHAR colon
ENCODING 58
SWIDTH 833 0
DWIDTH 10 0
BBX 2 8 4 2
BITMAP
C0
C0
00
00
00
00
C0
C0
ENDCHAR
STARTCHAR semicolon
ENCODING 59
SWIDTH 833 0
DWIDTH 10 0
BBX 4 12 2 -2
BITMAP
30
30
00
00
00
00
30
30
30
30
C0
C0
ENDCHAR
STARTCHAR less
ENCODING 60
SWIDTH 833 0
DWIDTH 10 0
BBX 6 10 0 0
BITMAP
0C
0C
30
30
C0
C0
30
30
0C
0C
ENDCHAR
STARTCHAR equal
ENCODING 61
SWIDTH 833 0
DWIDTH 10 0
BBX 8 6 0 2
BITMAP
FF
FF
00
00
FF
FF
ENDCHAR
STARTCHAR greater
ENCODING 62
SWIDTH 833 0
DWIDTH 10 0
BBX 6 10 2 0
BITMAP
C0
C0
30
30
0C
0C
30
30
C0
C0
ENDCHAR
STARTCHAR question
ENCODING 63
SWIDTH 833 0
DWIDTH 10 0
BBX 8 14 0 0
BITMAP
3C
3C
C3
C3
03
03
0C
0C
30
30
00
00
30
30
ENDCHAR
STARTCHAR at
ENCODING 64
SWIDTH 833 0
DWIDTH 10 0
BBX 8 14 0 0
BITMAP
3C
3C
C3
C3
CF
CF
CF
CF
CF
CF
C0
C0
3F
3F
ENDCHAR
STARTCHAR A
ENCODING 65
SWIDTH 833 0
DWIDTH 10 0
BBX 8 14 0 0
BITMAP
3C
3C
C3
C3
C3
C3
FF
FF
C3
C3
C3
C3
C3
C3
ENDCHAR
STARTCHAR B
ENCODING 66
SWIDTH 833 0
DWIDTH 10 0
BBX 8 14 0 0
BITMAP
FC
FC
C3
C3
C3
C3
FC
FC
C3
C3
C3
C3
FC
FC
ENDCHAR
STARTCHAR C
ENCODING 67
SWIDTH 833 0
DWIDTH 10 0
BBX 8 14 0 0
BITMAP
3C
3C
C3
C3
C0
C0
C0
C0
C0
C0
C3
C3
3C
3C
ENDCHAR
STARTCHAR D
ENCODING 68
SWIDTH 833 0
DWIDTH 10 0
BBX 8 14 0 0
BITMAP
FC
FC
C3
C3
C3
C3
C3
C3
C3
C3
C3
C3
FC
FC
ENDCHAR
STARTCHAR E
ENCODING 69
SWIDTH 833 0
DWIDTH 10 0
BBX 8 14 0 0
BITMAP
FF
FF
C0
C0
C0
C0
FC
FC
C0
C0
C0
C0
FF
FF
ENDCHAR
STARTCHAR F
ENCODING 70
SWIDTH 833 0
DWIDTH 10 0
BBX 8 14 0 0
BITMAP
FF
FF
C0
C0
C0
C0
FC
FC
C0
C0
C0
C0
C0
C0
ENDCHAR
STARTCHAR G
ENCODING 71
SWIDTH 833 0
DWIDTH 10 0
BBX 8 14 0 0
BITMAP
3C
3C
C3
C3
C0
C0
CF
CF
C3
C3
C3
C3
3C
3C
ENDCHAR
STARTCHAR H
ENCODING 72
SWIDTH 833 0
DWIDTH 10 0
BBX 8 14 0 0
BITMAP
C3
C3
C3
C3
C3
C3
FF
FF
C3
C3
C3
C3
C3
C3
ENDCHAR
STARTCHAR I
ENCODING 73
SWIDTH 833 0
DWIDTH 10 0
BBX 6 14 2 0
BITMAP
FC
FC
30
30
30
30
30
30
30
30
30
30
FC
FC
ENDCHAR
STARTCHAR J
ENCODING 74
SWIDTH 833 0
DWIDTH 10 0
BBX 8 14 0 0
BITMAP
3F
3F
03
03
03
03
03
03
03
03
C3
C3
3F
3F
ENDCHAR
STARTCHAR K
ENCODING 75
SWIDTH 833 0
DWIDTH 10 0
BBX 8 14 0 0
BITMAP
C3
C3
CC
CC
F0
F0
CC
CC
C3
C3
C3
C3
C3
C3
ENDCHAR
STARTCHAR L
ENCODING 76
SWIDTH 833 0
DWIDTH 10 0
BBX 8 14 0 0
BITMAP
C0
C0
C0
C0
C0
C0
C0
C0
C0
C0
C0
C0
FF
FF
ENDCHAR
STARTCHAR M
ENCODING 77
SWIDTH 833 0
DWIDTH 10 0
BBX 8 14 0 0
BITMAP
C3
C3
FF
FF
FF
FF
C3
C3
C3
C3
C3
C3
C3
C3
ENDCHAR
STARTCHAR N
ENCODING 78
SWIDTH 833 0
DWIDTH 10 0
BBX 8 14 0 0
BITMAP
C3
C3
F3
F3
F3
F3
CF
CF
CF
CF
C3
C3
C3
C3
ENDCHAR
STARTCHAR O
ENCODING 79
SWIDTH 833 0
DWIDTH 10 0
BBX 8 14 0 0
BITMAP
3C
3C
C3
C3
C3
C3
C3
C3
C3
C3
C3
C3
3C
3C
ENDCHAR
STARTCHAR P
ENCODING 80
SWIDTH 833 0
DWIDTH 10 0
BBX 8 14 0 0
BITMAP
FC
FC
C3
C3
C3
C3
FC
FC
C0
C0
C0
C0
C0
C0
ENDCHAR
STARTCHAR Q
ENCODING 81
SWIDTH 833 0
DWIDTH 10 0
BBX 8 18 0 -4
BITMAP
3C
3C
C3
C3
C3
C3
C3
C3
C3
C3
C3
C3
3C
3C
0C
0C
03
03
ENDCHAR
STARTCHAR R
ENCODING 82
SWIDTH 833 0
DWIDTH 10 0
BBX 8 14 0 0
BITMAP
FC
FC
C3
C3
C3
C3
FC
FC
C3
C3
C3
C3
C3
C3
ENDCHAR
STARTCHAR S
ENCODING 83
SWIDTH 833 0
DWIDTH 10 0
BBX 8 14 0 0
BITMAP
3C
3C
C3
C3
C0
C0
3C
3C
03
03
C3
C3
3C
3C
ENDCHAR
STARTCHAR T
ENCODING 84
SWIDTH 833 0
DWIDTH 10 0
BBX 10 14 0 0
BITMAP
FFC0
FFC0
0C00
0C00
0C00
0C00
0C00
0C00
0C00
0C00
0C00
0C00
0C00
0C00
ENDCHAR
STARTCHAR U
ENCODING 85
SWIDTH 833 0
DWIDTH 10 0
BBX 8 14 0 0
BITMAP
C3
C3
C3
C3
C3
C3
C3
C3
C3
C3
C3
C3
3F
3F
ENDCHAR
STARTCHAR V
ENCODING 86
SWIDTH 833 0
DWIDTH 10 0
BBX 8 14 0 0
BITMAP
C3
C3
C3
C3
C3
C3
C3
C3
C3
C3
3C
3C
3C
3C
ENDCHAR
STARTCHAR W
ENCODING 87
SWIDTH 833 0
DWIDTH 10 0
BBX 8 14 0 0
BITMAP
C3
C3
C3
C3
C3
C3
C3
C3
FF
FF
FF
FF
C3
C3
ENDCHAR
STARTCHAR X
ENCODING 88
SWIDTH 833 0
DWIDTH 10 0
BBX 8 14 0 0
BITMAP
C3
C3
C3
C3
C3
C3
3C
3C
C3
C3
C3
C3
C3
C3
ENDCHAR
STARTCHAR Y
ENCODING 89
SWIDTH 833 0
DWIDTH 10 0
BBX 8 14 0 0
BITMAP
C3
C3
C3
C3
C3
C3
3F
3F
03
03
C3
C3
3F
3F
ENDCHAR
STARTCHAR Z
ENCODING 90
SWIDTH 833 0
DWIDTH 10 0
BBX 8 14 0 0
BITMAP
FF
FF
03
03
0C
0C
30
30
C0
C0
C0
C0
FF
FF
ENDCHAR
STARTCHAR bracketleft
ENCODING 91
SWIDTH 833 0
DWIDTH 10 0
BBX 6 18 2 -2
BITMAP
FC
FC
C0
C0
C0
C0
C0
C0
C0
C0
C0
C0
C0
C0
C0
C0
FC
FC
ENDCHAR
STARTCHAR backslash
ENCODING 92
SWIDTH 833 0
DWIDTH 10 0
BBX 8 16 0 -2
BITMAP
C0
C0
C0
C0
30
30
30
30
0C
0C
0C
0C
03
03
03
03
ENDCHAR
STARTCHAR bracketright
ENCODING 93
SWIDTH 833 0
DWIDTH 10 0
BBX 6 18 2 -2
BITMAP
FC
FC
0C
0C
0C
0C
0C
0C
0C
0C
0C
0C
0C
0C
0C
0C
FC
FC
ENDCHAR
STARTCHAR asciicircum
ENCODING 94
SWIDTH 833 0
DWIDTH 10 0
BBX 10 6 0 8
BITMAP
0C00
0C00
3300
3300
C0C0
C0C0
ENDCHAR
STARTCHAR underscore
ENCODING 95
SWIDTH 833 0
DWIDTH 10 0
BBX 8 2 0 0
BITMAP
FF
FF
ENDCHAR
STARTCHAR grave
ENCODING 96
SWIDTH 833 0
DWIDTH 10 0
BBX 6 6 2 8
BITMAP
C0
C0
30
30
0C
0C
ENDCHAR
STARTCHAR a
ENCODING 97
SWIDTH 833 0
DWIDTH 10 0
BBX 8 10 0 0
BITMAP
3F
3F
C3
C3
C3
C3
CF
CF
33
33
ENDCHAR
STARTCHAR b
ENCODING 98
SWIDTH 833 0
DWIDTH 10 0
BBX 8 14 0 0
BITMAP
C0
C0
C0
C0
FC
FC
C3
C3
C3
C3
C3
C3
FC
FC
ENDCHAR
STARTCHAR c
ENCODING 99
SWIDTH 833 0
DWIDTH 10 0
BBX 8 10 0 0
BITMAP
3C
3C
C3
C3
C0
C0
C3
C3
3C
3C
ENDCHAR
STARTCHAR d
ENCODING 100
SWIDTH 833 0
DWIDTH 10 0
BBX 8 14 0 0
BITMAP
03
03
03
03
3F
3F
C3
C3
C3
C3
C3
C3
3F
3F
ENDCHAR
STARTCHAR e
ENCODING 101
SWIDTH 833 0
DWIDTH 10 0
BBX 8 10 0 0
BITMAP
3C
3C
C3
C3
FF
FF
C0
C0
3F
3F
ENDCHAR
STARTCHAR f
ENCODING 102
SWIDTH 833 0
DWIDTH 10 0
BBX 8 14 0 0
BITMAP
0F
0F
30
30
30
30
FC
FC
30
30
30
30
30
30
ENDCHAR
STARTCHAR g
ENCODING 103
SWIDTH 833 0
DWIDTH 10 0
BBX 8 14 0 -4
BITMAP
3F
3F
C3
C3
C3
C3
C3
C3
3F
3F
03
03
3C
3C
ENDCHAR
STARTCHAR h
ENCODING 104
SWIDTH 833 0
DWIDTH 10 0
BBX 8 14 0 0
BITMAP
C0
C0
C0
C0
FC
FC
C3
C3
C3
C3
C3
C3
C3
C3
ENDCHAR
STARTCHAR i
ENCODING 105
SWIDTH 833 0
DWIDTH 10 0
BBX 8 14 0 0
BITMAP
30
30
00
00
F0
F0
30
30
30
30
30
30
0F
0F
ENDCHAR
STARTCHAR j
ENCODING 106
SWIDTH 833 0
DWIDTH 10 0
BBX 6 18 0 -4
BITMAP
0C
0C
00
00
3C
3C
0C
0C
0C
0C
0C
0C
0C
0C
0C
0C
F0
F0
ENDCHAR
STARTCHAR k
ENCODING 107
SWIDTH 833 0
DWIDTH 10 0
BBX 8 14 0 0
BITMAP
C0
C0
C0
C0
C3
C3
CC
CC
F0
F0
CC
CC
C3
C3
ENDCHAR
STARTCHAR l
ENCODING 108
SWIDTH 833 0
DWIDTH 10 0
BBX 8 14 0 0
BITMAP
F0
F0
30
30
30
30
30
30
30
30
30
30
0F
0F
ENDCHAR
STARTCHAR m
ENCODING 109
SWIDTH 833 0
DWIDTH 10 0
BBX 8 10 0 0
BITMAP
C3
C3
FF
FF
C3
C3
C3
C3
C3
C3
ENDCHAR
STARTCHAR n
ENCODING 110
SWIDTH 833 0
DWIDTH 10 0
BBX 8 10 0 0
BITMAP
FC
FC
C3
C3
C3
C3
C3
C3
C3
C3
ENDCHAR
STARTCHAR o
ENCODING 111
SWIDTH 833 0
DWIDTH 10 0
BBX 8 10 0 0
BITMAP
3C
3C
C3
C3
C3
C3
C3
C3
3C
3C
ENDCHAR
STARTCHAR p
ENCODING 112
SWIDTH 833 0
DWIDTH 10 0
BBX 8 14 0 -4
BITMAP
FC
FC
C3
C3
C3
C3
C3
C3
FC
FC
C0
C0
C0
C0
ENDCHAR
STARTCHAR q
ENCODING 113
SWIDTH 833 0
DWIDTH 10 0
BBX 8 14 0 -4
BITMAP
3F
3F
C3
C3
C3
C3
C3
C3
3F
3F
03
03
03
03
ENDCHAR
STARTCHAR r
ENCODING 114
SWIDTH 833 0
DWIDTH 10 0
BBX 8 10 0 0
BITMAP
FC
FC
C3
C3
C0
C0
C0
C0
C0
C0
ENDCHAR
STARTCHAR s
ENCODING 115
SWIDTH 833 0
DWIDTH 10 0
BBX 8 10 0 0
BITMAP
3F
3F
C0
C0
3C
3C
03
03
FC
FC
ENDCHAR
STARTCHAR t
ENCODING 116
SWIDTH 833 0
DWIDTH 10 0
BBX 8 14 0 0
BITMAP
30
30
30
30
FF
FF
30
30
30
30
30
30
0F
0F
ENDCHAR
STARTCHAR u
ENCODING 117
SWIDTH 833 0
DWIDTH 10 0
BBX 8 10 0 0
BITMAP
C3
C3
C3
C3
C3
C3
C3
C3
3F
3F
ENDCHAR
STARTCHAR v
ENCODING 118
SWIDTH 833 0
DWIDTH 10 0
BBX 8 10 0 0
BITMAP
C3
C3
C3
C3
C3
C3
3C
3C
3C
3C
ENDCHAR
STARTCHAR w
ENCODING 119
SWIDTH 833 0
DWIDTH 10 0
BBX 8 10 0 0
BITMAP
C3
C3
C3
C3
C3
C3
FF
FF
C3
C3
ENDCHAR
STARTCHAR x
ENCODING 120
SWIDTH 833 0
DWIDTH 10 0
BBX 8 10 0 0
BITMAP
C3
C3
C3
C3
3C
3C
C3
C3
C3
C3
ENDCHAR
STARTCHAR y
ENCODING 121
SWIDTH 833 0
DWIDTH 10 0
BBX 8 14 0 -4
BITMAP
C3
C3
C3
C3
C3
C3
C3
C3
3F
3F
03
03
3C
3C
ENDCHAR
STARTCHAR z
ENCODING 122
SWIDTH 833 0
DWIDTH 10 0
BBX 8 10 0 0
BITMAP
FF
FF
0C
0C
30
30
C0
C0
FF
FF
ENDCHAR
STARTCHAR braceleft
ENCODING 123
SWIDTH 833 0
DWIDTH 10 0
BBX 8 18 0 -2
BITMAP
03
03
0C
0C
0C
0C
0C
0C
F0
F0
0C
0C
0C
0C
0C
0C
03
03
ENDCHAR
STARTCHAR bar
ENCODING 124
SWIDTH 833 0
DWIDTH 10 0
BBX 2 18 4 -2
BITMAP
C0
C0
C0
C0
C0
C0
C0
C0
C0
C0
C0
C0
C0
C0
C0
C0
C0
C0
ENDCHAR
STARTCHAR braceright
ENCODING 125
SWIDTH 833 0
DWIDTH 10 0
BBX 8 18 2 -2
BITMAP
C0
C0
30
30
30
30
30
30
0F
0F
30
30
30
30
30
30
C0
C0
ENDCHAR
STARTCHAR asciitilde
ENCODING 126
SWIDTH 833 0
DWIDTH 10 0
BBX 10 6 0 2
BITMAP
3000
3000
CCC0
CCC0
0300
0300
ENDCHAR
STARTCHAR uni00A0
ENCODING 160
SWIDTH 833 0
DWIDTH 10 0
BBX 2 2 0 0
BITMAP
00
00
ENDCHAR
STARTCHAR exclamdown
ENCODING 161
SWIDTH 833 0
DWIDTH 10 0
BBX 2 16 4 0
BITMAP
C0
C0
00
00
C0
C0
C0
C0
C0
C0
C0
C0
C0
C0
C0
C0
ENDCHAR
STARTCHAR cent
ENCODING 162
SWIDTH 833 0
DWIDTH 10 0
BBX 8 14 0 -2
BITMAP
30
30
3C
3C
F3
F3
F0
F0
F3
F3
3C
3C
30
30
ENDCHAR
STARTCHAR sterling
ENCODING 163
SWIDTH 833 0
DWIDTH 10 0
BBX 8 14 0 0
BITMAP
3C
3C
C3
C3
C0
C0
F0
F0
C0
C0
F3
F3
CF
CF
ENDCHAR
STARTCHAR currency
ENCODING 164
SWIDTH 833 0
DWIDTH 10 0
BBX 10 10 0 0
BITMAP
C0C0
C0C0
3F00
3F00
3300
3300
3F00
3F00
C0C0
C0C0
ENDCHAR
STARTCHAR yen
ENCODING 165
SWIDTH 833 0
DWIDTH 10 0
BBX 10 14 0 0
BITMAP
3300
3300
3300
3300
FFC0
FFC0
3300
3300
FFC0
FFC0
0C00
0C00
0C00
0C00
ENDCHAR
STARTCHAR brokenbar
ENCODING 166
SWIDTH 833 0
DWIDTH 10 0
BBX 2 20 4 0
BITMAP
C0
C0
C0
C0
C0
C0
C0
C0
00
00
00
00
C0
C0
C0
C0
C0
C0
C0
C0
ENDCHAR
STARTCHAR section
ENCODING 167
SWIDTH 833 0
DWIDTH 10 0
BBX 8 14 0 0
BITMAP
3F
3F
C0
C0
FC
FC
C3
C3
3F
3F
03
03
FC
FC
ENDCHAR
STARTCHAR dieresis
ENCODING 168
SWIDTH 833 0
DWIDTH 10 0
BBX 6 2 0 12
BITMAP
CC
CC
ENDCHAR
STARTCHAR copyright
ENCODING 169
SWIDTH 833 0
DWIDTH 10 0
BBX 10 14 0 0
BITMAP
3F00
3F00
C0C0
C0C0
CF00
CF00
CC00
CC00
CF00
CF00
C0C0
C0C0
3F00
3F00
ENDCHAR
STARTCHAR ordfeminine
ENCODING 170
SWIDTH 833 0
DWIDTH 10 0
BBX 8 14 0 4
BITMAP
3F
3F
C3
C3
C3
C3
C3
C3
3F
3F
00
00
FF
FF
ENDCHAR
STARTCHAR guillemotleft
ENCODING 171
SWIDTH 833 0
DWIDTH 10 0
BBX 10 6 0 2
BITMAP
30C0
30C0
C300
C300
30C0
30C0
ENDCHAR
STARTCHAR logicalnot
ENCODING 172
SWIDTH 833 0
DWIDTH 10 0
BBX 8 4 0 4
BITMAP
FF
FF
03
03
ENDCHAR
STARTCHAR uni00AD
ENCODING 173
SWIDTH 833 0
DWIDTH 10 0
BBX 8 2 0 4
BITMAP
FF
FF
ENDCHAR
STARTCHAR registered
ENCODING 174
SWIDTH 833 0
DWIDTH 10 0
BBX 10 14 0 0
BITMAP
3F00
3F00
C0C0
C0C0
CF00
CF00
CC00
CC00
CC00
CC00
C0C0
C0C0
3F00
3F00
ENDCHAR
STARTCHAR macron
ENCODING 175
SWIDTH 833 0
DWIDTH 10 0
BBX 8 2 0 12
BITMAP
FF
FF
ENDCHAR
STARTCHAR degree
ENCODING 176
SWIDTH 833 0
DWIDTH 10 0
BBX 6 6 2 8
BITMAP
30
30
CC
CC
30
30
ENDCHAR
STARTCHAR plusminus
ENCODING 177
SWIDTH 833 0
DWIDTH 10 0
BBX 10 10 0 0
BITMAP
0C00
0C00
0C00
0C00
FFC0
FFC0
0C00
0C00
FFC0
FFC0
ENDCHAR
STARTCHAR uni00B2
ENCODING 178
SWIDTH 833 0
DWIDTH 10 0
BBX 6 8 2 6
BITMAP
FC
FC
0C
0C
30
30
FC
FC
ENDCHAR
STARTCHAR uni00B3
ENCODING 179
SWIDTH 833 0
DWIDTH 10 0
BBX 6 8 2 6
BITMAP
FC
FC
30
30
0C
0C
F0
F0
ENDCHAR
STARTCHAR acute
ENCODING 180
SWIDTH 833 0
DWIDTH 10 0
BBX 4 4 2 8
BITMAP
30
30
C0
C0
ENDCHAR
STARTCHAR mu
ENCODING 181
SWIDTH 833 0
DWIDTH 10 0
BBX 10 14 0 -4
BITMAP
C300
C300
C300
C300
C300
C300
C300
C300
FF00
FF00
C0C0
C0C0
C000
C000
ENDCHAR
STARTCHAR paragraph
ENCODING 182
SWIDTH 833 0
DWIDTH 10 0
BBX 8 14 0 -2
BITMAP
3F
3F
F3
F3
F3
F3
F3
F3
33
33
33
33
33
33
ENDCHAR
STARTCHAR periodcentered
ENCODING 183
SWIDTH 833 0
DWIDTH 10 0
BBX 2 2 4 4
BITMAP
C0
C0
ENDCHAR
STARTCHAR cedilla
ENCODING 184
SWIDTH 833 0
DWIDTH 10 0
BBX 4 4 2 -4
BITMAP
30
30
F0
F0
ENDCHAR
STARTCHAR uni00B9
ENCODING 185
SWIDTH 833 0
DWIDTH 10 0
BBX 6 8 2 6
BITMAP
F0
F0
30
30
30
30
FC
FC
ENDCHAR
STARTCHAR ordmasculine
ENCODING 186
SWIDTH 833 0
DWIDTH 10 0
BBX 6 10 0 2
BITMAP
30
30
CC
CC
30
30
00
00
FC
FC
ENDCHAR
STARTCHAR guillemotright
ENCODING 187
SWIDTH 833 0
DWIDTH 10 0
BBX 10 6 0 2
BITMAP
C300
C300
30C0
30C0
C300
C300
ENDCHAR
STARTCHAR onequarter
ENCODING 188
SWIDTH 833 0
DWIDTH 10 0
BBX 8 22 0 -4
BITMAP
0C
0C
0C
0C
0C
0C
0C
0C
00
00
FF
FF
00
00
30
30
33
33
3F
3F
03
03
ENDCHAR
STARTCHAR onehalf
ENCODING 189
SWIDTH 833 0
DWIDTH 10 0
BBX 8 22 0 -4
BITMAP
0C
0C
0C
0C
0C
0C
0C
0C
00
00
FF
FF
00
00
3F
3F
03
03
0C
0C
3F
3F
ENDCHAR
STARTCHAR threequarters
ENCODING 190
SWIDTH 833 0
DWIDTH 10 0
BBX 8 22 0 -4
BITMAP
3F
3F
0C
0C
03
03
3C
3C
00
00
FF
FF
00
00
30
30
33
33
3F
3F
03
03
ENDCHAR
STARTCHAR questiondown
ENCODING 191
SWIDTH 833 0
DWIDTH 10 0
BBX 8 14 0 0
BITMAP
0C
0C
00
00
0C
0C
30
30
C0
C0
C3
C3
3C
3C
ENDCHAR
STARTCHAR Agrave
ENCODING 192
SWIDTH 833 0
DWIDTH 10 0
BBX 8 18 0 0
BITMAP
30
30
0C
0C
3C
3C
C3
C3
C3
C3
FF
FF
C3
C3
C3
C3
C3
C3
ENDCHAR
STARTCHAR Aacute
ENCODING 193
SWIDTH 833 0
DWIDTH 10 0
BBX 8 18 0 0
BITMAP
0C
0C
30
30
3C
3C
C3
C3
C3
C3
FF
FF
C3
C3
C3
C3
C3
C3
ENDCHAR
STARTCHAR Acircumflex
ENCODING 194
SWIDTH 833 0
DWIDTH 10 0
BBX 8 18 0 0
BITMAP
0C
0C
33
33
3C
3C
C3
C3
C3
C3
FF
FF
C3
C3
C3
C3
C3
C3
ENDCHAR
STARTCHAR Atilde
ENCODING 195
SWIDTH 833 0
DWIDTH 10 0
BBX 8 18 0 0
BITMAP
33
33
CC
CC
3C
3C
C3
C3
C3
C3
FF
FF
C3
C3
C3
C3
C3
C3
ENDCHAR
STARTCHAR Adieresis
ENCODING 196
SWIDTH 833 0
DWIDTH 10 0
BBX 8 18 0 0
BITMAP
C3
C3
00
00
3C
3C
C3
C3
C3
C3
FF
FF
C3
C3
C3
C3
C3
C3
ENDCHAR
STARTCHAR Aring
ENCODING 197
SWIDTH 833 0
DWIDTH 10 0
BBX 8 18 0 0
BITMAP
30
30
00
00
3C
3C
C3
C3
C3
C3
FF
FF
C3
C3
C3
C3
C3
C3
ENDCHAR
STARTCHAR AE
ENCODING 198
SWIDTH 833 0
DWIDTH 10 0
BBX 8 14 0 0
BITMAP
3F
3F
CC
CC
CC
CC
FF
FF
CC
CC
CC
CC
CF
CF
ENDCHAR
STARTCHAR Ccedilla
ENCODING 199
SWIDTH 833 0
DWIDTH 10 0
BBX 8 18 0 -4
BITMAP
3C
3C
C3
C3
C0
C0
C0
C0
C0
C0
C3
C3
3C
3C
0C
0C
3C
3C
ENDCHAR
STARTCHAR Egrave
ENCODING 200
SWIDTH 833 0
DWIDTH 10 0
BBX 8 18 0 0
BITMAP
30
30
0C
0C
FF
FF
C0
C0
C0
C0
F0
F0
C0
C0
C0
C0
FF
FF
ENDCHAR
STARTCHAR Eacute
ENCODING 201
SWIDTH 833 0
DWIDTH 10 0
BBX 8 18 0 0
BITMAP
0C
0C
30
30
FF
FF
C0
C0
C0
C0
F0
F0
C0
C0
C0
C0
FF
FF
ENDCHAR
STARTCHAR Ecircumflex
ENCODING 202
SWIDTH 833 0
DWIDTH 10 0
BBX 8 18 0 0
BITMAP
0C
0C
33
33
00
00
FF
FF
C0
C0
F0
F0
C0
C0
C0
C0
FF
FF
ENDCHAR
STARTCHAR Edieresis
ENCODING 203
SWIDTH 833 0
DWIDTH 10 0
BBX 8 18 0 0
BITMAP
33
33
00
00
FF
FF
C0
C0
C0
C0
F0
F0
C0
C0
C0
C0
FF
FF
ENDCHAR
STARTCHAR Igrave
ENCODING 204
SWIDTH 833 0
DWIDTH 10 0
BBX 6 18 0 0
BITMAP
C0
C0
30
30
FC
FC
30
30
30
30
30
30
30
30
30
30
FC
FC
ENDCHAR
STARTCHAR Iacute
ENCODING 205
SWIDTH 833 0
DWIDTH 10 0
BBX 6 18 0 0
BITMAP
0C
0C
30
30
FC
FC
30
30
30
30
30
30
30
30
30
30
FC
FC
ENDCHAR
STARTCHAR Icircumflex
ENCODING 206
SWIDTH 833 0
DWIDTH 10 0
BBX 6 18 0 0
BITMAP
30
30
CC
CC
00
00
FC
FC
30
30
30
30
30
30
30
30
FC
FC
ENDCHAR
STARTCHAR Idieresis
ENCODING 207
SWIDTH 833 0
DWIDTH 10 0
BBX 6 18 0 0
BITMAP
CC
CC
00
00
FC
FC
30
30
30
30
30
30
30
30
30
30
FC
FC
ENDCHAR
STARTCHAR Eth
ENCODING 208
SWIDTH 833 0
DWIDTH 10 0
BBX 10 14 0 0
BITMAP
3F00
3F00
30C0
30C0
30C0
30C0
FCC0
FCC0
30C0
30C0
30C0
30C0
3F00
3F00
ENDCHAR
STARTCHAR Ntilde
ENCODING 209
SWIDTH 833 0
DWIDTH 10 0
BBX 8 18 0 0
BITMAP
33
33
CC
CC
C3
C3
C3
C3
F3
F3
F3
F3
CF
CF
CF
CF
C3
C3
ENDCHAR
STARTCHAR Ograve
ENCODING 210
SWIDTH 833 0
DWIDTH 10 0
BBX 8 18 0 0
BITMAP
30
30
0C
0C
3C
3C
C3
C3
C3
C3
C3
C3
C3
C3
C3
C3
3C
3C
ENDCHAR
STARTCHAR Oacute
ENCODING 211
SWIDTH 833 0
DWIDTH 10 0
BBX 8 18 0 0
BITMAP
0C
0C
30
30
3C
3C
C3
C3
C3
C3
C3
C3
C3
C3
C3
C3
3C
3C
ENDCHAR
STARTCHAR Ocircumflex
ENCODING 212
SWIDTH 833 0
DWIDTH 10 0
BBX 8 18 0 0
BITMAP
0C
0C
33
33
00
00
3C
3C
C3
C3
C3
C3
C3
C3
C3
C3
3C
3C
ENDCHAR
STARTCHAR Otilde
ENCODING 213
SWIDTH 833 0
DWIDTH 10 0
BBX 8 18 0 0
BITMAP
33
33
CC
CC
3C
3C
C3
C3
C3
C3
C3
C3
C3
C3
C3
C3
3C
3C
ENDCHAR
STARTCHAR Odieresis
ENCODING 214
SWIDTH 833 0
DWIDTH 10 0
BBX 8 18 0 0
BITMAP
C3
C3
00
00
3C
3C
C3
C3
C3
C3
C3
C3
C3
C3
C3
C3
3C
3C
ENDCHAR
STARTCHAR multiply
ENCODING 215
SWIDTH 833 0
DWIDTH 10 0
BBX 10 10 0 0
BITMAP
C0C0
C0C0
3300
3300
0C00
0C00
3300
3300
C0C0
C0C0
ENDCHAR
STARTCHAR Oslash
ENCODING 216
SWIDTH 833 0
DWIDTH 10 0
BBX 10 14 0 0
BITMAP
3CC0
3CC0
C3C0
C3C0
CF00
CF00
F300
F300
C300
C300
C300
C300
3C00
3C00
ENDCHAR
STARTCHAR Ugrave
ENCODING 217
SWIDTH 833 0
DWIDTH 10 0
BBX 8 18 0 0
BITMAP
30
30
0C
0C
C3
C3
C3
C3
C3
C3
C3
C3
C3
C3
C3
C3
3F
3F
ENDCHAR
STARTCHAR Uacute
ENCODING 218
SWIDTH 833 0
DWIDTH 10 0
BBX 8 18 0 0
BITMAP
0C
0C
30
30
C3
C3
C3
C3
C3
C3
C3
C3
C3
C3
C3
C3
3F
3F
ENDCHAR
STARTCHAR Ucircumflex
ENCODING 219
SWIDTH 833 0
DWIDTH 10 0
BBX 8 18 0 0
BITMAP
0C
0C
33
33
00
00
C3
C3
C3
C3
C3
C3
C3
C3
C3
C3
3F
3F
ENDCHAR
STARTCHAR Udieresis
ENCODING 220
SWIDTH 833 0
DWIDTH 10 0
BBX 8 18 0 0
BITMAP
C3
C3
00
00
C3
C3
C3
C3
C3
C3
C3
C3
C3
C3
C3
C3
3F
3F
ENDCHAR
STARTCHAR Yacute
ENCODING 221
SWIDTH 833 0
DWIDTH 10 0
BBX 8 18 0 0
BITMAP
0C
0C
30
30
C3
C3
C3
C3
C3
C3
3F
3F
03
03
C3
C3
3C
3C
ENDCHAR
STARTCHAR Thorn
ENCODING 222
SWIDTH 833 0
DWIDTH 10 0
BBX 8 14 0 0
BITMAP
C0
C0
FC
FC
C3
C3
C3
C3
C3
C3
FC
FC
C0
C0
ENDCHAR
STARTCHAR germandbls
ENCODING 223
SWIDTH 833 0
DWIDTH 10 0
BBX 8 14 0 -2
BITMAP
F0
F0
CC
CC
CC
CC
F3
F3
C3
C3
FC
FC
C0
C0
ENDCHAR
STARTCHAR agrave
ENCODING 224
SWIDTH 833 0
DWIDTH 10 0
BBX 8 16 0 0
BITMAP
30
30
0C
0C
00
00
3F
3F
C3
C3
C3
C3
CF
CF
33
33
ENDCHAR
STARTCHAR aacute
ENCODING 225
SWIDTH 833 0
DWIDTH 10 0
BBX 8 16 0 0
BITMAP
0C
0C
30
30
00
00
3F
3F
C3
C3
C3
C3
CF
CF
33
33
ENDCHAR
STARTCHAR acircumflex
ENCODING 226
SWIDTH 833 0
DWIDTH 10 0
BBX 8 16 0 0
BITMAP
0C
0C
33
33
00
00
3F
3F
C3
C3
C3
C3
CF
CF
33
33
ENDCHAR
STARTCHAR atilde
ENCODING 227
SWIDTH 833 0
DWIDTH 10 0
BBX 10 16 0 0
BITMAP
0CC0
0CC0
3300
3300
0000
0000
3F00
3F00
C300
C300
C300
C300
CF00
CF00
3300
3300
ENDCHAR
STARTCHAR adieresis
ENCODING 228
SWIDTH 833 0
DWIDTH 10 0
BBX 8 14 0 0
BITMAP
C3
C3
00
00
3F
3F
C3
C3
C3
C3
CF
CF
33
33
ENDCHAR
STARTCHAR aring
ENCODING 229
SWIDTH 833 0
DWIDTH 10 0
BBX 8 14 0 0
BITMAP
0C
0C
00
00
3F
3F
C3
C3
C3
C3
CF
CF
33
33
ENDCHAR
STARTCHAR ae
ENCODING 230
SWIDTH 833 0
DWIDTH 10 0
BBX 8 10 0 0
BITMAP
3F
3F
CC
CC
FF
FF
CC
CC
CF
CF
ENDCHAR
STARTCHAR ccedilla
ENCODING 231
SWIDTH 833 0
DWIDTH 10 0
BBX 8 14 0 -4
BITMAP
3C
3C
C3
C3
C0
C0
C3
C3
3C
3C
0C
0C
3C
3C
ENDCHAR
STARTCHAR egrave
ENCODING 232
SWIDTH 833 0
DWIDTH 10 0
BBX 8 16 0 0
BITMAP
30
30
0C
0C
00
00
3C
3C
C3
C3
FF
FF
C0
C0
3F
3F
ENDCHAR
STARTCHAR eacute
ENCODING 233
SWIDTH 833 0
DWIDTH 10 0
BBX 8 16 0 0
BITMAP
0C
0C
30
30
00
00
3C
3C
C3
C3
FF
FF
C0
C0
3F
3F
ENDCHAR
STARTCHAR ecircumflex
ENCODING 234
SWIDTH 833 0
DWIDTH 10 0
BBX 8 16 0 0
BITMAP
0C
0C
33
33
00
00
3C
3C
C3
C3
FF
FF
C0
C0
3F
3F
ENDCHAR
STARTCHAR edieresis
ENCODING 235
SWIDTH 833 0
DWIDTH 10 0
BBX 8 14 0 0
BITMAP
C3
C3
00
00
3C
3C
C3
C3
FF
FF
C0
C0
3F
3F
ENDCHAR
STARTCHAR igrave
ENCODING 236
SWIDTH 833 0
DWIDTH 10 0
BBX 8 16 0 0
BITMAP
C0
C0
30
30
00
00
F0
F0
30
30
30
30
30
30
0F
0F
ENDCHAR
STARTCHAR iacute
ENCODING 237
SWIDTH 833 0
DWIDTH 10 0
BBX 8 16 0 0
BITMAP
0C
0C
30
30
00
00
F0
F0
30
30
30
30
30
30
0F
0F
ENDCHAR
STARTCHAR icircumflex
ENCODING 238
SWIDTH 833 0
DWIDTH 10 0
BBX 8 16 0 0
BITMAP
30
30
CC
CC
00
00
F0
F0
30
30
30
30
30
30
0F
0F
ENDCHAR
STARTCHAR idieresis
ENCODING 239
SWIDTH 833 0
DWIDTH 10 0
BBX 8 14 0 0
BITMAP
CC
CC
00
00
F0
F0
30
30
30
30
30
30
0F
0F
ENDCHAR
STARTCHAR eth
ENCODING 240
SWIDTH 833 0
DWIDTH 10 0
BBX 8 14 0 0
BITMAP
3C
3C
03
03
3F
3F
C3
C3
C3
C3
C3
C3
3C
3C
ENDCHAR
STARTCHAR ntilde
ENCODING 241
SWIDTH 833 0
DWIDTH 10 0
BBX 8 16 0 0
BITMAP
33
33
CC
CC
00
00
FC
FC
C3
C3
C3
C3
C3
C3
C3
C3
ENDCHAR
STARTCHAR ograve
ENCODING 242
SWIDTH 833 0
DWIDTH 10 0
BBX 8 16 0 0
BITMAP
30
30
0C
0C
00
00
3C
3C
C3
C3
C3
C3
C3
C3
3C
3C
ENDCHAR
STARTCHAR oacute
ENCODING 243
SWIDTH 833 0
DWIDTH 10 0
BBX 8 16 0 0
BITMAP
0C
0C
30
30
00
00
3C
3C
C3
C3
C3
C3
C3
C3
3C
3C
ENDCHAR
STARTCHAR ocircumflex
ENCODING 244
SWIDTH 833 0
DWIDTH 10 0
BBX 8 16 0 0
BITMAP
0C
0C
33
33
00
00
3C
3C
C3
C3
C3
C3
C3
C3
3C
3C
ENDCHAR
STARTCHAR otilde
ENCODING 245
SWIDTH 833 0
DWIDTH 10 0
BBX 8 16 0 0
BITMAP
33
33
CC
CC
00
00
3C
3C
C3
C3
C3
C3
C3
C3
3C
3C
ENDCHAR
STARTCHAR odieresis
ENCODING 246
SWIDTH 833 0
DWIDTH 10 0
BBX 8 14 0 0
BITMAP
C3
C3
00
00
3C
3C
C3
C3
C3
C3
C3
C3
3C
3C
ENDCHAR
STARTCHAR divide
ENCODING 247
SWIDTH 833 0
DWIDTH 10 0
BBX 8 10 0 0
BITMAP
3C
3C
00
00
FF
FF
00
00
3C
3C
ENDCHAR
STARTCHAR oslash
ENCODING 248
SWIDTH 833 0
DWIDTH 10 0
BBX 10 12 0 0
BITMAP
00C0
00C0
3F00
3F00
CF00
CF00
F300
F300
C300
C300
3C00
3C00
ENDCHAR
STARTCHAR ugrave
ENCODING 249
SWIDTH 833 0
DWIDTH 10 0
BBX 8 16 0 0
BITMAP
30
30
0C
0C
00
00
C3
C3
C3
C3
C3
C3
C3
C3
3F
3F
ENDCHAR
STARTCHAR uacute
ENCODING 250
SWIDTH 833 0
DWIDTH 10 0
BBX 8 16 0 0
BITMAP
0C
0C
30
30
00
00
C3
C3
C3
C3
C3
C3
C3
C3
3F
3F
ENDCHAR
STARTCHAR ucircumflex
ENCODING 251
SWIDTH 833 0
DWIDTH 10 0
BBX 8 16 0 0
BITMAP
0C
0C
33
33
00
00
C3
C3
C3
C3
C3
C3
C3
C3
3F
3F
ENDCHAR
STARTCHAR udieresis
ENCODING 252
SWIDTH 833 0
DWIDTH 10 0
BBX 8 14 0 0
BITMAP
C3
C3
00
00
C3
C3
C3
C3
C3
C3
C3
C3
3F
3F
ENDCHAR
STARTCHAR yacute
ENCODING 253
SWIDTH 833 0
DWIDTH 10 0
BBX 8 20 0 -4
BITMAP
0C
0C
30
30
00
00
C3
C3
C3
C3
C3
C3
C3
C3
3F
3F
C3
C3
3C
3C
ENDCHAR
STARTCHAR thorn
ENCODING 254
SWIDTH 833 0
DWIDTH 10 0
BBX 8 16 0 -4
BITMAP
C0
C0
C0
C0
FC
FC
C3
C3
C3
C3
FC
FC
C0
C0
C0
C0
ENDCHAR
STARTCHAR ydieresis
ENCODING 255
SWIDTH 833 0
DWIDTH 10 0
BBX 8 18 0 -4
BITMAP
C3
C3
00
00
C3
C3
C3
C3
C3
C3
C3
C3
3F
3F
C3
C3
3C
3C
ENDCHAR
STARTCHAR Amacron
ENCODING 256
SWIDTH 833 0
DWIDTH 10 0
BBX 8 18 0 0
BITMAP
FF
FF
00
00
3C
3C
C3
C3
C3
C3
FF
FF
C3
C3
C3
C3
C3
C3
ENDCHAR
STARTCHAR amacron
ENCODING 257
SWIDTH 1833 0
DWIDTH 22 0
BBX 8 14 0 0
BITMAP
3F
3F
00
00
3F
3F
C3
C3
C3
C3
CF
CF
33
33
ENDCHAR
STARTCHAR Abreve
ENCODING 258
SWIDTH 1833 0
DWIDTH 22 0
BBX 8 18 0 0
BITMAP
C3
C3
3C
3C
3C
3C
C3
C3
C3
C3
FF
FF
C3
C3
C3
C3
C3
C3
ENDCHAR
STARTCHAR abreve
ENCODING 259
SWIDTH 833 0
DWIDTH 10 0
BBX 8 16 0 0
BITMAP
C3
C3
3C
3C
00
00
3F
3F
C3
C3
C3
C3
CF
CF
33
33
ENDCHAR
STARTCHAR Aogonek
ENCODING 260
SWIDTH 1833 0
DWIDTH 22 0
BBX 8 18 0 -4
BITMAP
3C
3C
C3
C3
C3
C3
FF
FF
C3
C3
C3
C3
C3
C3
0C
0C
0F
0F
ENDCHAR
STARTCHAR aogonek
ENCODING 261
SWIDTH 1833 0
DWIDTH 22 0
BBX 8 14 0 -4
BITMAP
3F
3F
C3
C3
C3
C3
CF
CF
33
33
30
30
3C
3C
ENDCHAR
STARTCHAR Cacute
ENCODING 262
SWIDTH 1833 0
DWIDTH 22 0
BBX 8 18 0 0
BITMAP
03
03
0C
0C
3C
3C
C3
C3
C0
C0
C0
C0
C0
C0
C3
C3
3C
3C
ENDCHAR
STARTCHAR cacute
ENCODING 263
SWIDTH 1833 0
DWIDTH 22 0
BBX 8 16 0 0
BITMAP
0C
0C
30
30
00
00
3C
3C
C3
C3
C0
C0
C3
C3
3C
3C
ENDCHAR
STARTCHAR Ccircumflex
ENCODING 264
SWIDTH 1833 0
DWIDTH 22 0
BBX 8 18 0 0
BITMAP
0C
0C
33
33
3C
3C
C3
C3
C0
C0
C0
C0
C0
C0
C3
C3
3C
3C
ENDCHAR
STARTCHAR ccircumflex
ENCODING 265
SWIDTH 1833 0
DWIDTH 22 0
BBX 8 16 0 0
BITMAP
0C
0C
33
33
00
00
3C
3C
C3
C3
C0
C0
C3
C3
3C
3C
ENDCHAR
STARTCHAR Cdotaccent
ENCODING 266
SWIDTH 1833 0
DWIDTH 22 0
BBX 8 18 0 0
BITMAP
0C
0C
00
00
3C
3C
C3
C3
C0
C0
C0
C0
C0
C0
C3
C3
3C
3C
ENDCHAR
STARTCHAR cdotaccent
ENCODING 267
SWIDTH 1833 0
DWIDTH 22 0
BBX 8 14 0 0
BITMAP
0C
0C
00
00
3C
3C
C3
C3
C0
C0
C3
C3
3C
3C
ENDCHAR
STARTCHAR Ccaron
ENCODING 268
SWIDTH 833 0
DWIDTH 10 0
BBX 8 18 0 0
BITMAP
33
33
0C
0C
3C
3C
C3
C3
C0
C0
C0
C0
C0
C0
C3
C3
3C
3C
ENDCHAR
STARTCHAR ccaron
ENCODING 269
SWIDTH 833 0
DWIDTH 10 0
BBX 8 16 0 0
BITMAP
33
33
0C
0C
00
00
3C
3C
C3
C3
C0
C0
C3
C3
3C
3C
ENDCHAR
STARTCHAR Dcaron
ENCODING 270
SWIDTH 833 0
DWIDTH 10 0
BBX 8 18 0 0
BITMAP
33
33
0C
0C
FC
FC
C3
C3
C3
C3
C3
C3
C3
C3
C3
C3
FC
FC
ENDCHAR
STARTCHAR dcaron
ENCODING 271
SWIDTH 833 0
DWIDTH 10 0
BBX 10 14 0 0
BITMAP
0CC0
0CC0
0CC0
0CC0
3C00
3C00
CC00
CC00
CC00
CC00
CC00
CC00
3C00
3C00
ENDCHAR
STARTCHAR Dcroat
ENCODING 272
SWIDTH 1833 0
DWIDTH 22 0
BBX 8 14 0 0
BITMAP
FC
FC
C3
C3
C3
C3
F3
F3
C3
C3
C3
C3
FC
FC
ENDCHAR
STARTCHAR dcroat
ENCODING 273
SWIDTH 1833 0
DWIDTH 22 0
BBX 8 16 0 0
BITMAP
03
03
3F
3F
03
03
3F
3F
C3
C3
C3
C3
C3
C3
3F
3F
ENDCHAR
STARTCHAR Emacron
ENCODING 274
SWIDTH 833 0
DWIDTH 10 0
BBX 8 18 0 0
BITMAP
FF
FF
00
00
FF
FF
C0
C0
C0
C0
F0
F0
C0
C0
C0
C0
FF
FF
ENDCHAR
STARTCHAR emacron
ENCODING 275
SWIDTH 833 0
DWIDTH 10 0
BBX 8 14 0 0
BITMAP
FF
FF
00
00
3C
3C
C3
C3
FF
FF
C0
C0
3F
3F
ENDCHAR
STARTCHAR Ebreve
ENCODING 276
SWIDTH 833 0
DWIDTH 10 0
BBX 8 18 0 0
BITMAP
C3
C3
3C
3C
FF
FF
C0
C0
C0
C0
F0
F0
C0
C0
C0
C0
FF
FF
ENDCHAR
STARTCHAR ebreve
ENCODING 277
SWIDTH 833 0
DWIDTH 10 0
BBX 8 16 0 0
BITMAP
C3
C3
3C
3C
00
00
3C
3C
C3
C3
FF
FF
C0
C0
3F
3F
ENDCHAR
STARTCHAR Edotaccent
ENCODING 278
SWIDTH 833 0
DWIDTH 10 0
BBX 8 18 0 0
BITMAP
0C
0C
00
00
FF
FF
C0
C0
C0
C0
F0
F0
C0
C0
C0
C0
FF
FF
ENDCHAR
STARTCHAR edotaccent
ENCODING 279
SWIDTH 833 0
DWIDTH 10 0
BBX 8 14 0 0
BITMAP
0C
0C
00
00
3C
3C
C3
C3
FF
FF
C0
C0
3F
3F
ENDCHAR
STARTCHAR Eogonek
ENCODING 280
SWIDTH 1833 0
DWIDTH 22 0
BBX 8 18 0 -4
BITMAP
FF
FF
C0
C0
C0
C0
F0
F0
C0
C0
C0
C0
FF
FF
0C
0C
0F
0F
ENDCHAR
STARTCHAR eogonek
ENCODING 281
SWIDTH 1833 0
DWIDTH 22 0
BBX 8 14 0 -4
BITMAP
3C
3C
C3
C3
FF
FF
C0
C0
3F
3F
0C
0C
0F
0F
ENDCHAR
STARTCHAR Ecaron
ENCODING 282
SWIDTH 833 0
DWIDTH 10 0
BBX 8 18 0 0
BITMAP
33
33
0C
0C
FF
FF
C0
C0
C0
C0
F0
F0
C0
C0
C0
C0
FF
FF
ENDCHAR
STARTCHAR ecaron
ENCODING 283
SWIDTH 833 0
DWIDTH 10 0
BBX 8 16 0 0
BITMAP
33
33
0C
0C
00
00
3C
3C
C3
C3
FF
FF
C0
C0
3F
3F
ENDCHAR
STARTCHAR Gcircumflex
ENCODING 284
SWIDTH 833 0
DWIDTH 10 0
BBX 8 18 0 0
BITMAP
0C
0C
33
33
3C
3C
C3
C3
C0
C0
C0
C0
CF
CF
C3
C3
3C
3C
ENDCHAR
STARTCHAR gcircumflex
ENCODING 285
SWIDTH 1833 0
DWIDTH 22 0
BBX 8 20 0 -4
BITMAP
0C
0C
33
33
00
00
3F
3F
C3
C3
C3
C3
C3
C3
3F
3F
03
03
3C
3C
ENDCHAR
STARTCHAR Gbreve
ENCODING 286
SWIDTH 833 0
DWIDTH 10 0
BBX 8 18 0 0
BITMAP
C3
C3
3C
3C
3C
3C
C3
C3
C0
C0
C0
C0
CF
CF
C3
C3
3C
3C
ENDCHAR
STARTCHAR gbreve
ENCODING 287
SWIDTH 1833 0
DWIDTH 22 0
BBX 8 20 0 -4
BITMAP
C3
C3
3C
3C
00
00
3F
3F
C3
C3
C3
C3
C3
C3
3F
3F
03
03
3C
3C
ENDCHAR
STARTCHAR Gdotaccent
ENCODING 288
SWIDTH 833 0
DWIDTH 10 0
BBX 8 18 0 0
BITMAP
30
30
00
00
3C
3C
C3
C3
C0
C0
C0
C0
CF
CF
C3
C3
3C
3C
ENDCHAR
STARTCHAR gdotaccent
ENCODING 289
SWIDTH 1833 0
DWIDTH 22 0
BBX 8 18 0 -4
BITMAP
30
30
00
00
3F
3F
C3
C3
C3
C3
C3
C3
3F
3F
03
03
3F
3F
ENDCHAR
STARTCHAR uni0122
ENCODING 290
SWIDTH 833 0
DWIDTH 10 0
BBX 8 18 0 -4
BITMAP
3C
3C
C3
C3
C0
C0
C0
C0
CF
CF
C3
C3
3C
3C
0C
0C
3C
3C
ENDCHAR
STARTCHAR uni0123
ENCODING 291
SWIDTH 1833 0
DWIDTH 22 0
BBX 8 20 0 -4
BITMAP
03
03
0C
0C
00
00
3F
3F
C3
C3
C3
C3
C3
C3
3F
3F
03
03
3F
3F
ENDCHAR
STARTCHAR Hcircumflex
ENCODING 292
SWIDTH 1833 0
DWIDTH 22 0
BBX 8 18 0 0
BITMAP
0C
0C
33
33
00
00
C3
C3
C3
C3
FF
FF
C3
C3
C3
C3
C3
C3
ENDCHAR
STARTCHAR hcircumflex
ENCODING 293
SWIDTH 833 0
DWIDTH 10 0
BBX 8 18 0 0
BITMAP
30
30
CC
CC
C0
C0
C0
C0
FC
FC
C3
C3
C3
C3
C3
C3
C3
C3
ENDCHAR
STARTCHAR Hbar
ENCODING 294
SWIDTH 1833 0
DWIDTH 22 0
BBX 8 14 0 0
BITMAP
C3
C3
FF
FF
C3
C3
FF
FF
C3
C3
C3
C3
C3
C3
ENDCHAR
STARTCHAR hbar
ENCODING 295
SWIDTH 833 0
DWIDTH 10 0
BBX 8 16 0 0
BITMAP
C0
C0
FC
FC
C0
C0
FC
FC
C3
C3
C3
C3
C3
C3
C3
C3
ENDCHAR
STARTCHAR Itilde
ENCODING 296
SWIDTH 833 0
DWIDTH 10 0
BBX 8 18 0 0
BITMAP
33
33
CC
CC
00
00
FC
FC
30
30
30
30
30
30
30
30
FC
FC
ENDCHAR
STARTCHAR itilde
ENCODING 297
SWIDTH 833 0
DWIDTH 10 0
BBX 8 16 0 0
BITMAP
33
33
CC
CC
00
00
F0
F0
30
30
30
30
30
30
0F
0F
ENDCHAR
STARTCHAR Imacron
ENCODING 298
SWIDTH 833 0
DWIDTH 10 0
BBX 6 18 0 0
BITMAP
FC
FC
00
00
FC
FC
30
30
30
30
30
30
30
30
30
30
FC
FC
ENDCHAR
STARTCHAR imacron
ENCODING 299
SWIDTH 833 0
DWIDTH 10 0
BBX 8 14 0 0
BITMAP
FF
FF
00
00
F0
F0
30
30
30
30
30
30
0F
0F
ENDCHAR
STARTCHAR Ibreve
ENCODING 300
SWIDTH 833 0
DWIDTH 10 0
BBX 8 18 0 0
BITMAP
C3
C3
3C
3C
FC
FC
30
30
30
30
30
30
30
30
30
30
FC
FC
ENDCHAR
STARTCHAR ibreve
ENCODING 301
SWIDTH 833 0
DWIDTH 10 0
BBX 8 16 0 0
BITMAP
C3
C3
3C
3C
00
00
F0
F0
30
30
30
30
30
30
0F
0F
ENDCHAR
STARTCHAR Iogonek
ENCODING 302
SWIDTH 833 0
DWIDTH 10 0
BBX 8 18 0 -4
BITMAP
FC
FC
30
30
30
30
30
30
30
30
30
30
FC
FC
0C
0C
0F
0F
ENDCHAR
STARTCHAR iogonek
ENCODING 303
SWIDTH 833 0
DWIDTH 10 0
BBX 8 18 0 -4
BITMAP
30
30
00
00
F0
F0
30
30
30
30
30
30
0F
0F
C0
C0
F0
F0
ENDCHAR
STARTCHAR Idotaccent
ENCODING 304
SWIDTH 833 0
DWIDTH 10 0
BBX 6 18 0 0
BITMAP
30
30
00
00
FC
FC
30
30
30
30
30
30
30
30
30
30
FC
FC
ENDCHAR
STARTCHAR dotlessi
ENCODING 305
SWIDTH 833 0
DWIDTH 10 0
BBX 8 10 0 0
BITMAP
F0
F0
30
30
30
30
30
30
0F
0F
ENDCHAR
STARTCHAR IJ
ENCODING 306
SWIDTH 1833 0
DWIDTH 22 0
BBX 8 14 0 0
BITMAP
CF
CF
C3
C3
C3
C3
C3
C3
C3
C3
F3
F3
CF
CF
ENDCHAR
STARTCHAR ij
ENCODING 307
SWIDTH 1833 0
DWIDTH 22 0
BBX 6 18 0 -4
BITMAP
CC
CC
00
00
CC
CC
CC
CC
CC
CC
CC
CC
CC
CC
CC
CC
30
30
ENDCHAR
STARTCHAR Jcircumflex
ENCODING 308
SWIDTH 833 0
DWIDTH 10 0
BBX 8 18 0 0
BITMAP
0C
0C
33
33
00
00
3F
3F
03
03
03
03
03
03
C3
C3
3F
3F
ENDCHAR
STARTCHAR jcircumflex
ENCODING 309
SWIDTH 833 0
DWIDTH 10 0
BBX 6 20 0 -4
BITMAP
30
30
CC
CC
00
00
3C
3C
0C
0C
0C
0C
0C
0C
0C
0C
0C
0C
30
30
ENDCHAR
STARTCHAR uni0136
ENCODING 310
SWIDTH 833 0
DWIDTH 10 0
BBX 8 18 0 -4
BITMAP
C3
C3
CC
CC
F0
F0
CC
CC
C3
C3
C3
C3
C3
C3
0C
0C
3C
3C
ENDCHAR
STARTCHAR uni0137
ENCODING 311
SWIDTH 833 0
DWIDTH 10 0
BBX 8 18 0 -4
BITMAP
C0
C0
C0
C0
C3
C3
CC
CC
F0
F0
CC
CC
C3
C3
0C
0C
3C
3C
ENDCHAR
STARTCHAR kgreenlandic
ENCODING 312
SWIDTH 1833 0
DWIDTH 22 0
BBX 8 12 0 0
BITMAP
C3
C3
C3
C3
FC
FC
CC
CC
C3
C3
C3
C3
ENDCHAR
STARTCHAR Lacute
ENCODING 313
SWIDTH 833 0
DWIDTH 10 0
BBX 8 18 0 0
BITMAP
0C
0C
30
30
00
00
C0
C0
C0
C0
C0
C0
C0
C0
C0
C0
FF
FF
ENDCHAR
STARTCHAR lacute
ENCODING 314
SWIDTH 833 0
DWIDTH 10 0
BBX 8 18 0 0
BITMAP
0C
0C
30
30
F0
F0
30
30
30
30
30
30
30
30
30
30
0F
0F
ENDCHAR
STARTCHAR uni013B
ENCODING 315
SWIDTH 833 0
DWIDTH 10 0
BBX 8 18 0 -4
BITMAP
C0
C0
C0
C0
C0
C0
C0
C0
C0
C0
C0
C0
FF
FF
0C
0C
3C
3C
ENDCHAR
STARTCHAR uni013C
ENCODING 316
SWIDTH 833 0
DWIDTH 10 0
BBX 8 18 0 -4
BITMAP
F0
F0
30
30
30
30
30
30
30
30
30
30
0F
0F
30
30
F0
F0
ENDCHAR
STARTCHAR Lcaron
ENCODING 317
SWIDTH 833 0
DWIDTH 10 0
BBX 8 14 0 0
BITMAP
CC
CC
CC
CC
C0
C0
C0
C0
C0
C0
C0
C0
FF
FF
ENDCHAR
STARTCHAR lcaron
ENCODING 318
SWIDTH 833 0
DWIDTH 10 0
BBX 8 14 0 0
BITMAP
F3
F3
33
33
30
30
30
30
30
30
30
30
0F
0F
ENDCHAR
STARTCHAR Ldot
ENCODING 319
SWIDTH 1833 0
DWIDTH 22 0
BBX 8 14 0 0
BITMAP
C0
C0
C0
C0
C0
C0
C3
C3
C0
C0
C0
C0
FF
FF
ENDCHAR
STARTCHAR ldot
ENCODING 320
SWIDTH 1833 0
DWIDTH 22 0
BBX 8 12 0 0
BITMAP
F0
F0
30
30
33
33
30
30
30
30
0F
0F
ENDCHAR
STARTCHAR Lslash
ENCODING 321
SWIDTH 1833 0
DWIDTH 22 0
BBX 8 14 0 0
BITMAP
C0
C0
C0
C0
CC
CC
F0
F0
C0
C0
C0
C0
FF
FF
ENDCHAR
STARTCHAR lslash
ENCODING 322
SWIDTH 1833 0
DWIDTH 22 0
BBX 8 14 0 0
BITMAP
F0
F0
33
33
3C
3C
30
30
F0
F0
30
30
0F
0F
ENDCHAR
STARTCHAR Nacute
ENCODING 323
SWIDTH 1833 0
DWIDTH 22 0
BBX 8 18 0 0
BITMAP
03
03
0C
0C
C3
C3
C3
C3
F3
F3
CF
CF
CF
CF
C3
C3
C3
C3
ENDCHAR
STARTCHAR nacute
ENCODING 324
SWIDTH 1833 0
DWIDTH 22 0
BBX 8 16 0 0
BITMAP
0C
0C
30
30
00
00
FC
FC
C3
C3
C3
C3
C3
C3
C3
C3
ENDCHAR
STARTCHAR uni0145
ENCODING 325
SWIDTH 1833 0
DWIDTH 22 0
BBX 8 18 0 -4
BITMAP
C3
C3
C3
C3
F3
F3
CF
CF
CF
CF
C3
C3
C3
C3
0C
0C
0F
0F
ENDCHAR
STARTCHAR uni0146
ENCODING 326
SWIDTH 1833 0
DWIDTH 22 0
BBX 8 14 0 -4
BITMAP
FC
FC
C3
C3
C3
C3
C3
C3
C3
C3
0C
0C
0F
0F
ENDCHAR
STARTCHAR Ncaron
ENCODING 327
SWIDTH 833 0
DWIDTH 10 0
BBX 8 18 0 0
BITMAP
33
33
0C
0C
C3
C3
F3
F3
F3
F3
CF
CF
CF
CF
C3
C3
C3
C3
ENDCHAR
STARTCHAR ncaron
ENCODING 328
SWIDTH 833 0
DWIDTH 10 0
BBX 8 16 0 0
BITMAP
33
33
0C
0C
00
00
FC
FC
C3
C3
C3
C3
C3
C3
C3
C3
ENDCHAR
STARTCHAR napostrophe
ENCODING 329
SWIDTH 1833 0
DWIDTH 22 0
BBX 8 16 0 0
BITMAP
30
30
C0
C0
00
00
FC
FC
C3
C3
C3
C3
C3
C3
C3
C3
ENDCHAR
STARTCHAR Eng
ENCODING 330
SWIDTH 1833 0
DWIDTH 22 0
BBX 8 16 0 -4
BITMAP
CC
CC
F3
F3
C3
C3
C3
C3
C3
C3
C3
C3
03
03
3C
3C
ENDCHAR
STARTCHAR eng
ENCODING 331
SWIDTH 1833 0
DWIDTH 22 0
BBX 8 14 0 -4
BITMAP
FC
FC
C3
C3
C3
C3
C3
C3
C3
C3
03
03
0C
0C
ENDCHAR
STARTCHAR Omacron
ENCODING 332
SWIDTH 833 0
DWIDTH 10 0
BBX 8 18 0 0
BITMAP
FF
FF
00
00
3C
3C
C3
C3
C3
C3
C3
C3
C3
C3
C3
C3
3C
3C
ENDCHAR
STARTCHAR omacron
ENCODING 333
SWIDTH 833 0
DWIDTH 10 0
BBX 8 14 0 0
BITMAP
FF
FF
00
00
3C
3C
C3
C3
C3
C3
C3
C3
3C
3C
ENDCHAR
STARTCHAR Obreve
ENCODING 334
SWIDTH 833 0
DWIDTH 10 0
BBX 8 18 0 0
BITMAP
C3
C3
3C
3C
3C
3C
C3
C3
C3
C3
C3
C3
C3
C3
C3
C3
3C
3C
ENDCHAR
STARTCHAR obreve
ENCODING 335
SWIDTH 833 0
DWIDTH 10 0
BBX 8 16 0 0
BITMAP
C3
C3
3C
3C
00
00
3C
3C
C3
C3
C3
C3
C3
C3
3C
3C
ENDCHAR
STARTCHAR Ohungarumlaut
ENCODING 336
SWIDTH 833 0
DWIDTH 10 0
BBX 8 18 0 0
BITMAP
33
33
CC
CC
3C
3C
C3
C3
C3
C3
C3
C3
C3
C3
C3
C3
3C
3C
ENDCHAR
STARTCHAR ohungarumlaut
ENCODING 337
SWIDTH 833 0
DWIDTH 10 0
BBX 8 16 0 0
BITMAP
33
33
CC
CC
00
00
3C
3C
C3
C3
C3
C3
C3
C3
3C
3C
ENDCHAR
STARTCHAR OE
ENCODING 338
SWIDTH 1833 0
DWIDTH 22 0
BBX 10 14 0 0
BITMAP
3FC0
3FC0
CC00
CC00
CC00
CC00
CFC0
CFC0
CC00
CC00
CC00
CC00
3FC0
3FC0
ENDCHAR
STARTCHAR oe
ENCODING 339
SWIDTH 1833 0
DWIDTH 22 0
BBX 10 10 0 0
BITMAP
3FC0
3FC0
CCC0
CCC0
CFC0
CFC0
CC00
CC00
3FC0
3FC0
ENDCHAR
STARTCHAR Racute
ENCODING 340
SWIDTH 1833 0
DWIDTH 22 0
BBX 8 18 0 0
BITMAP
0C
0C
30
30
FC
FC
C3
C3
C3
C3
FC
FC
C3
C3
C3
C3
C3
C3
ENDCHAR
STARTCHAR racute
ENCODING 341
SWIDTH 1833 0
DWIDTH 22 0
BBX 8 16 0 0
BITMAP
0C
0C
30
30
00
00
FC
FC
C3
C3
C0
C0
C0
C0
C0
C0
ENDCHAR
STARTCHAR uni0156
ENCODING 342
SWIDTH 833 0
DWIDTH 10 0
BBX 8 18 0 -4
BITMAP
FC
FC
C3
C3
C3
C3
FC
FC
C3
C3
C3
C3
C3
C3
30
30
C0
C0
ENDCHAR
STARTCHAR uni0157
ENCODING 343
SWIDTH 833 0
DWIDTH 10 0
BBX 8 14 0 -4
BITMAP
FC
FC
C3
C3
C0
C0
C0
C0
C0
C0
30
30
C0
C0
ENDCHAR
STARTCHAR Rcaron
ENCODING 344
SWIDTH 1833 0
DWIDTH 22 0
BBX 8 18 0 0
BITMAP
33
33
0C
0C
FC
FC
C3
C3
C3
C3
FC
FC
C3
C3
C3
C3
C3
C3
ENDCHAR
STARTCHAR rcaron
ENCODING 345
SWIDTH 1833 0
DWIDTH 22 0
BBX 8 18 0 0
BITMAP
33
33
0C
0C
00
00
00
00
FC
FC
C3
C3
C0
C0
C0
C0
C0
C0
ENDCHAR
STARTCHAR Sacute
ENCODING 346
SWIDTH 1833 0
DWIDTH 22 0
BBX 8 18 0 0
BITMAP
0C
0C
30
30
3C
3C
C3
C3
C0
C0
3C
3C
03
03
C3
C3
3C
3C
ENDCHAR
STARTCHAR sacute
ENCODING 347
SWIDTH 1833 0
DWIDTH 22 0
BBX 8 16 0 0
BITMAP
0C
0C
30
30
00
00
3F
3F
C0
C0
3C
3C
03
03
FC
FC
ENDCHAR
STARTCHAR Scircumflex
ENCODING 348
SWIDTH 1833 0
DWIDTH 22 0
BBX 8 18 0 0
BITMAP
0C
0C
33
33
3C
3C
C3
C3
C0
C0
3C
3C
03
03
C3
C3
3C
3C
ENDCHAR
STARTCHAR scircumflex
ENCODING 349
SWIDTH 1833 0
DWIDTH 22 0
BBX 8 16 0 0
BITMAP
0C
0C
33
33
00
00
3F
3F
C0
C0
3C
3C
03
03
FC
FC
ENDCHAR
STARTCHAR Scedilla
ENCODING 350
SWIDTH 1833 0
DWIDTH 22 0
BBX 8 18 0 -4
BITMAP
3C
3C
C3
C3
C0
C0
3C
3C
03
03
C3
C3
3C
3C
0C
0C
3C
3C
ENDCHAR
STARTCHAR scedilla
ENCODING 351
SWIDTH 833 0
DWIDTH 10 0
BBX 8 14 0 -4
BITMAP
3F
3F
C0
C0
3C
3C
03
03
FC
FC
0C
0C
3C
3C
ENDCHAR
STARTCHAR Scaron
ENCODING 352
SWIDTH 833 0
DWIDTH 10 0
BBX 8 18 0 0
BITMAP
33
33
0C
0C
3C
3C
C3
C3
C0
C0
3C
3C
03
03
C3
C3
3C
3C
ENDCHAR
STARTCHAR scaron
ENCODING 353
SWIDTH 833 0
DWIDTH 10 0
BBX 8 16 0 0
BITMAP
33
33
0C
0C
00
00
3F
3F
C0
C0
3C
3C
03
03
FC
FC
ENDCHAR
STARTCHAR uni0162
ENCODING 354
SWIDTH 1833 0
DWIDTH 22 0
BBX 6 18 0 -4
BITMAP
FC
FC
30
30
30
30
30
30
30
30
30
30
30
30
0C
0C
3C
3C
ENDCHAR
STARTCHAR uni0163
ENCODING 355
SWIDTH 1833 0
DWIDTH 22 0
BBX 6 18 0 -4
BITMAP
30
30
30
30
FC
FC
30
30
30
30
30
30
0C
0C
30
30
F0
F0
ENDCHAR
STARTCHAR Tcaron
ENCODING 356
SWIDTH 833 0
DWIDTH 10 0
BBX 6 18 0 0
BITMAP
CC
CC
30
30
FC
FC
30
30
30
30
30
30
30
30
30
30
30
30
ENDCHAR
STARTCHAR tcaron
ENCODING 357
SWIDTH 833 0
DWIDTH 10 0
BBX 10 14 0 0
BITMAP
30C0
30C0
30C0
30C0
FC00
FC00
3000
3000
3000
3000
3000
3000
0C00
0C00
ENDCHAR
STARTCHAR Tbar
ENCODING 358
SWIDTH 1833 0
DWIDTH 22 0
BBX 6 14 0 0
BITMAP
FC
FC
30
30
30
30
30
30
FC
FC
30
30
30
30
ENDCHAR
STARTCHAR tbar
ENCODING 359
SWIDTH 1833 0
DWIDTH 22 0
BBX 6 14 0 0
BITMAP
30
30
30
30
FC
FC
30
30
FC
FC
30
30
0C
0C
ENDCHAR
STARTCHAR Utilde
ENCODING 360
SWIDTH 1833 0
DWIDTH 22 0
BBX 8 18 0 0
BITMAP
CC
CC
33
33
C0
C0
C3
C3
C3
C3
C3
C3
C3
C3
C3
C3
3F
3F
ENDCHAR
STARTCHAR utilde
ENCODING 361
SWIDTH 1833 0
DWIDTH 22 0
BBX 8 16 0 0
BITMAP
33
33
CC
CC
00
00
C3
C3
C3
C3
C3
C3
C3
C3
3F
3F
ENDCHAR
STARTCHAR Umacron
ENCODING 362
SWIDTH 1833 0
DWIDTH 22 0
BBX 8 18 0 0
BITMAP
FC
FC
00
00
C3
C3
C3
C3
C3
C3
C3
C3
C3
C3
C3
C3
3F
3F
ENDCHAR
STARTCHAR umacron
ENCODING 363
SWIDTH 1833 0
DWIDTH 22 0
BBX 8 14 0 0
BITMAP
FC
FC
00
00
C3
C3
C3
C3
C3
C3
C3
C3
3F
3F
ENDCHAR
STARTCHAR Ubreve
ENCODING 364
SWIDTH 1833 0
DWIDTH 22 0
BBX 8 18 0 0
BITMAP
C3
C3
3C
3C
C3
C3
C3
C3
C3
C3
C3
C3
C3
C3
C3
C3
3F
3F
ENDCHAR
STARTCHAR ubreve
ENCODING 365
SWIDTH 1833 0
DWIDTH 22 0
BBX 8 16 0 0
BITMAP
C3
C3
3C
3C
00
00
C3
C3
C3
C3
C3
C3
C3
C3
3F
3F
ENDCHAR
STARTCHAR Uring
ENCODING 366
SWIDTH 833 0
DWIDTH 10 0
BBX 8 18 0 0
BITMAP
0C
0C
33
33
CF
CF
C3
C3
C3
C3
C3
C3
C3
C3
C3
C3
3F
3F
ENDCHAR
STARTCHAR uring
ENCODING 367
SWIDTH 833 0
DWIDTH 10 0
BBX 8 16 0 0
BITMAP
0C
0C
33
33
0C
0C
C3
C3
C3
C3
C3
C3
C3
C3
3F
3F
ENDCHAR
STARTCHAR Uhungarumlaut
ENCODING 368
SWIDTH 1833 0
DWIDTH 22 0
BBX 8 18 0 0
BITMAP
C3
C3
00
00
C3
C3
C3
C3
C3
C3
C3
C3
C3
C3
C3
C3
3F
3F
ENDCHAR
STARTCHAR uhungarumlaut
ENCODING 369
SWIDTH 1833 0
DWIDTH 22 0
BBX 8 16 0 0
BITMAP
33
33
CC
CC
00
00
C3
C3
C3
C3
C3
C3
C3
C3
3F
3F
ENDCHAR
STARTCHAR Uogonek
ENCODING 370
SWIDTH 1833 0
DWIDTH 22 0
BBX 8 18 0 -4
BITMAP
C3
C3
C3
C3
C3
C3
C3
C3
C3
C3
C3
C3
3F
3F
0C
0C
03
03
ENDCHAR
STARTCHAR uogonek
ENCODING 371
SWIDTH 1833 0
DWIDTH 22 0
BBX 10 16 0 -4
BITMAP
C300
C300
C300
C300
C300
C300
C300
C300
C300
C300
3F00
3F00
0000
0000
03C0
03C0
ENDCHAR
STARTCHAR Wcircumflex
ENCODING 372
SWIDTH 1833 0
DWIDTH 22 0
BBX 8 18 0 0
BITMAP
0C
0C
33
33
00
00
C3
C3
C3
C3
C3
C3
C3
C3
FF
FF
C3
C3
ENDCHAR
STARTCHAR wcircumflex
ENCODING 373
SWIDTH 1833 0
DWIDTH 22 0
BBX 8 16 0 0
BITMAP
0C
0C
33
33
00
00
C3
C3
C3
C3
C3
C3
FF
FF
C3
C3
ENDCHAR
STARTCHAR Ycircumflex
ENCODING 374
SWIDTH 1833 0
DWIDTH 22 0
BBX 8 18 0 0
BITMAP
0C
0C
33
33
C0
C0
C3
C3
C3
C3
3F
3F
03
03
C3
C3
3F
3F
ENDCHAR
STARTCHAR ycircumflex
ENCODING 375
SWIDTH 1833 0
DWIDTH 22 0
BBX 8 20 0 -4
BITMAP
30
30
CC
CC
00
00
C3
C3
C3
C3
C3
C3
C3
C3
3F
3F
C3
C3
3C
3C
ENDCHAR
STARTCHAR Ydieresis
ENCODING 376
SWIDTH 1833 0
DWIDTH 22 0
BBX 8 18 0 0
BITMAP
C3
C3
00
00
C3
C3
C3
C3
C3
C3
3F
3F
03
03
C3
C3
3F
3F
ENDCHAR
STARTCHAR Zacute
ENCODING 377
SWIDTH 1833 0
DWIDTH 22 0
BBX 8 18 0 0
BITMAP
30
30
00
00
FF
FF
03
03
03
03
0C
0C
30
30
C0
C0
FF
FF
ENDCHAR
STARTCHAR zacute
ENCODING 378
SWIDTH 1833 0
DWIDTH 22 0
BBX 8 16 0 0
BITMAP
0C
0C
30
30
00
00
FF
FF
0C
0C
30
30
C0
C0
FF
FF
ENDCHAR
STARTCHAR Zdotaccent
ENCODING 379
SWIDTH 1833 0
DWIDTH 22 0
BBX 8 18 0 0
BITMAP
30
30
00
00
FF
FF
03
03
03
03
0C
0C
30
30
C0
C0
FF
FF
ENDCHAR
STARTCHAR zdotaccent
ENCODING 380
SWIDTH 1833 0
DWIDTH 22 0
BBX 8 14 0 0
BITMAP
30
30
00
00
FF
FF
0C
0C
30
30
C0
C0
FF
FF
ENDCHAR
STARTCHAR Zcaron
ENCODING 381
SWIDTH 833 0
DWIDTH 10 0
BBX 8 18 0 0
BITMAP
33
33
0C
0C
FF
FF
03
03
03
03
0C
0C
30
30
C0
C0
FF
FF
ENDCHAR
STARTCHAR zcaron
ENCODING 382
SWIDTH 833 0
DWIDTH 10 0
BBX 8 18 0 0
BITMAP
33
33
0C
0C
00
00
00
00
FF
FF
0C
0C
30
30
C0
C0
FF
FF
ENDCHAR
STARTCHAR longs
ENCODING 383
SWIDTH 1833 0
DWIDTH 22 0
BBX 8 14 0 0
BITMAP
0F
0F
30
30
F0
F0
30
30
30
30
30
30
30
30
ENDCHAR
STARTCHAR uni0180
ENCODING 384
SWIDTH 833 0
DWIDTH 10 0
BBX 8 16 0 0
BITMAP
C0
C0
FC
FC
C0
C0
FC
FC
C3
C3
C3
C3
C3
C3
FC
FC
ENDCHAR
STARTCHAR uni0181
ENCODING 385
SWIDTH 1833 0
DWIDTH 22 0
BBX 10 14 0 0
BITMAP
3F00
3F00
CCC0
CCC0
0CC0
0CC0
0F00
0F00
0CC0
0CC0
0CC0
0CC0
0F00
0F00
ENDCHAR
STARTCHAR uni0182
ENCODING 386
SWIDTH 1833 0
DWIDTH 22 0
BBX 8 14 0 0
BITMAP
FF
FF
C0
C0
C0
C0
FC
FC
C3
C3
C3
C3
FC
FC
ENDCHAR
STARTCHAR uni0183
ENCODING 387
SWIDTH 1833 0
DWIDTH 22 0
BBX 8 14 0 0
BITMAP
FF
FF
C0
C0
FC
FC
C3
C3
C3
C3
C3
C3
FC
FC
ENDCHAR
STARTCHAR uni0184
ENCODING 388
SWIDTH 833 0
DWIDTH 10 0
BBX 8 14 0 0
BITMAP
30
30
F0
F0
30
30
3C
3C
33
33
33
33
3C
3C
ENDCHAR
STARTCHAR uni0185
ENCODING 389
SWIDTH 833 0
DWIDTH 10 0
BBX 8 14 0 0
BITMAP
30
30
F0
F0
3C
3C
33
33
33
33
33
33
3C
3C
ENDCHAR
STARTCHAR uni0186
ENCODING 390
SWIDTH 1833 0
DWIDTH 22 0
BBX 8 14 0 0
BITMAP
3C
3C
C3
C3
03
03
03
03
03
03
C3
C3
3C
3C
ENDCHAR
STARTCHAR uni0187
ENCODING 391
SWIDTH 833 0
DWIDTH 10 0
BBX 10 18 0 0
BITMAP
03C0
03C0
0C00
0C00
3C00
3C00
C300
C300
C000
C000
C000
C000
C000
C000
C300
C300
3C00
3C00
ENDCHAR
STARTCHAR uni0188
ENCODING 392
SWIDTH 833 0
DWIDTH 10 0
BBX 10 14 0 0
BITMAP
03C0
03C0
0C00
0C00
3C00
3C00
C300
C300
C000
C000
C300
C300
3C00
3C00
ENDCHAR
STARTCHAR uni0189
ENCODING 393
SWIDTH 1833 0
DWIDTH 22 0
BBX 8 14 0 0
BITMAP
3C
3C
33
33
33
33
FF
FF
33
33
33
33
3C
3C
ENDCHAR
STARTCHAR uni018A
ENCODING 394
SWIDTH 833 0
DWIDTH 10 0
BBX 10 14 0 0
BITMAP
3F00
3F00
CCC0
CCC0
0CC0
0CC0
0CC0
0CC0
0CC0
0CC0
0CC0
0CC0
0F00
0F00
ENDCHAR
STARTCHAR uni018B
ENCODING 395
SWIDTH 833 0
DWIDTH 10 0
BBX 8 16 0 0
BITMAP
FF
FF
03
03
03
03
03
03
3F
3F
C3
C3
C3
C3
3F
3F
ENDCHAR
STARTCHAR uni018C
ENCODING 396
SWIDTH 833 0
DWIDTH 10 0
BBX 8 16 0 0
BITMAP
FF
FF
03
03
03
03
3F
3F
C3
C3
C3
C3
C3
C3
3F
3F
ENDCHAR
STARTCHAR uni018D
ENCODING 397
SWIDTH 1833 0
DWIDTH 22 0
BBX 8 14 0 -4
BITMAP
3C
3C
C3
C3
C3
C3
C3
C3
3C
3C
03
03
FC
FC
ENDCHAR
STARTCHAR uni018E
ENCODING 398
SWIDTH 1833 0
DWIDTH 22 0
BBX 8 14 0 0
BITMAP
FF
FF
03
03
03
03
0F
0F
03
03
03
03
FF
FF
ENDCHAR
STARTCHAR uni018F
ENCODING 399
SWIDTH 1833 0
DWIDTH 22 0
BBX 8 10 0 0
BITMAP
FC
FC
03
03
FF
FF
C3
C3
3C
3C
ENDCHAR
STARTCHAR uni0190
ENCODING 400
SWIDTH 1833 0
DWIDTH 22 0
BBX 8 14 0 0
BITMAP
3F
3F
C0
C0
C0
C0
3C
3C
C0
C0
C3
C3
3C
3C
ENDCHAR
STARTCHAR uni0191
ENCODING 401
SWIDTH 1833 0
DWIDTH 22 0
BBX 8 18 0 -4
BITMAP
3F
3F
30
30
30
30
3C
3C
30
30
30
30
30
30
30
30
C0
C0
ENDCHAR
STARTCHAR florin
ENCODING 402
SWIDTH 1833 0
DWIDTH 22 0
BBX 8 20 0 -4
BITMAP
0C
0C
33
33
30
30
30
30
FC
FC
30
30
30
30
30
30
30
30
C0
C0
ENDCHAR
STARTCHAR uni0193
ENCODING 403
SWIDTH 1833 0
DWIDTH 22 0
BBX 8 18 0 0
BITMAP
0F
0F
30
30
3C
3C
C3
C3
C0
C0
C0
C0
CF
CF
C3
C3
3C
3C
ENDCHAR
STARTCHAR uni0194
ENCODING 404
SWIDTH 1833 0
DWIDTH 22 0
BBX 8 14 0 0
BITMAP
C3
C3
33
33
0C
0C
3C
3C
C3
C3
C3
C3
3C
3C
ENDCHAR
STARTCHAR uni0195
ENCODING 405
SWIDTH 1833 0
DWIDTH 22 0
BBX 10 14 0 0
BITMAP
C000
C000
C300
C300
F0C0
F0C0
CCC0
CCC0
CCC0
CCC0
CCC0
CCC0
CF00
CF00
ENDCHAR
STARTCHAR uni0196
ENCODING 406
SWIDTH 1833 0
DWIDTH 22 0
BBX 4 14 2 0
BITMAP
C0
C0
C0
C0
C0
C0
C0
C0
C0
C0
C0
C0
30
30
ENDCHAR
STARTCHAR uni0197
ENCODING 407
SWIDTH 1833 0
DWIDTH 22 0
BBX 6 14 0 0
BITMAP
30
30
30
30
30
30
30
30
30
30
FC
FC
30
30
ENDCHAR
STARTCHAR uni0198
ENCODING 408
SWIDTH 1833 0
DWIDTH 22 0
BBX 10 14 0 0
BITMAP
C300
C300
CCC0
CCC0
F000
F000
CC00
CC00
CC00
CC00
C300
C300
C300
C300
ENDCHAR
STARTCHAR uni0199
ENCODING 409
SWIDTH 1833 0
DWIDTH 22 0
BBX 8 16 0 0
BITMAP
30
30
CC
CC
C0
C0
C3
C3
CC
CC
F0
F0
CC
CC
C3
C3
ENDCHAR
STARTCHAR uni019A
ENCODING 410
SWIDTH 1833 0
DWIDTH 22 0
BBX 6 14 2 0
BITMAP
F0
F0
30
30
30
30
FC
FC
30
30
30
30
0C
0C
ENDCHAR
STARTCHAR uni019B
ENCODING 411
SWIDTH 1833 0
DWIDTH 22 0
BBX 8 14 0 0
BITMAP
33
33
CC
CC
0C
0C
0C
0C
3C
3C
C3
C3
C3
C3
ENDCHAR
STARTCHAR uni019C
ENCODING 412
SWIDTH 1833 0
DWIDTH 22 0
BBX 8 14 0 0
BITMAP
C3
C3
C3
C3
C3
C3
C3
C3
C3
C3
FF
FF
C3
C3
ENDCHAR
STARTCHAR uni019D
ENCODING 413
SWIDTH 1833 0
DWIDTH 22 0
BBX 8 18 0 -4
BITMAP
C3
C3
C3
C3
F3
F3
CF
CF
CF
CF
C3
C3
C3
C3
03
03
3C
3C
ENDCHAR
STARTCHAR uni019E
ENCODING 414
SWIDTH 1833 0
DWIDTH 22 0
BBX 8 14 0 -4
BITMAP
FC
FC
C3
C3
C3
C3
C3
C3
C3
C3
03
03
03
03
ENDCHAR
STARTCHAR uni019F
ENCODING 415
SWIDTH 1833 0
DWIDTH 22 0
BBX 8 12 0 0
BITMAP
3C
3C
C3
C3
FF
FF
C3
C3
C3
C3
3C
3C
ENDCHAR
STARTCHAR Ohorn
ENCODING 416
SWIDTH 1833 0
DWIDTH 22 0
BBX 8 18 0 0
BITMAP
03
03
03
03
3C
3C
C3
C3
C3
C3
C3
C3
C3
C3
C3
C3
3C
3C
ENDCHAR
STARTCHAR ohorn
ENCODING 417
SWIDTH 1833 0
DWIDTH 22 0
BBX 8 14 0 0
BITMAP
03
03
03
03
3C
3C
C3
C3
C3
C3
C3
C3
3C
3C
ENDCHAR
STARTCHAR uni01A2
ENCODING 418
SWIDTH 1833 0
DWIDTH 22 0
BBX 10 12 0 0
BITMAP
3FC0
3FC0
CCC0
CCC0
CCC0
CCC0
CCC0
CCC0
CCC0
CCC0
3CC0
3CC0
ENDCHAR
STARTCHAR uni01A3
ENCODING 419
SWIDTH 1833 0
DWIDTH 22 0
BBX 10 16 0 -4
BITMAP
3F00
3F00
CCC0
CCC0
CCC0
CCC0
CCC0
CCC0
3CC0
3CC0
00C0
00C0
00C0
00C0
0300
0300
ENDCHAR
STARTCHAR uni01A4
ENCODING 420
SWIDTH 1833 0
DWIDTH 22 0
BBX 8 14 0 0
BITMAP
3C
3C
F3
F3
33
33
3C
3C
30
30
30
30
30
30
ENDCHAR
STARTCHAR uni01A5
ENCODING 421
SWIDTH 1833 0
DWIDTH 22 0
BBX 8 18 0 -4
BITMAP
3C
3C
C0
C0
FC
FC
C3
C3
C3
C3
C3
C3
FC
FC
C0
C0
C0
C0
ENDCHAR
STARTCHAR uni01A6
ENCODING 422
SWIDTH 1833 0
DWIDTH 22 0
BBX 10 20 0 -4
BITMAP
C000
C000
FC00
FC00
C300
C300
C300
C300
FC00
FC00
C300
C300
C300
C300
C300
C300
0300
0300
00C0
00C0
ENDCHAR
STARTCHAR uni01A7
ENCODING 423
SWIDTH 1833 0
DWIDTH 22 0
BBX 8 14 0 0
BITMAP
3C
3C
C3
C3
03
03
3C
3C
C0
C0
C3
C3
3C
3C
ENDCHAR
STARTCHAR uni01A8
ENCODING 424
SWIDTH 1833 0
DWIDTH 22 0
BBX 8 10 0 0
BITMAP
FC
FC
03
03
3C
3C
C0
C0
3F
3F
ENDCHAR
STARTCHAR uni01A9
ENCODING 425
SWIDTH 1833 0
DWIDTH 22 0
BBX 8 14 0 0
BITMAP
FF
FF
C0
C0
30
30
0C
0C
30
30
C0
C0
FF
FF
ENDCHAR
STARTCHAR uni01AA
ENCODING 426
SWIDTH 1833 0
DWIDTH 22 0
BBX 8 18 0 0
BITMAP
30
30
CC
CC
0C
0C
3F
3F
0C
0C
0C
0C
0C
0C
0C
0C
03
03
ENDCHAR
STARTCHAR uni01AB
ENCODING 427
SWIDTH 1833 0
DWIDTH 22 0
BBX 8 18 0 -4
BITMAP
30
30
30
30
FF
FF
30
30
30
30
30
30
0F
0F
03
03
0C
0C
ENDCHAR
STARTCHAR uni01AC
ENCODING 428
SWIDTH 1833 0
DWIDTH 22 0
BBX 8 14 0 0
BITMAP
3F
3F
CC
CC
0C
0C
0C
0C
0C
0C
0C
0C
0C
0C
ENDCHAR
STARTCHAR uni01AD
ENCODING 429
SWIDTH 1833 0
DWIDTH 22 0
BBX 8 18 0 0
BITMAP
0C
0C
30
30
30
30
30
30
FF
FF
30
30
30
30
30
30
0F
0F
ENDCHAR
STARTCHAR uni01AE
ENCODING 430
SWIDTH 1833 0
DWIDTH 22 0
BBX 6 18 0 -4
BITMAP
FC
FC
30
30
30
30
30
30
30
30
30
30
30
30
30
30
0C
0C
ENDCHAR
STARTCHAR Uhorn
ENCODING 431
SWIDTH 1833 0
DWIDTH 22 0
BBX 10 18 0 0
BITMAP
00C0
00C0
00C0
00C0
C300
C300
C300
C300
C300
C300
C300
C300
C300
C300
C300
C300
3C00
3C00
ENDCHAR
STARTCHAR uhorn
ENCODING 432
SWIDTH 1833 0
DWIDTH 22 0
BBX 10 14 0 0
BITMAP
00C0
00C0
00C0
00C0
C300
C300
C300
C300
C300
C300
C300
C300
3F00
3F00
ENDCHAR
STARTCHAR uni01B1
ENCODING 433
SWIDTH 1833 0
DWIDTH 22 0
BBX 10 12 0 0
BITMAP
F3C0
F3C0
3300
3300
C0C0
C0C0
C0C0
C0C0
C0C0
C0C0
3F00
3F00
ENDCHAR
STARTCHAR uni01B2
ENCODING 434
SWIDTH 1833 0
DWIDTH 22 0
BBX 8 12 0 0
BITMAP
CC
CC
C3
C3
C3
C3
C3
C3
CC
CC
F0
F0
ENDCHAR
STARTCHAR uni01B3
ENCODING 435
SWIDTH 1833 0
DWIDTH 22 0
BBX 10 16 0 0
BITMAP
0300
0300
CCC0
CCC0
CC00
CC00
CC00
CC00
3C00
3C00
0C00
0C00
CC00
CC00
3C00
3C00
ENDCHAR
STARTCHAR uni01B4
ENCODING 436
SWIDTH 1833 0
DWIDTH 22 0
BBX 10 16 0 -4
BITMAP
0300
0300
CCC0
CCC0
CC00
CC00
CC00
CC00
CC00
CC00
3C00
3C00
CC00
CC00
3C00
3C00
ENDCHAR
STARTCHAR uni01B5
ENCODING 437
SWIDTH 833 0
DWIDTH 10 0
BBX 8 14 0 0
BITMAP
FF
FF
03
03
0C
0C
FF
FF
30
30
C0
C0
FF
FF
ENDCHAR
STARTCHAR uni01B6
ENCODING 438
SWIDTH 1833 0
DWIDTH 22 0
BBX 8 12 0 0
BITMAP
FF
FF
03
03
0C
0C
FF
FF
30
30
FF
FF
ENDCHAR
STARTCHAR uni01C7
ENCODING 455
SWIDTH 1833 0
DWIDTH 22 0
BBX 8 18 0 -4
BITMAP
CF
CF
C3
C3
C3
C3
C3
C3
C3
C3
C3
C3
F3
F3
03
03
3C
3C
ENDCHAR
STARTCHAR uni01C8
ENCODING 456
SWIDTH 1833 0
DWIDTH 22 0
BBX 8 18 0 -4
BITMAP
C3
C3
C0
C0
C3
C3
C3
C3
C3
C3
C3
C3
F3
F3
03
03
0C
0C
ENDCHAR
STARTCHAR uni01C9
ENCODING 457
SWIDTH 1833 0
DWIDTH 22 0
BBX 8 18 0 -4
BITMAP
F3
F3
30
30
33
33
33
33
33
33
33
33
33
33
03
03
0C
0C
ENDCHAR
STARTCHAR uni01CA
ENCODING 458
SWIDTH 1833 0
DWIDTH 22 0
BBX 10 18 0 -4
BITMAP
CCC0
CCC0
FCC0
FCC0
FCC0
FCC0
CCC0
CCC0
CCC0
CCC0
CCC0
CCC0
CCC0
CCC0
00C0
00C0
0F00
0F00
ENDCHAR
STARTCHAR uni01CB
ENCODING 459
SWIDTH 1833 0
DWIDTH 22 0
BBX 10 18 0 -4
BITMAP
CCC0
CCC0
FC00
FC00
FCC0
FCC0
CCC0
CCC0
CCC0
CCC0
CCC0
CCC0
CCC0
CCC0
00C0
00C0
0300
0300
ENDCHAR
STARTCHAR uni01CC
ENCODING 460
SWIDTH 1833 0
DWIDTH 22 0
BBX 10 18 0 -4
BITMAP
00C0
00C0
0000
0000
F0C0
F0C0
CCC0
CCC0
CCC0
CCC0
CCC0
CCC0
CCC0
CCC0
00C0
00C0
0300
0300
ENDCHAR
STARTCHAR uni01CD
ENCODING 461
SWIDTH 1833 0
DWIDTH 22 0
BBX 8 18 0 0
BITMAP
CC
CC
30
30
3C
3C
C3
C3
C3
C3
FF
FF
C3
C3
C3
C3
C3
C3
ENDCHAR
STARTCHAR uni01CE
ENCODING 462
SWIDTH 1833 0
DWIDTH 22 0
BBX 8 16 0 0
BITMAP
CC
CC
30
30
00
00
3F
3F
C3
C3
C3
C3
C3
C3
3F
3F
ENDCHAR
STARTCHAR uni01CF
ENCODING 463
SWIDTH 1833 0
DWIDTH 22 0
BBX 6 18 0 0
BITMAP
CC
CC
30
30
FC
FC
30
30
30
30
30
30
30
30
30
30
FC
FC
ENDCHAR
STARTCHAR uni01D0
ENCODING 464
SWIDTH 1833 0
DWIDTH 22 0
BBX 8 16 0 0
BITMAP
CC
CC
30
30
00
00
F0
F0
30
30
30
30
30
30
0F
0F
ENDCHAR
STARTCHAR uni01D1
ENCODING 465
SWIDTH 1833 0
DWIDTH 22 0
BBX 8 18 0 0
BITMAP
CC
CC
30
30
3C
3C
C3
C3
C3
C3
C3
C3
C3
C3
C3
C3
3C
3C
ENDCHAR
STARTCHAR uni01D2
ENCODING 466
SWIDTH 1833 0
DWIDTH 22 0
BBX 8 16 0 0
BITMAP
CC
CC
30
30
00
00
3C
3C
C3
C3
C3
C3
C3
C3
3C
3C
ENDCHAR
STARTCHAR uni01D3
ENCODING 467
SWIDTH 1833 0
DWIDTH 22 0
BBX 8 18 0 0
BITMAP
CC
CC
30
30
C3
C3
C3
C3
C3
C3
C3
C3
C3
C3
C3
C3
3C
3C
ENDCHAR
STARTCHAR uni01D4
ENCODING 468
SWIDTH 1833 0
DWIDTH 22 0
BBX 8 16 0 0
BITMAP
CC
CC
30
30
00
00
C3
C3
C3
C3
C3
C3
C3
C3
3F
3F
ENDCHAR
STARTCHAR uni020C
ENCODING 524
SWIDTH 1833 0
DWIDTH 22 0
BBX 8 18 0 0
BITMAP
CC
CC
33
33
3C
3C
C3
C3
C3
C3
C3
C3
C3
C3
C3
C3
3C
3C
ENDCHAR
STARTCHAR uni020D
ENCODING 525
SWIDTH 1833 0
DWIDTH 22 0
BBX 8 16 0 0
BITMAP
CC
CC
33
33
00
00
3C
3C
C3
C3
C3
C3
C3
C3
3C
3C
ENDCHAR
STARTCHAR uni020E
ENCODING 526
SWIDTH 1833 0
DWIDTH 22 0
BBX 8 18 0 0
BITMAP
3C
3C
C3
C3
3C
3C
C3
C3
C3
C3
C3
C3
C3
C3
C3
C3
3C
3C
ENDCHAR
STARTCHAR uni020F
ENCODING 527
SWIDTH 1833 0
DWIDTH 22 0
BBX 8 16 0 0
BITMAP
3C
3C
C3
C3
00
00
3C
3C
C3
C3
C3
C3
C3
C3
3C
3C
ENDCHAR
STARTCHAR uni0210
ENCODING 528
SWIDTH 1833 0
DWIDTH 22 0
BBX 8 18 0 0
BITMAP
CC
CC
33
33
00
00
FC
FC
C3
C3
FC
FC
C3
C3
C3
C3
C3
C3
ENDCHAR
STARTCHAR uni0211
ENCODING 529
SWIDTH 1833 0
DWIDTH 22 0
BBX 8 16 0 0
BITMAP
CC
CC
33
33
00
00
FC
FC
C3
C3
C0
C0
C0
C0
C0
C0
ENDCHAR
STARTCHAR uni0212
ENCODING 530
SWIDTH 1833 0
DWIDTH 22 0
BBX 8 18 0 0
BITMAP
3C
3C
C3
C3
00
00
FC
FC
C3
C3
FC
FC
C3
C3
C3
C3
C3
C3
ENDCHAR
STARTCHAR uni0213
ENCODING 531
SWIDTH 1833 0
DWIDTH 22 0
BBX 8 16 0 0
BITMAP
3C
3C
C3
C3
00
00
FC
FC
C3
C3
C0
C0
C0
C0
C0
C0
ENDCHAR
STARTCHAR uni0214
ENCODING 532
SWIDTH 1833 0
DWIDTH 22 0
BBX 8 18 0 0
BITMAP
CC
CC
33
33
00
00
C3
C3
C3
C3
C3
C3
C3
C3
C3
C3
3F
3F
ENDCHAR
STARTCHAR uni0215
ENCODING 533
SWIDTH 1833 0
DWIDTH 22 0
BBX 8 16 0 0
BITMAP
CC
CC
33
33
00
00
C3
C3
C3
C3
C3
C3
C3
C3
3F
3F
ENDCHAR
STARTCHAR uni0216
ENCODING 534
SWIDTH 1833 0
DWIDTH 22 0
BBX 8 18 0 0
BITMAP
3C
3C
C3
C3
00
00
C3
C3
C3
C3
C3
C3
C3
C3
C3
C3
3F
3F
ENDCHAR
STARTCHAR uni0217
ENCODING 535
SWIDTH 1833 0
DWIDTH 22 0
BBX 8 16 0 0
BITMAP
3C
3C
C3
C3
00
00
C3
C3
C3
C3
C3
C3
C3
C3
3F
3F
ENDCHAR
STARTCHAR uni0218
ENCODING 536
SWIDTH 833 0
DWIDTH 10 0
BBX 8 18 0 -4
BITMAP
3C
3C
C3
C3
C0
C0
3C
3C
03
03
C3
C3
3C
3C
0C
0C
30
30
ENDCHAR
STARTCHAR uni0219
ENCODING 537
SWIDTH 833 0
DWIDTH 10 0
BBX 8 14 0 -4
BITMAP
3F
3F
C0
C0
3C
3C
03
03
FC
FC
0C
0C
30
30
ENDCHAR
STARTCHAR uni021A
ENCODING 538
SWIDTH 833 0
DWIDTH 10 0
BBX 6 18 0 -4
BITMAP
FC
FC
30
30
30
30
30
30
30
30
30
30
30
30
30
30
C0
C0
ENDCHAR
STARTCHAR uni021B
ENCODING 539
SWIDTH 833 0
DWIDTH 10 0
BBX 8 18 0 -4
BITMAP
30
30
30
30
FF
FF
30
30
30
30
30
30
0F
0F
0C
0C
30
30
ENDCHAR
STARTCHAR uni0296
ENCODING 662
SWIDTH 1833 0
DWIDTH 22 0
BBX 8 14 0 0
BITMAP
30
30
30
30
0C
0C
03
03
03
03
C3
C3
3C
3C
ENDCHAR
STARTCHAR uni0298
ENCODING 664
SWIDTH 1833 0
DWIDTH 22 0
BBX 10 16 0 0
BITMAP
3F00
3F00
C0C0
C0C0
C0C0
C0C0
CCC0
CCC0
CCC0
CCC0
C0C0
C0C0
C0C0
C0C0
3F00
3F00
ENDCHAR
STARTCHAR caron
ENCODING 711
SWIDTH 833 0
DWIDTH 10 0
BBX 6 4 2 10
BITMAP
CC
CC
30
30
ENDCHAR
STARTCHAR ring
ENCODING 730
SWIDTH 833 0
DWIDTH 10 0
BBX 6 6 2 10
BITMAP
30
30
CC
CC
30
30
ENDCHAR
STARTCHAR uni0364
ENCODING 868
SWIDTH 1833 0
DWIDTH 22 0
BBX 8 10 0 0
BITMAP
3C
3C
C3
C3
03
03
03
03
0C
0C
ENDCHAR
STARTCHAR Alpha
ENCODING 913
SWIDTH 833 0
DWIDTH 10 0
BBX 8 14 0 0
BITMAP
3C
3C
C3
C3
C3
C3
FF
FF
C3
C3
C3
C3
C3
C3
ENDCHAR
STARTCHAR Beta
ENCODING 914
SWIDTH 833 0
DWIDTH 10 0
BBX 8 14 0 0
BITMAP
FC
FC
C3
C3
C3
C3
FC
FC
C3
C3
C3
C3
FC
FC
ENDCHAR
STARTCHAR Gamma
ENCODING 915
SWIDTH 833 0
DWIDTH 10 0
BBX 8 14 0 0
BITMAP
FF
FF
C0
C0
C0
C0
C0
C0
C0
C0
C0
C0
C0
C0
ENDCHAR
STARTCHAR uni0394
ENCODING 916
SWIDTH 833 0
DWIDTH 10 0
BBX 10 12 0 0
BITMAP
0C00
0C00
0C00
0C00
3300
3300
3300
3300
C0C0
C0C0
FFC0
FFC0
ENDCHAR
STARTCHAR Epsilon
ENCODING 917
SWIDTH 833 0
DWIDTH 10 0
BBX 8 14 0 0
BITMAP
FF
FF
C0
C0
C0
C0
FC
FC
C0
C0
C0
C0
FF
FF
ENDCHAR
STARTCHAR Zeta
ENCODING 918
SWIDTH 833 0
DWIDTH 10 0
BBX 8 14 0 0
BITMAP
FF
FF
03
03
03
03
0C
0C
30
30
C0
C0
FF
FF
ENDCHAR
STARTCHAR Eta
ENCODING 919
SWIDTH 833 0
DWIDTH 10 0
BBX 8 14 0 0
BITMAP
C3
C3
C3
C3
C3
C3
FF
FF
C3
C3
C3
C3
C3
C3
ENDCHAR
STARTCHAR Theta
ENCODING 920
SWIDTH 833 0
DWIDTH 10 0
BBX 8 14 0 0
BITMAP
3C
3C
C3
C3
C3
C3
FF
FF
C3
C3
C3
C3
3C
3C
ENDCHAR
STARTCHAR Iota
ENCODING 921
SWIDTH 833 0
DWIDTH 10 0
BBX 6 14 0 0
BITMAP
FC
FC
30
30
30
30
30
30
30
30
30
30
FC
FC
ENDCHAR
STARTCHAR Kappa
ENCODING 922
SWIDTH 833 0
DWIDTH 10 0
BBX 8 14 0 0
BITMAP
C3
C3
CC
CC
F0
F0
CC
CC
CC
CC
C3
C3
C3
C3
ENDCHAR
STARTCHAR Lambda
ENCODING 923
SWIDTH 833 0
DWIDTH 10 0
BBX 10 14 0 0
BITMAP
0C00
0C00
0C00
0C00
3300
3300
3300
3300
C0C0
C0C0
C0C0
C0C0
C0C0
C0C0
ENDCHAR
STARTCHAR Mu
ENCODING 924
SWIDTH 833 0
DWIDTH 10 0
BBX 8 14 0 0
BITMAP
C3
C3
FF
FF
C3
C3
C3
C3
C3
C3
C3
C3
C3
C3
ENDCHAR
STARTCHAR Nu
ENCODING 925
SWIDTH 833 0
DWIDTH 10 0
BBX 8 14 0 0
BITMAP
C3
C3
F3
F3
F3
F3
CF
CF
CF
CF
C3
C3
C3
C3
ENDCHAR
STARTCHAR Xi
ENCODING 926
SWIDTH 833 0
DWIDTH 10 0
BBX 8 14 0 0
BITMAP
FF
FF
C3
C3
00
00
3C
3C
00
00
C3
C3
FF
FF
ENDCHAR
STARTCHAR Omicron
ENCODING 927
SWIDTH 833 0
DWIDTH 10 0
BBX 8 14 0 0
BITMAP
3C
3C
C3
C3
C3
C3
C3
C3
C3
C3
C3
C3
3C
3C
ENDCHAR
STARTCHAR Pi
ENCODING 928
SWIDTH 833 0
DWIDTH 10 0
BBX 8 14 0 0
BITMAP
FF
FF
C3
C3
C3
C3
C3
C3
C3
C3
C3
C3
C3
C3
ENDCHAR
STARTCHAR Rho
ENCODING 929
SWIDTH 833 0
DWIDTH 10 0
BBX 8 14 0 0
BITMAP
FC
FC
C3
C3
C3
C3
FC
FC
C0
C0
C0
C0
C0
C0
ENDCHAR
STARTCHAR uni03A2
ENCODING 930
SWIDTH 833 0
DWIDTH 10 0
BBX 10 22 0 -4
BITMAP
FFC0
FFC0
FFC0
FFC0
FFC0
FFC0
FFC0
FFC0
FFC0
FFC0
FFC0
FFC0
FFC0
FFC0
FFC0
FFC0
FFC0
FFC0
FFC0
FFC0
FFC0
FFC0
ENDCHAR
STARTCHAR Sigma
ENCODING 931
SWIDTH 833 0
DWIDTH 10 0
BBX 8 14 0 0
BITMAP
FF
FF
C0
C0
30
30
0C
0C
30
30
C0
C0
FF
FF
ENDCHAR
STARTCHAR Tau
ENCODING 932
SWIDTH 833 0
DWIDTH 10 0
BBX 6 14 0 0
BITMAP
FC
FC
30
30
30
30
30
30
30
30
30
30
30
30
ENDCHAR
STARTCHAR Upsilon
ENCODING 933
SWIDTH 833 0
DWIDTH 10 0
BBX 8 14 0 0
BITMAP
C3
C3
C3
C3
C3
C3
3F
3F
03
03
C3
C3
3C
3C
ENDCHAR
STARTCHAR Phi
ENCODING 934
SWIDTH 833 0
DWIDTH 10 0
BBX 10 14 0 0
BITMAP
0C00
0C00
3F00
3F00
CCC0
CCC0
CCC0
CCC0
CCC0
CCC0
3F00
3F00
0C00
0C00
ENDCHAR
STARTCHAR Chi
ENCODING 935
SWIDTH 833 0
DWIDTH 10 0
BBX 8 14 0 0
BITMAP
C3
C3
C3
C3
3C
3C
C3
C3
C3
C3
C3
C3
C3
C3
ENDCHAR
STARTCHAR Psi
ENCODING 936
SWIDTH 833 0
DWIDTH 10 0
BBX 10 14 0 0
BITMAP
CCC0
CCC0
CCC0
CCC0
CCC0
CCC0
3F00
3F00
0C00
0C00
0C00
0C00
0C00
0C00
ENDCHAR
STARTCHAR uni03A9
ENCODING 937
SWIDTH 833 0
DWIDTH 10 0
BBX 10 14 0 0
BITMAP
3F00
3F00
C0C0
C0C0
C0C0
C0C0
C0C0
C0C0
F3C0
F3C0
3300
3300
F3C0
F3C0
ENDCHAR
STARTCHAR alpha
ENCODING 945
SWIDTH 833 0
DWIDTH 10 0
BBX 8 8 0 0
BITMAP
33
33
CC
CC
CC
CC
33
33
ENDCHAR
STARTCHAR beta
ENCODING 946
SWIDTH 833 0
DWIDTH 10 0
BBX 8 16 0 -4
BITMAP
F0
F0
CC
CC
CC
CC
F3
F3
C3
C3
FC
FC
C0
C0
C0
C0
ENDCHAR
STARTCHAR gamma
ENCODING 947
SWIDTH 833 0
DWIDTH 10 0
BBX 8 12 0 -4
BITMAP
C3
C3
3C
3C
0C
0C
33
33
33
33
0C
0C
ENDCHAR
STARTCHAR delta
ENCODING 948
SWIDTH 833 0
DWIDTH 10 0
BBX 8 12 0 0
BITMAP
FF
FF
C0
C0
3C
3C
C3
C3
C3
C3
3C
3C
ENDCHAR
STARTCHAR epsilon
ENCODING 949
SWIDTH 833 0
DWIDTH 10 0
BBX 8 12 0 0
BITMAP
3C
3C
C3
C3
30
30
C0
C0
C3
C3
3C
3C
ENDCHAR
STARTCHAR zeta
ENCODING 950
SWIDTH 833 0
DWIDTH 10 0
BBX 8 14 0 -4
BITMAP
FF
FF
0C
0C
30
30
C0
C0
C0
C0
3F
3F
03
03
ENDCHAR
STARTCHAR eta
ENCODING 951
SWIDTH 833 0
DWIDTH 10 0
BBX 8 14 0 -4
BITMAP
FC
FC
C3
C3
C3
C3
C3
C3
C3
C3
03
03
03
03
ENDCHAR
STARTCHAR theta
ENCODING 952
SWIDTH 833 0
DWIDTH 10 0
BBX 8 10 0 0
BITMAP
3C
3C
C3
C3
FF
FF
C3
C3
3C
3C
ENDCHAR
STARTCHAR iota
ENCODING 953
SWIDTH 833 0
DWIDTH 10 0
BBX 6 12 0 0
BITMAP
F0
F0
30
30
30
30
30
30
30
30
0C
0C
ENDCHAR
STARTCHAR kappa
ENCODING 954
SWIDTH 833 0
DWIDTH 10 0
BBX 6 10 0 0
BITMAP
CC
CC
F0
F0
CC
CC
CC
CC
CC
CC
ENDCHAR
STARTCHAR lambda
ENCODING 955
SWIDTH 833 0
DWIDTH 10 0
BBX 8 14 0 0
BITMAP
30
30
CC
CC
0C
0C
0C
0C
33
33
C3
C3
C3
C3
ENDCHAR
STARTCHAR uni03BC
ENCODING 956
SWIDTH 833 0
DWIDTH 10 0
BBX 10 14 0 -4
BITMAP
C300
C300
C300
C300
C300
C300
C300
C300
FF00
FF00
C0C0
C0C0
C000
C000
ENDCHAR
STARTCHAR nu
ENCODING 957
SWIDTH 833 0
DWIDTH 10 0
BBX 8 12 0 0
BITMAP
0C
0C
C3
C3
33
33
33
33
33
33
0C
0C
ENDCHAR
STARTCHAR xi
ENCODING 958
SWIDTH 833 0
DWIDTH 10 0
BBX 8 16 0 -4
BITMAP
FC
FC
C3
C3
30
30
C0
C0
C0
C0
3F
3F
03
03
3C
3C
ENDCHAR
STARTCHAR omicron
ENCODING 959
SWIDTH 833 0
DWIDTH 10 0
BBX 8 10 0 0
BITMAP
3C
3C
C3
C3
C3
C3
C3
C3
3C
3C
ENDCHAR
STARTCHAR pi
ENCODING 960
SWIDTH 833 0
DWIDTH 10 0
BBX 10 12 0 0
BITMAP
FFC0
FFC0
3300
3300
3300
3300
3300
3300
3300
3300
3300
3300
ENDCHAR
STARTCHAR rho
ENCODING 961
SWIDTH 833 0
DWIDTH 10 0
BBX 6 12 2 -4
BITMAP
30
30
CC
CC
CC
CC
F0
F0
C0
C0
C0
C0
ENDCHAR
STARTCHAR sigma1
ENCODING 962
SWIDTH 833 0
DWIDTH 10 0
BBX 8 14 0 -4
BITMAP
3C
3C
C3
C3
C3
C3
C0
C0
3C
3C
03
03
0C
0C
ENDCHAR
STARTCHAR sigma
ENCODING 963
SWIDTH 833 0
DWIDTH 10 0
BBX 8 12 0 0
BITMAP
03
03
3C
3C
C3
C3
C3
C3
C3
C3
3C
3C
ENDCHAR
STARTCHAR tau
ENCODING 964
SWIDTH 833 0
DWIDTH 10 0
BBX 8 10 0 0
BITMAP
FF
FF
30
30
30
30
33
33
0C
0C
ENDCHAR
STARTCHAR upsilon
ENCODING 965
SWIDTH 833 0
DWIDTH 10 0
BBX 8 10 0 0
BITMAP
C3
C3
C3
C3
C3
C3
C3
C3
3F
3F
ENDCHAR
STARTCHAR phi
ENCODING 966
SWIDTH 833 0
DWIDTH 10 0
BBX 8 10 0 -4
BITMAP
CF
CF
C3
C3
FF
FF
30
30
30
30
ENDCHAR
STARTCHAR chi
ENCODING 967
SWIDTH 833 0
DWIDTH 10 0
BBX 8 10 0 -2
BITMAP
C3
C3
3C
3C
30
30
CC
CC
03
03
ENDCHAR
STARTCHAR psi
ENCODING 968
SWIDTH 833 0
DWIDTH 10 0
BBX 10 12 0 -4
BITMAP
0C00
0C00
CCC0
CCC0
CCC0
CCC0
3F00
3F00
0C00
0C00
0C00
0C00
ENDCHAR
STARTCHAR omega
ENCODING 969
SWIDTH 833 0
DWIDTH 10 0
BBX 10 10 0 0
BITMAP
3300
3300
C0C0
C0C0
C0C0
C0C0
CCC0
CCC0
3300
3300
ENDCHAR
STARTCHAR uni0F3C
ENCODING 3900
SWIDTH 1833 0
DWIDTH 22 0
BBX 10 20 0 -4
BITMAP
0300
0300
0CC0
0CC0
0C00
0C00
0C00
0C00
0C00
0C00
0C00
0C00
0C00
0C00
0C00
0C00
3000
3000
C000
C000
ENDCHAR
STARTCHAR uni0F3D
ENCODING 3901
SWIDTH 1833 0
DWIDTH 22 0
BBX 10 20 0 -4
BITMAP
3000
3000
CC00
CC00
0C00
0C00
0C00
0C00
0C00
0C00
0C00
0C00
0C00
0C00
0C00
0C00
0300
0300
00C0
00C0
ENDCHAR
STARTCHAR uni1E9E
ENCODING 7838
SWIDTH 833 0
DWIDTH 10 0
BBX 8 18 0 -4
BITMAP
3F
3F
C3
C3
C3
C3
CC
CC
C3
C3
C3
C3
FF
FF
C0
C0
C0
C0
ENDCHAR
STARTCHAR uni2010
ENCODING 8208
SWIDTH 833 0
DWIDTH 10 0
BBX 6 2 0 4
BITMAP
FC
FC
ENDCHAR
STARTCHAR uni2011
ENCODING 8209
SWIDTH 833 0
DWIDTH 10 0
BBX 6 2 0 4
BITMAP
FC
FC
ENDCHAR
STARTCHAR figuredash
ENCODING 8210
SWIDTH 833 0
DWIDTH 10 0
BBX 8 2 0 4
BITMAP
FF
FF
ENDCHAR
STARTCHAR endash
ENCODING 8211
SWIDTH 833 0
DWIDTH 10 0
BBX 8 2 0 4
BITMAP
FF
FF
ENDCHAR
STARTCHAR emdash
ENCODING 8212
SWIDTH 833 0
DWIDTH 10 0
BBX 10 2 0 4
BITMAP
FFC0
FFC0
ENDCHAR
STARTCHAR uni2015
ENCODING 8213
SWIDTH 833 0
DWIDTH 10 0
BBX 10 2 0 4
BITMAP
FFC0
FFC0
ENDCHAR
STARTCHAR uni2016
ENCODING 8214
SWIDTH 833 0
DWIDTH 10 0
BBX 6 14 2 0
BITMAP
CC
CC
CC
CC
CC
CC
CC
CC
CC
CC
CC
CC
CC
CC
ENDCHAR
STARTCHAR underscoredbl
ENCODING 8215
SWIDTH 833 0
DWIDTH 10 0
BBX 8 6 0 -2
BITMAP
FF
FF
00
00
FF
FF
ENDCHAR
STARTCHAR quoteleft
ENCODING 8216
SWIDTH 833 0
DWIDTH 10 0
BBX 4 6 2 8
BITMAP
C0
C0
C0
C0
30
30
ENDCHAR
STARTCHAR quoteright
ENCODING 8217
SWIDTH 833 0
DWIDTH 10 0
BBX 4 6 2 8
BITMAP
30
30
30
30
C0
C0
ENDCHAR
STARTCHAR quotesinglbase
ENCODING 8218
SWIDTH 833 0
DWIDTH 10 0
BBX 4 6 4 -4
BITMAP
30
30
30
30
C0
C0
ENDCHAR
STARTCHAR quotereversed
ENCODING 8219
SWIDTH 833 0
DWIDTH 10 0
BBX 4 6 2 8
BITMAP
C0
C0
C0
C0
30
30
ENDCHAR
STARTCHAR quotedblleft
ENCODING 8220
SWIDTH 833 0
DWIDTH 10 0
BBX 8 6 0 8
BITMAP
CC
CC
CC
CC
33
33
ENDCHAR
STARTCHAR quotedblright
ENCODING 8221
SWIDTH 833 0
DWIDTH 10 0
BBX 8 6 0 8
BITMAP
33
33
33
33
CC
CC
ENDCHAR
STARTCHAR quotedblbase
ENCODING 8222
SWIDTH 833 0
DWIDTH 10 0
BBX 8 6 0 0
BITMAP
33
33
33
33
CC
CC
ENDCHAR
STARTCHAR uni201F
ENCODING 8223
SWIDTH 833 0
DWIDTH 10 0
BBX 8 6 0 8
BITMAP
33
33
CC
CC
CC
CC
ENDCHAR
STARTCHAR dagger
ENCODING 8224
SWIDTH 833 0
DWIDTH 10 0
BBX 6 12 0 0
BITMAP
30
30
30
30
FC
FC
30
30
30
30
30
30
ENDCHAR
STARTCHAR daggerdbl
ENCODING 8225
SWIDTH 833 0
DWIDTH 10 0
BBX 6 14 0 0
BITMAP
30
30
30
30
FC
FC
30
30
FC
FC
30
30
30
30
ENDCHAR
STARTCHAR bullet
ENCODING 8226
SWIDTH 833 0
DWIDTH 10 0
BBX 6 6 2 2
BITMAP
30
30
FC
FC
30
30
ENDCHAR
STARTCHAR uni2023
ENCODING 8227
SWIDTH 833 0
DWIDTH 10 0
BBX 4 6 0 2
BITMAP
C0
C0
F0
F0
C0
C0
ENDCHAR
STARTCHAR onedotenleader
ENCODING 8228
SWIDTH 833 0
DWIDTH 10 0
BBX 2 2 4 0
BITMAP
C0
C0
ENDCHAR
STARTCHAR twodotenleader
ENCODING 8229
SWIDTH 833 0
DWIDTH 10 0
BBX 6 2 2 0
BITMAP
CC
CC
ENDCHAR
STARTCHAR ellipsis
ENCODING 8230
SWIDTH 833 0
DWIDTH 10 0
BBX 10 2 0 0
BITMAP
CCC0
CCC0
ENDCHAR
STARTCHAR uni2027
ENCODING 8231
SWIDTH 833 0
DWIDTH 10 0
BBX 2 2 4 4
BITMAP
C0
C0
ENDCHAR
STARTCHAR minute
ENCODING 8242
SWIDTH 833 0
DWIDTH 10 0
BBX 4 4 2 10
BITMAP
30
30
C0
C0
ENDCHAR
STARTCHAR second
ENCODING 8243
SWIDTH 833 0
DWIDTH 10 0
BBX 8 4 2 10
BITMAP
33
33
CC
CC
ENDCHAR
STARTCHAR uni2034
ENCODING 8244
SWIDTH 833 0
DWIDTH 10 0
BBX 10 4 0 10
BITMAP
3300
3300
CCC0
CCC0
ENDCHAR
STARTCHAR uni2035
ENCODING 8245
SWIDTH 833 0
DWIDTH 10 0
BBX 4 4 2 10
BITMAP
C0
C0
30
30
ENDCHAR
STARTCHAR uni2036
ENCODING 8246
SWIDTH 833 0
DWIDTH 10 0
BBX 8 4 2 10
BITMAP
CC
CC
33
33
ENDCHAR
STARTCHAR uni2037
ENCODING 8247
SWIDTH 833 0
DWIDTH 10 0
BBX 10 4 0 10
BITMAP
CCC0
CCC0
3300
3300
ENDCHAR
STARTCHAR uni2038
ENCODING 8248
SWIDTH 833 0
DWIDTH 10 0
BBX 6 4 0 0
BITMAP
30
30
CC
CC
ENDCHAR
STARTCHAR guilsinglleft
ENCODING 8249
SWIDTH 833 0
DWIDTH 10 0
BBX 8 14 0 -2
BITMAP
C0
C0
30
30
0C
0C
03
03
0C
0C
30
30
C0
C0
ENDCHAR
STARTCHAR guilsinglright
ENCODING 8250
SWIDTH 833 0
DWIDTH 10 0
BBX 4 6 2 6
BITMAP
F0
F0
C0
C0
30
30
ENDCHAR
STARTCHAR uni203B
ENCODING 8251
SWIDTH 1833 0
DWIDTH 22 0
BBX 6 6 2 2
BITMAP
CC
CC
30
30
CC
CC
ENDCHAR
STARTCHAR exclamdbl
ENCODING 8252
SWIDTH 833 0
DWIDTH 10 0
BBX 6 14 0 0
BITMAP
CC
CC
CC
CC
CC
CC
CC
CC
CC
CC
00
00
CC
CC
ENDCHAR
STARTCHAR uni203E
ENCODING 8254
SWIDTH 833 0
DWIDTH 10 0
BBX 8 2 0 12
BITMAP
FF
FF
ENDCHAR
STARTCHAR uni203F
ENCODING 8255
SWIDTH 833 0
DWIDTH 10 0
BBX 8 4 0 -2
BITMAP
C3
C3
3C
3C
ENDCHAR
STARTCHAR uni2040
ENCODING 8256
SWIDTH 833 0
DWIDTH 10 0
BBX 8 4 0 10
BITMAP
3C
3C
C3
C3
ENDCHAR
STARTCHAR uni2041
ENCODING 8257
SWIDTH 833 0
DWIDTH 10 0
BBX 8 8 0 0
BITMAP
03
03
0C
0C
30
30
CC
CC
ENDCHAR
STARTCHAR uni2042
ENCODING 8258
SWIDTH 833 0
DWIDTH 10 0
BBX 6 6 0 4
BITMAP
30
30
00
00
CC
CC
ENDCHAR
STARTCHAR uni204F
ENCODING 8271
SWIDTH 833 0
DWIDTH 10 0
BBX 4 8 2 -2
BITMAP
C0
C0
00
00
C0
C0
30
30
ENDCHAR
STARTCHAR uni2050
ENCODING 8272
SWIDTH 833 0
DWIDTH 10 0
BBX 8 12 0 0
BITMAP
3C
3C
C3
C3
00
00
00
00
C3
C3
3C
3C
ENDCHAR
STARTCHAR uni2051
ENCODING 8273
SWIDTH 833 0
DWIDTH 10 0
BBX 6 14 0 0
BITMAP
CC
CC
30
30
CC
CC
00
00
CC
CC
30
30
CC
CC
ENDCHAR
STARTCHAR uni205C
ENCODING 8284
SWIDTH 1833 0
DWIDTH 22 0
BBX 10 10 0 0
BITMAP
CCC0
CCC0
0C00
0C00
FFC0
FFC0
0C00
0C00
CCC0
CCC0
ENDCHAR
STARTCHAR uni20A8
ENCODING 8360
SWIDTH 1833 0
DWIDTH 22 0
BBX 10 16 0 0
BITMAP
FFC0
FFC0
0300
0300
FFC0
FFC0
0300
0300
FC00
FC00
3000
3000
0C00
0C00
0300
0300
ENDCHAR
STARTCHAR uni20AA
ENCODING 8362
SWIDTH 1833 0
DWIDTH 22 0
BBX 10 14 0 0
BITMAP
FCC0
FCC0
CCC0
CCC0
CCC0
CCC0
C0C0
C0C0
CCC0
CCC0
CCC0
CCC0
CFC0
CFC0
ENDCHAR
STARTCHAR Euro
ENCODING 8364
SWIDTH 833 0
DWIDTH 10 0
BBX 8 12 0 0
BITMAP
3F
3F
C0
C0
FC
FC
FC
FC
C0
C0
3F
3F
ENDCHAR
STARTCHAR trademark
ENCODING 8482
SWIDTH 833 0
DWIDTH 10 0
BBX 6 16 2 2
BITMAP
FC
FC
30
30
30
30
30
30
CC
CC
FC
FC
CC
CC
CC
CC
ENDCHAR
STARTCHAR arrowleft
ENCODING 8592
SWIDTH 833 0
DWIDTH 10 0
BBX 10 10 0 0
BITMAP
0C00
0C00
3000
3000
FFC0
FFC0
3000
3000
0C00
0C00
ENDCHAR
STARTCHAR arrowup
ENCODING 8593
SWIDTH 833 0
DWIDTH 10 0
BBX 10 10 0 0
BITMAP
0C00
0C00
3F00
3F00
CCC0
CCC0
0C00
0C00
0C00
0C00
ENDCHAR
STARTCHAR arrowright
ENCODING 8594
SWIDTH 833 0
DWIDTH 10 0
BBX 10 10 0 0
BITMAP
0C00
0C00
0300
0300
FFC0
FFC0
0300
0300
0C00
0C00
ENDCHAR
STARTCHAR arrowdown
ENCODING 8595
SWIDTH 833 0
DWIDTH 10 0
BBX 10 10 0 0
BITMAP
0C00
0C00
0C00
0C00
CCC0
CCC0
3F00
3F00
0C00
0C00
ENDCHAR
STARTCHAR arrowboth
ENCODING 8596
SWIDTH 833 0
DWIDTH 10 0
BBX 10 6 0 2
BITMAP
3300
3300
FFC0
FFC0
3300
3300
ENDCHAR
STARTCHAR arrowupdn
ENCODING 8597
SWIDTH 833 0
DWIDTH 10 0
BBX 6 12 0 -2
BITMAP
30
30
FC
FC
30
30
30
30
FC
FC
30
30
ENDCHAR
STARTCHAR uni2196
ENCODING 8598
SWIDTH 833 0
DWIDTH 10 0
BBX 8 8 0 0
BITMAP
F0
F0
F0
F0
0C
0C
03
03
ENDCHAR
STARTCHAR uni2197
ENCODING 8599
SWIDTH 833 0
DWIDTH 10 0
BBX 8 8 0 0
BITMAP
0F
0F
0F
0F
30
30
C0
C0
ENDCHAR
STARTCHAR uni2198
ENCODING 8600
SWIDTH 833 0
DWIDTH 10 0
BBX 8 8 0 0
BITMAP
C0
C0
30
30
0F
0F
0F
0F
ENDCHAR
STARTCHAR uni2199
ENCODING 8601
SWIDTH 833 0
DWIDTH 10 0
BBX 8 8 0 0
BITMAP
03
03
0C
0C
F0
F0
F0
F0
ENDCHAR
STARTCHAR uni21A4
ENCODING 8612
SWIDTH 1833 0
DWIDTH 22 0
BBX 10 10 0 2
BITMAP
0CC0
0CC0
30C0
30C0
FFC0
FFC0
30C0
30C0
0CC0
0CC0
ENDCHAR
STARTCHAR uni21A5
ENCODING 8613
SWIDTH 1833 0
DWIDTH 22 0
BBX 10 10 0 2
BITMAP
0C00
0C00
3F00
3F00
CCC0
CCC0
0C00
0C00
FFC0
FFC0
ENDCHAR
STARTCHAR uni21A6
ENCODING 8614
SWIDTH 1833 0
DWIDTH 22 0
BBX 10 10 0 2
BITMAP
CC00
CC00
C300
C300
FFC0
FFC0
C300
C300
CC00
CC00
ENDCHAR
STARTCHAR uni21A7
ENCODING 8615
SWIDTH 1833 0
DWIDTH 22 0
BBX 10 10 0 2
BITMAP
FFC0
FFC0
0C00
0C00
CCC0
CCC0
3F00
3F00
0C00
0C00
ENDCHAR
STARTCHAR uni21A9
ENCODING 8617
SWIDTH 1833 0
DWIDTH 22 0
BBX 10 6 0 2
BITMAP
30C0
30C0
FFC0
FFC0
3000
3000
ENDCHAR
STARTCHAR uni21AA
ENCODING 8618
SWIDTH 1833 0
DWIDTH 22 0
BBX 10 6 0 2
BITMAP
C300
C300
FFC0
FFC0
0300
0300
ENDCHAR
STARTCHAR uni21B0
ENCODING 8624
SWIDTH 1833 0
DWIDTH 22 0
BBX 8 14 0 0
BITMAP
30
30
FF
FF
33
33
03
03
03
03
03
03
03
03
ENDCHAR
STARTCHAR uni21B1
ENCODING 8625
SWIDTH 1833 0
DWIDTH 22 0
BBX 8 14 0 0
BITMAP
0C
0C
FF
FF
CC
CC
C0
C0
C0
C0
C0
C0
C0
C0
ENDCHAR
STARTCHAR uni21B2
ENCODING 8626
SWIDTH 1833 0
DWIDTH 22 0
BBX 8 14 0 0
BITMAP
03
03
03
03
03
03
03
03
33
33
FF
FF
30
30
ENDCHAR
STARTCHAR uni21B3
ENCODING 8627
SWIDTH 1833 0
DWIDTH 22 0
BBX 8 14 0 0
BITMAP
C0
C0
C0
C0
C0
C0
C0
C0
CC
CC
FF
FF
0C
0C
ENDCHAR
STARTCHAR uni21B4
ENCODING 8628
SWIDTH 1833 0
DWIDTH 22 0
BBX 8 12 0 0
BITMAP
FC
FC
0C
0C
0C
0C
0C
0C
3F
3F
0C
0C
ENDCHAR
STARTCHAR carriagereturn
ENCODING 8629
SWIDTH 1833 0
DWIDTH 22 0
BBX 10 10 0 0
BITMAP
00C0
00C0
00C0
00C0
30C0
30C0
FFC0
FFC0
3000
3000
ENDCHAR
STARTCHAR uni21B6
ENCODING 8630
SWIDTH 1833 0
DWIDTH 22 0
BBX 10 10 0 0
BITMAP
0F00
0F00
30C0
30C0
30C0
30C0
FCC0
FCC0
3000
3000
ENDCHAR
STARTCHAR uni21B7
ENCODING 8631
SWIDTH 1833 0
DWIDTH 22 0
BBX 10 10 0 0
BITMAP
3C00
3C00
C300
C300
C300
C300
CFC0
CFC0
C300
C300
ENDCHAR
STARTCHAR uni21B9
ENCODING 8633
SWIDTH 1833 0
DWIDTH 22 0
BBX 2 2 6 0
BITMAP
00
00
ENDCHAR
STARTCHAR uni21BA
ENCODING 8634
SWIDTH 1833 0
DWIDTH 22 0
BBX 10 10 0 0
BITMAP
0300
0300
C3C0
C3C0
C300
C300
C300
C300
3C00
3C00
ENDCHAR
STARTCHAR uni21BB
ENCODING 8635
SWIDTH 1833 0
DWIDTH 22 0
BBX 10 10 0 0
BITMAP
3000
3000
F0C0
F0C0
30C0
30C0
30C0
30C0
0F00
0F00
ENDCHAR
STARTCHAR uni21BC
ENCODING 8636
SWIDTH 1833 0
DWIDTH 22 0
BBX 10 4 0 4
BITMAP
3000
3000
FFC0
FFC0
ENDCHAR
STARTCHAR uni21BD
ENCODING 8637
SWIDTH 1833 0
DWIDTH 22 0
BBX 10 4 0 0
BITMAP
FFC0
FFC0
3000
3000
ENDCHAR
STARTCHAR uni21BE
ENCODING 8638
SWIDTH 1833 0
DWIDTH 22 0
BBX 4 10 4 0
BITMAP
C0
C0
F0
F0
C0
C0
C0
C0
C0
C0
ENDCHAR
STARTCHAR uni21BF
ENCODING 8639
SWIDTH 1833 0
DWIDTH 22 0
BBX 4 10 0 0
BITMAP
30
30
F0
F0
30
30
30
30
30
30
ENDCHAR
STARTCHAR uni21C0
ENCODING 8640
SWIDTH 1833 0
DWIDTH 22 0
BBX 10 4 0 4
BITMAP
0300
0300
FFC0
FFC0
ENDCHAR
STARTCHAR uni21C1
ENCODING 8641
SWIDTH 1833 0
DWIDTH 22 0
BBX 10 4 0 0
BITMAP
FFC0
FFC0
0300
0300
ENDCHAR
STARTCHAR uni21C2
ENCODING 8642
SWIDTH 1833 0
DWIDTH 22 0
BBX 4 10 4 0
BITMAP
C0
C0
C0
C0
C0
C0
F0
F0
C0
C0
ENDCHAR
STARTCHAR uni21C3
ENCODING 8643
SWIDTH 1833 0
DWIDTH 22 0
BBX 4 10 0 0
BITMAP
30
30
30
30
30
30
F0
F0
30
30
ENDCHAR
STARTCHAR uni21C4
ENCODING 8644
SWIDTH 1833 0
DWIDTH 22 0
BBX 10 10 0 0
BITMAP
0300
0300
FFC0
FFC0
3300
3300
FFC0
FFC0
3000
3000
ENDCHAR
STARTCHAR uni21C6
ENCODING 8646
SWIDTH 1833 0
DWIDTH 22 0
BBX 10 10 0 0
BITMAP
3000
3000
FFC0
FFC0
3300
3300
FFC0
FFC0
0300
0300
ENDCHAR
STARTCHAR uni21C7
ENCODING 8647
SWIDTH 1833 0
DWIDTH 22 0
BBX 10 10 0 0
BITMAP
3000
3000
FFC0
FFC0
3000
3000
FFC0
FFC0
3000
3000
ENDCHAR
STARTCHAR uni21C8
ENCODING 8648
SWIDTH 1833 0
DWIDTH 22 0
BBX 10 10 0 0
BITMAP
3300
3300
FFC0
FFC0
3300
3300
3300
3300
3300
3300
ENDCHAR
STARTCHAR uni21C9
ENCODING 8649
SWIDTH 1833 0
DWIDTH 22 0
BBX 10 10 0 0
BITMAP
0300
0300
FFC0
FFC0
0300
0300
FFC0
FFC0
0300
0300
ENDCHAR
STARTCHAR uni21CA
ENCODING 8650
SWIDTH 1833 0
DWIDTH 22 0
BBX 10 10 0 0
BITMAP
3300
3300
3300
3300
3300
3300
FFC0
FFC0
3300
3300
ENDCHAR
STARTCHAR uni21CB
ENCODING 8651
SWIDTH 1833 0
DWIDTH 22 0
BBX 10 10 0 0
BITMAP
3000
3000
FFC0
FFC0
0000
0000
FFC0
FFC0
0300
0300
ENDCHAR
STARTCHAR arrowdblleft
ENCODING 8656
SWIDTH 833 0
DWIDTH 10 0
BBX 10 10 0 0
BITMAP
0C00
0C00
3FC0
3FC0
C000
C000
3FC0
3FC0
0C00
0C00
ENDCHAR
STARTCHAR arrowdblup
ENCODING 8657
SWIDTH 833 0
DWIDTH 10 0
BBX 10 12 0 0
BITMAP
0C00
0C00
3300
3300
F3C0
F3C0
3300
3300
3300
3300
3300
3300
ENDCHAR
STARTCHAR arrowdblright
ENCODING 8658
SWIDTH 833 0
DWIDTH 10 0
BBX 10 10 0 0
BITMAP
0C00
0C00
FF00
FF00
00C0
00C0
FF00
FF00
0C00
0C00
ENDCHAR
STARTCHAR arrowdbldown
ENCODING 8659
SWIDTH 833 0
DWIDTH 10 0
BBX 10 12 0 -2
BITMAP
3300
3300
3300
3300
3300
3300
F3C0
F3C0
3300
3300
0C00
0C00
ENDCHAR
STARTCHAR universal
ENCODING 8704
SWIDTH 833 0
DWIDTH 10 0
BBX 8 14 0 -2
BITMAP
C3
C3
C3
C3
C3
C3
FF
FF
C3
C3
C3
C3
3C
3C
ENDCHAR
STARTCHAR uni2201
ENCODING 8705
SWIDTH 833 0
DWIDTH 10 0
BBX 8 14 0 0
BITMAP
3C
3C
C3
C3
CC
CC
C0
C0
C3
C3
C3
C3
3C
3C
ENDCHAR
STARTCHAR partialdiff
ENCODING 8706
SWIDTH 833 0
DWIDTH 10 0
BBX 8 14 0 0
BITMAP
3C
3C
C3
C3
03
03
3F
3F
C3
C3
C3
C3
3C
3C
ENDCHAR
STARTCHAR existential
ENCODING 8707
SWIDTH 833 0
DWIDTH 10 0
BBX 8 14 0 0
BITMAP
FF
FF
03
03
03
03
3F
3F
03
03
03
03
FF
FF
ENDCHAR
STARTCHAR uni2204
ENCODING 8708
SWIDTH 833 0
DWIDTH 10 0
BBX 8 16 0 0
BITMAP
03
03
FF
FF
0F
0F
33
33
3F
3F
C3
C3
C3
C3
FF
FF
ENDCHAR
STARTCHAR emptyset
ENCODING 8709
SWIDTH 833 0
DWIDTH 10 0
BBX 10 16 0 -2
BITMAP
0C00
0C00
0C00
0C00
3F00
3F00
CCC0
CCC0
CCC0
CCC0
3F00
3F00
0C00
0C00
0C00
0C00
ENDCHAR
STARTCHAR Delta
ENCODING 8710
SWIDTH 833 0
DWIDTH 10 0
BBX 10 8 0 2
BITMAP
0C00
0C00
3300
3300
C0C0
C0C0
FFC0
FFC0
ENDCHAR
STARTCHAR gradient
ENCODING 8711
SWIDTH 833 0
DWIDTH 10 0
BBX 10 8 0 4
BITMAP
FFC0
FFC0
C0C0
C0C0
3300
3300
0C00
0C00
ENDCHAR
STARTCHAR element
ENCODING 8712
SWIDTH 833 0
DWIDTH 10 0
BBX 10 10 0 0
BITMAP
3FC0
3FC0
C000
C000
FF00
FF00
C000
C000
3FC0
3FC0
ENDCHAR
STARTCHAR notelement
ENCODING 8713
SWIDTH 833 0
DWIDTH 10 0
BBX 10 12 0 0
BITMAP
00C0
00C0
3F00
3F00
CC00
CC00
FC00
FC00
C000
C000
3F00
3F00
ENDCHAR
STARTCHAR uni220A
ENCODING 8714
SWIDTH 833 0
DWIDTH 10 0
BBX 8 10 0 0
BITMAP
3F
3F
C0
C0
FC
FC
C0
C0
3F
3F
ENDCHAR
STARTCHAR suchthat
ENCODING 8715
SWIDTH 833 0
DWIDTH 10 0
BBX 8 10 0 0
BITMAP
FC
FC
03
03
3F
3F
03
03
FC
FC
ENDCHAR
STARTCHAR uni220C
ENCODING 8716
SWIDTH 833 0
DWIDTH 10 0
BBX 10 12 0 0
BITMAP
00C0
00C0
FF00
FF00
0F00
0F00
3F00
3F00
C300
C300
FC00
FC00
ENDCHAR
STARTCHAR uni220D
ENCODING 8717
SWIDTH 833 0
DWIDTH 10 0
BBX 8 10 0 0
BITMAP
FC
FC
03
03
3F
3F
03
03
FC
FC
ENDCHAR
STARTCHAR uni220E
ENCODING 8718
SWIDTH 833 0
DWIDTH 10 0
BBX 6 6 2 2
BITMAP
FC
FC
FC
FC
FC
FC
ENDCHAR
STARTCHAR product
ENCODING 8719
SWIDTH 833 0
DWIDTH 10 0
BBX 8 12 0 0
BITMAP
FF
FF
C3
C3
C3
C3
C3
C3
C3
C3
C3
C3
ENDCHAR
STARTCHAR uni2210
ENCODING 8720
SWIDTH 833 0
DWIDTH 10 0
BBX 8 12 0 0
BITMAP
C3
C3
C3
C3
C3
C3
C3
C3
C3
C3
FF
FF
ENDCHAR
STARTCHAR summation
ENCODING 8721
SWIDTH 833 0
DWIDTH 10 0
BBX 8 18 0 -2
BITMAP
FF
FF
C3
C3
C0
C0
30
30
0C
0C
30
30
C0
C0
C3
C3
FF
FF
ENDCHAR
STARTCHAR minus
ENCODING 8722
SWIDTH 833 0
DWIDTH 10 0
BBX 8 2 0 4
BITMAP
FF
FF
ENDCHAR
STARTCHAR uni2213
ENCODING 8723
SWIDTH 833 0
DWIDTH 10 0
BBX 10 12 0 0
BITMAP
FFC0
FFC0
0C00
0C00
0C00
0C00
FFC0
FFC0
0C00
0C00
0C00
0C00
ENDCHAR
STARTCHAR uni2214
ENCODING 8724
SWIDTH 1833 0
DWIDTH 22 0
BBX 10 12 0 0
BITMAP
0C00
0C00
0000
0000
0C00
0C00
FFC0
FFC0
0C00
0C00
0C00
0C00
ENDCHAR
STARTCHAR asteriskmath
ENCODING 8727
SWIDTH 1833 0
DWIDTH 22 0
BBX 10 10 0 0
BITMAP
3300
3300
0C00
0C00
FFC0
FFC0
0C00
0C00
3300
3300
ENDCHAR
STARTCHAR uni2218
ENCODING 8728
SWIDTH 1833 0
DWIDTH 22 0
BBX 6 6 2 2
BITMAP
30
30
CC
CC
30
30
ENDCHAR
STARTCHAR uni2219
ENCODING 8729
SWIDTH 1833 0
DWIDTH 22 0
BBX 6 6 2 2
BITMAP
30
30
FC
FC
30
30
ENDCHAR
STARTCHAR radical
ENCODING 8730
SWIDTH 1833 0
DWIDTH 22 0
BBX 10 16 0 0
BITMAP
00C0
00C0
00C0
00C0
0300
0300
0300
0300
0C00
0C00
CC00
CC00
3000
3000
3000
3000
ENDCHAR
STARTCHAR proportional
ENCODING 8733
SWIDTH 1833 0
DWIDTH 22 0
BBX 8 8 0 0
BITMAP
33
33
CC
CC
CC
CC
33
33
ENDCHAR
STARTCHAR infinity
ENCODING 8734
SWIDTH 1833 0
DWIDTH 22 0
BBX 10 10 0 0
BITMAP
3300
3300
CCC0
CCC0
CCC0
CCC0
CCC0
CCC0
3300
3300
ENDCHAR
STARTCHAR logicaland
ENCODING 8743
SWIDTH 1833 0
DWIDTH 22 0
BBX 10 12 0 0
BITMAP
0C00
0C00
0C00
0C00
3300
3300
3300
3300
C0C0
C0C0
C0C0
C0C0
ENDCHAR
STARTCHAR logicalor
ENCODING 8744
SWIDTH 1833 0
DWIDTH 22 0
BBX 10 12 0 0
BITMAP
C0C0
C0C0
C0C0
C0C0
3300
3300
3300
3300
0C00
0C00
0C00
0C00
ENDCHAR
STARTCHAR intersection
ENCODING 8745
SWIDTH 1833 0
DWIDTH 22 0
BBX 8 10 0 0
BITMAP
3C
3C
C3
C3
C3
C3
C3
C3
C3
C3
ENDCHAR
STARTCHAR union
ENCODING 8746
SWIDTH 1833 0
DWIDTH 22 0
BBX 8 10 0 0
BITMAP
C3
C3
C3
C3
C3
C3
C3
C3
3C
3C
ENDCHAR
STARTCHAR integral
ENCODING 8747
SWIDTH 1833 0
DWIDTH 22 0
BBX 10 20 0 -4
BITMAP
0300
0300
0CC0
0CC0
0C00
0C00
0C00
0C00
0C00
0C00
0C00
0C00
0C00
0C00
0C00
0C00
CC00
CC00
3000
3000
ENDCHAR
STARTCHAR therefore
ENCODING 8756
SWIDTH 1833 0
DWIDTH 22 0
BBX 10 10 0 0
BITMAP
0C00
0C00
0000
0000
0000
0000
0000
0000
C0C0
C0C0
ENDCHAR
STARTCHAR uni2235
ENCODING 8757
SWIDTH 1833 0
DWIDTH 22 0
BBX 10 12 0 0
BITMAP
C0C0
C0C0
0000
0000
0000
0000
0000
0000
0000
0000
0C00
0C00
ENDCHAR
STARTCHAR uni2236
ENCODING 8758
SWIDTH 1833 0
DWIDTH 22 0
BBX 2 10 4 0
BITMAP
C0
C0
00
00
00
00
00
00
C0
C0
ENDCHAR
STARTCHAR uni2237
ENCODING 8759
SWIDTH 1833 0
DWIDTH 22 0
BBX 8 10 2 0
BITMAP
C3
C3
00
00
00
00
00
00
C3
C3
ENDCHAR
STARTCHAR uni2243
ENCODING 8771
SWIDTH 1833 0
DWIDTH 22 0
BBX 10 10 0 4
BITMAP
3000
3000
CCC0
CCC0
0300
0300
0000
0000
FFC0
FFC0
ENDCHAR
STARTCHAR approxequal
ENCODING 8776
SWIDTH 1833 0
DWIDTH 22 0
BBX 10 12 0 0
BITMAP
3000
3000
CCC0
CCC0
0300
0300
3000
3000
CCC0
CCC0
0300
0300
ENDCHAR
STARTCHAR uni2254
ENCODING 8788
SWIDTH 1833 0
DWIDTH 22 0
BBX 10 6 0 2
BITMAP
CFC0
CFC0
0000
0000
CFC0
CFC0
ENDCHAR
STARTCHAR uni2255
ENCODING 8789
SWIDTH 1833 0
DWIDTH 22 0
BBX 10 6 0 2
BITMAP
FCC0
FCC0
0000
0000
FCC0
FCC0
ENDCHAR
STARTCHAR notequal
ENCODING 8800
SWIDTH 833 0
DWIDTH 10 0
BBX 10 14 0 -2
BITMAP
0300
0300
0300
0300
FFC0
FFC0
0C00
0C00
FFC0
FFC0
3000
3000
3000
3000
ENDCHAR
STARTCHAR equivalence
ENCODING 8801
SWIDTH 1833 0
DWIDTH 22 0
BBX 10 10 0 0
BITMAP
FFC0
FFC0
0000
0000
FFC0
FFC0
0000
0000
FFC0
FFC0
ENDCHAR
STARTCHAR uni2262
ENCODING 8802
SWIDTH 1833 0
DWIDTH 22 0
BBX 10 14 0 -2
BITMAP
00C0
00C0
FFC0
FFC0
0300
0300
FFC0
FFC0
3000
3000
FFC0
FFC0
C000
C000
ENDCHAR
STARTCHAR lessequal
ENCODING 8804
SWIDTH 1833 0
DWIDTH 22 0
BBX 10 14 0 0
BITMAP
0300
0300
0C00
0C00
3000
3000
0C00
0C00
0300
0300
0000
0000
FFC0
FFC0
ENDCHAR
STARTCHAR greaterequal
ENCODING 8805
SWIDTH 1833 0
DWIDTH 22 0
BBX 10 14 0 0
BITMAP
3000
3000
0C00
0C00
0300
0300
0C00
0C00
3000
3000
0000
0000
FFC0
FFC0
ENDCHAR
STARTCHAR propersubset
ENCODING 8834
SWIDTH 1833 0
DWIDTH 22 0
BBX 8 8 0 2
BITMAP
3F
3F
C0
C0
C0
C0
3F
3F
ENDCHAR
STARTCHAR propersuperset
ENCODING 8835
SWIDTH 1833 0
DWIDTH 22 0
BBX 8 8 0 2
BITMAP
FC
FC
03
03
03
03
FC
FC
ENDCHAR
STARTCHAR notsubset
ENCODING 8836
SWIDTH 1833 0
DWIDTH 22 0
BBX 8 12 0 0
BITMAP
03
03
3F
3F
CC
CC
CC
CC
3F
3F
30
30
ENDCHAR
STARTCHAR uni2285
ENCODING 8837
SWIDTH 1833 0
DWIDTH 22 0
BBX 8 12 0 0
BITMAP
C0
C0
FC
FC
33
33
33
33
FC
FC
0C
0C
ENDCHAR
STARTCHAR reflexsubset
ENCODING 8838
SWIDTH 1833 0
DWIDTH 22 0
BBX 8 12 0 0
BITMAP
3F
3F
C0
C0
C0
C0
3F
3F
00
00
FF
FF
ENDCHAR
STARTCHAR reflexsuperset
ENCODING 8839
SWIDTH 1833 0
DWIDTH 22 0
BBX 8 12 0 0
BITMAP
FC
FC
03
03
03
03
FC
FC
00
00
FF
FF
ENDCHAR
STARTCHAR circleplus
ENCODING 8853
SWIDTH 1833 0
DWIDTH 22 0
BBX 10 10 0 0
BITMAP
3F00
3F00
CCC0
CCC0
FFC0
FFC0
CCC0
CCC0
3F00
3F00
ENDCHAR
STARTCHAR uni2296
ENCODING 8854
SWIDTH 1833 0
DWIDTH 22 0
BBX 10 10 0 0
BITMAP
3F00
3F00
C0C0
C0C0
FFC0
FFC0
C0C0
C0C0
3F00
3F00
ENDCHAR
STARTCHAR uni2299
ENCODING 8857
SWIDTH 1833 0
DWIDTH 22 0
BBX 10 10 0 0
BITMAP
3F00
3F00
C0C0
C0C0
CCC0
CCC0
C0C0
C0C0
3F00
3F00
ENDCHAR
STARTCHAR uni229E
ENCODING 8862
SWIDTH 833 0
DWIDTH 10 0
BBX 10 10 0 0
BITMAP
FFC0
FFC0
CCC0
CCC0
FFC0
FFC0
CCC0
CCC0
FFC0
FFC0
ENDCHAR
STARTCHAR uni229F
ENCODING 8863
SWIDTH 833 0
DWIDTH 10 0
BBX 10 10 0 0
BITMAP
FFC0
FFC0
C0C0
C0C0
FFC0
FFC0
C0C0
C0C0
FFC0
FFC0
ENDCHAR
STARTCHAR uni22A0
ENCODING 8864
SWIDTH 1833 0
DWIDTH 22 0
BBX 10 10 0 0
BITMAP
CCC0
CCC0
3300
3300
CCC0
CCC0
3300
3300
CCC0
CCC0
ENDCHAR
STARTCHAR uni22A1
ENCODING 8865
SWIDTH 1833 0
DWIDTH 22 0
BBX 10 10 0 0
BITMAP
FFC0
FFC0
C0C0
C0C0
CCC0
CCC0
C0C0
C0C0
FFC0
FFC0
ENDCHAR
STARTCHAR uni22A2
ENCODING 8866
SWIDTH 1833 0
DWIDTH 22 0
BBX 10 10 0 0
BITMAP
C000
C000
C000
C000
FFC0
FFC0
C000
C000
C000
C000
ENDCHAR
STARTCHAR uni22A3
ENCODING 8867
SWIDTH 1833 0
DWIDTH 22 0
BBX 10 10 0 0
BITMAP
00C0
00C0
00C0
00C0
FFC0
FFC0
00C0
00C0
00C0
00C0
ENDCHAR
STARTCHAR uni22A4
ENCODING 8868
SWIDTH 1833 0
DWIDTH 22 0
BBX 10 10 0 0
BITMAP
FFC0
FFC0
0C00
0C00
0C00
0C00
0C00
0C00
0C00
0C00
ENDCHAR
STARTCHAR perpendicular
ENCODING 8869
SWIDTH 1833 0
DWIDTH 22 0
BBX 10 10 0 0
BITMAP
0C00
0C00
0C00
0C00
0C00
0C00
0C00
0C00
FFC0
FFC0
ENDCHAR
STARTCHAR uni22A6
ENCODING 8870
SWIDTH 1833 0
DWIDTH 22 0
BBX 6 10 0 0
BITMAP
C0
C0
C0
C0
FC
FC
C0
C0
C0
C0
ENDCHAR
STARTCHAR uni22A7
ENCODING 8871
SWIDTH 1833 0
DWIDTH 22 0
BBX 6 10 0 0
BITMAP
C0
C0
FC
FC
C0
C0
FC
FC
C0
C0
ENDCHAR
STARTCHAR uni22A8
ENCODING 8872
SWIDTH 1833 0
DWIDTH 22 0
BBX 10 10 0 0
BITMAP
C000
C000
FFC0
FFC0
C000
C000
FFC0
FFC0
C000
C000
ENDCHAR
STARTCHAR uni22A9
ENCODING 8873
SWIDTH 1833 0
DWIDTH 22 0
BBX 10 10 0 0
BITMAP
CC00
CC00
CC00
CC00
CFC0
CFC0
CC00
CC00
CC00
CC00
ENDCHAR
STARTCHAR uni22AB
ENCODING 8875
SWIDTH 1833 0
DWIDTH 22 0
BBX 10 10 0 0
BITMAP
CC00
CC00
CFC0
CFC0
CC00
CC00
CFC0
CFC0
CC00
CC00
ENDCHAR
STARTCHAR uni22C4
ENCODING 8900
SWIDTH 1833 0
DWIDTH 22 0
BBX 6 6 0 2
BITMAP
30
30
CC
CC
30
30
ENDCHAR
STARTCHAR dotmath
ENCODING 8901
SWIDTH 1833 0
DWIDTH 22 0
BBX 2 2 2 4
BITMAP
C0
C0
ENDCHAR
STARTCHAR uni22C6
ENCODING 8902
SWIDTH 1833 0
DWIDTH 22 0
BBX 6 6 0 2
BITMAP
CC
CC
30
30
CC
CC
ENDCHAR
STARTCHAR uni2325
ENCODING 8997
SWIDTH 1833 0
DWIDTH 22 0
BBX 10 12 0 0
BITMAP
F3C0
F3C0
3000
3000
0C00
0C00
0C00
0C00
0300
0300
03C0
03C0
ENDCHAR
STARTCHAR uni239B
ENCODING 9115
SWIDTH 1833 0
DWIDTH 22 0
BBX 8 22 2 -4
BITMAP
03
03
0C
0C
30
30
30
30
C0
C0
C0
C0
C0
C0
C0
C0
C0
C0
C0
C0
C0
C0
ENDCHAR
STARTCHAR uni239C
ENCODING 9116
SWIDTH 1833 0
DWIDTH 22 0
BBX 2 22 2 -4
BITMAP
C0
C0
C0
C0
C0
C0
C0
C0
C0
C0
C0
C0
C0
C0
C0
C0
C0
C0
C0
C0
C0
C0
ENDCHAR
STARTCHAR uni239D
ENCODING 9117
SWIDTH 1833 0
DWIDTH 22 0
BBX 8 22 2 -4
BITMAP
C0
C0
C0
C0
C0
C0
C0
C0
C0
C0
C0
C0
C0
C0
30
30
30
30
0C
0C
03
03
ENDCHAR
STARTCHAR uni239E
ENCODING 9118
SWIDTH 1833 0
DWIDTH 22 0
BBX 8 22 0 -4
BITMAP
C0
C0
30
30
0C
0C
0C
0C
03
03
03
03
03
03
03
03
03
03
03
03
03
03
ENDCHAR
STARTCHAR uni239F
ENCODING 9119
SWIDTH 1833 0
DWIDTH 22 0
BBX 2 22 6 -4
BITMAP
C0
C0
C0
C0
C0
C0
C0
C0
C0
C0
C0
C0
C0
C0
C0
C0
C0
C0
C0
C0
C0
C0
ENDCHAR
STARTCHAR uni23A0
ENCODING 9120
SWIDTH 1833 0
DWIDTH 22 0
BBX 8 22 0 -4
BITMAP
03
03
03
03
03
03
03
03
03
03
03
03
03
03
0C
0C
0C
0C
30
30
C0
C0
ENDCHAR
STARTCHAR uni23A1
ENCODING 9121
SWIDTH 1833 0
DWIDTH 22 0
BBX 6 22 2 -4
BITMAP
FC
FC
C0
C0
C0
C0
C0
C0
C0
C0
C0
C0
C0
C0
C0
C0
C0
C0
C0
C0
C0
C0
ENDCHAR
STARTCHAR uni23A2
ENCODING 9122
SWIDTH 1833 0
DWIDTH 22 0
BBX 2 22 2 -4
BITMAP
C0
C0
C0
C0
C0
C0
C0
C0
C0
C0
C0
C0
C0
C0
C0
C0
C0
C0
C0
C0
C0
C0
ENDCHAR
STARTCHAR uni23A3
ENCODING 9123
SWIDTH 1833 0
DWIDTH 22 0
BBX 6 22 2 -4
BITMAP
C0
C0
C0
C0
C0
C0
C0
C0
C0
C0
C0
C0
C0
C0
C0
C0
C0
C0
C0
C0
FC
FC
ENDCHAR
STARTCHAR uni23A4
ENCODING 9124
SWIDTH 1833 0
DWIDTH 22 0
BBX 6 22 2 -4
BITMAP
FC
FC
0C
0C
0C
0C
0C
0C
0C
0C
0C
0C
0C
0C
0C
0C
0C
0C
0C
0C
0C
0C
ENDCHAR
STARTCHAR uni23A5
ENCODING 9125
SWIDTH 1833 0
DWIDTH 22 0
BBX 2 22 6 -4
BITMAP
C0
C0
C0
C0
C0
C0
C0
C0
C0
C0
C0
C0
C0
C0
C0
C0
C0
C0
C0
C0
C0
C0
ENDCHAR
STARTCHAR uni23A6
ENCODING 9126
SWIDTH 1833 0
DWIDTH 22 0
BBX 6 22 2 -4
BITMAP
0C
0C
0C
0C
0C
0C
0C
0C
0C
0C
0C
0C
0C
0C
0C
0C
0C
0C
0C
0C
FC
FC
ENDCHAR
STARTCHAR uni23A7
ENCODING 9127
SWIDTH 1833 0
DWIDTH 22 0
BBX 6 22 4 -4
BITMAP
3C
3C
C0
C0
C0
C0
C0
C0
C0
C0
C0
C0
C0
C0
C0
C0
C0
C0
C0
C0
C0
C0
ENDCHAR
STARTCHAR uni23A8
ENCODING 9128
SWIDTH 1833 0
DWIDTH 22 0
BBX 6 22 0 -4
BITMAP
0C
0C
0C
0C
0C
0C
0C
0C
F0
F0
0C
0C
0C
0C
0C
0C
0C
0C
0C
0C
0C
0C
ENDCHAR
STARTCHAR uni23A9
ENCODING 9129
SWIDTH 1833 0
DWIDTH 22 0
BBX 6 22 4 -4
BITMAP
C0
C0
C0
C0
C0
C0
C0
C0
C0
C0
C0
C0
C0
C0
C0
C0
C0
C0
C0
C0
3C
3C
ENDCHAR
STARTCHAR uni23AA
ENCODING 9130
SWIDTH 1833 0
DWIDTH 22 0
BBX 2 22 4 -4
BITMAP
C0
C0
C0
C0
C0
C0
C0
C0
C0
C0
C0
C0
C0
C0
C0
C0
C0
C0
C0
C0
C0
C0
ENDCHAR
STARTCHAR uni23AB
ENCODING 9131
SWIDTH 1833 0
DWIDTH 22 0
BBX 6 22 0 -4
BITMAP
F0
F0
0C
0C
0C
0C
0C
0C
0C
0C
0C
0C
0C
0C
0C
0C
0C
0C
0C
0C
0C
0C
ENDCHAR
STARTCHAR uni23AC
ENCODING 9132
SWIDTH 1833 0
DWIDTH 22 0
BBX 6 22 4 -4
BITMAP
C0
C0
C0
C0
C0
C0
C0
C0
3C
3C
C0
C0
C0
C0
C0
C0
C0
C0
C0
C0
C0
C0
ENDCHAR
STARTCHAR uni23AD
ENCODING 9133
SWIDTH 1833 0
DWIDTH 22 0
BBX 6 22 0 -4
BITMAP
0C
0C
0C
0C
0C
0C
0C
0C
0C
0C
0C
0C
0C
0C
0C
0C
0C
0C
0C
0C
F0
F0
ENDCHAR
STARTCHAR uni23AE
ENCODING 9134
SWIDTH 1833 0
DWIDTH 22 0
BBX 2 22 4 -4
BITMAP
C0
C0
C0
C0
C0
C0
C0
C0
C0
C0
C0
C0
C0
C0
C0
C0
C0
C0
C0
C0
C0
C0
ENDCHAR
STARTCHAR uni23BA
ENCODING 9146
SWIDTH 1833 0
DWIDTH 22 0
BBX 8 2 2 14
BITMAP
FF
FF
ENDCHAR
STARTCHAR uni23BB
ENCODING 9147
SWIDTH 1833 0
DWIDTH 22 0
BBX 8 2 2 10
BITMAP
FF
FF
ENDCHAR
STARTCHAR uni23BC
ENCODING 9148
SWIDTH 1833 0
DWIDTH 22 0
BBX 8 2 2 4
BITMAP
FF
FF
ENDCHAR
STARTCHAR uni23BD
ENCODING 9149
SWIDTH 1833 0
DWIDTH 22 0
BBX 8 2 2 -2
BITMAP
FF
FF
ENDCHAR
STARTCHAR uni23E9
ENCODING 9193
SWIDTH 1833 0
DWIDTH 22 0
BBX 10 10 0 0
BITMAP
CC00
CC00
FF00
FF00
FFC0
FFC0
FF00
FF00
CC00
CC00
ENDCHAR
STARTCHAR uni23EA
ENCODING 9194
SWIDTH 1833 0
DWIDTH 22 0
BBX 10 10 0 0
BITMAP
0CC0
0CC0
3FC0
3FC0
FFC0
FFC0
3FC0
3FC0
0CC0
0CC0
ENDCHAR
STARTCHAR uni23EB
ENCODING 9195
SWIDTH 1833 0
DWIDTH 22 0
BBX 10 10 0 0
BITMAP
0C00
0C00
3F00
3F00
FFC0
FFC0
3F00
3F00
FFC0
FFC0
ENDCHAR
STARTCHAR uni23EC
ENCODING 9196
SWIDTH 1833 0
DWIDTH 22 0
BBX 10 10 0 0
BITMAP
FFC0
FFC0
3F00
3F00
FFC0
FFC0
3F00
3F00
0C00
0C00
ENDCHAR
STARTCHAR uni23F4
ENCODING 9204
SWIDTH 1833 0
DWIDTH 22 0
BBX 6 10 0 2
BITMAP
C0
C0
F0
F0
FC
FC
F0
F0
C0
C0
ENDCHAR
STARTCHAR uni23F5
ENCODING 9205
SWIDTH 1833 0
DWIDTH 22 0
BBX 6 10 0 2
BITMAP
0C
0C
3C
3C
FC
FC
3C
3C
0C
0C
ENDCHAR
STARTCHAR uni23F6
ENCODING 9206
SWIDTH 1833 0
DWIDTH 22 0
BBX 10 6 0 2
BITMAP
0C00
0C00
3F00
3F00
FFC0
FFC0
ENDCHAR
STARTCHAR uni23F7
ENCODING 9207
SWIDTH 1833 0
DWIDTH 22 0
BBX 10 6 0 2
BITMAP
FFC0
FFC0
3F00
3F00
0C00
0C00
ENDCHAR
STARTCHAR uni23F8
ENCODING 9208
SWIDTH 1833 0
DWIDTH 22 0
BBX 6 10 0 2
BITMAP
CC
CC
CC
CC
CC
CC
CC
CC
CC
CC
ENDCHAR
STARTCHAR uni23F9
ENCODING 9209
SWIDTH 1833 0
DWIDTH 22 0
BBX 6 6 0 4
BITMAP
FC
FC
FC
FC
FC
FC
ENDCHAR
STARTCHAR uni23FA
ENCODING 9210
SWIDTH 1833 0
DWIDTH 22 0
BBX 8 8 0 2
BITMAP
3C
3C
FF
FF
FF
FF
3C
3C
ENDCHAR
STARTCHAR uni23FB
ENCODING 9211
SWIDTH 1833 0
DWIDTH 22 0
BBX 10 12 0 2
BITMAP
0C00
0C00
0C00
0C00
CCC0
CCC0
CCC0
CCC0
C0C0
C0C0
3F00
3F00
ENDCHAR
STARTCHAR SF100000
ENCODING 9472
SWIDTH 833 0
DWIDTH 10 0
BBX 10 2 0 8
BITMAP
FFC0
FFC0
ENDCHAR
STARTCHAR uni2501
ENCODING 9473
SWIDTH 1833 0
DWIDTH 22 0
BBX 10 4 0 8
BITMAP
FFC0
FFC0
FFC0
FFC0
ENDCHAR
STARTCHAR SF110000
ENCODING 9474
SWIDTH 833 0
DWIDTH 10 0
BBX 2 22 4 -4
BITMAP
C0
C0
C0
C0
C0
C0
C0
C0
C0
C0
C0
C0
C0
C0
C0
C0
C0
C0
C0
C0
C0
C0
ENDCHAR
STARTCHAR uni2503
ENCODING 9475
SWIDTH 1833 0
DWIDTH 22 0
BBX 4 22 2 -4
BITMAP
F0
F0
F0
F0
F0
F0
F0
F0
F0
F0
F0
F0
F0
F0
F0
F0
F0
F0
F0
F0
F0
F0
ENDCHAR
STARTCHAR uni2506
ENCODING 9478
SWIDTH 1833 0
DWIDTH 22 0
BBX 2 22 4 -4
BITMAP
C0
C0
C0
C0
C0
C0
00
00
C0
C0
C0
C0
C0
C0
00
00
C0
C0
C0
C0
C0
C0
ENDCHAR
STARTCHAR uni2507
ENCODING 9479
SWIDTH 1833 0
DWIDTH 22 0
BBX 4 22 2 -4
BITMAP
F0
F0
F0
F0
F0
F0
00
00
F0
F0
F0
F0
F0
F0
00
00
F0
F0
F0
F0
F0
F0
ENDCHAR
STARTCHAR uni250A
ENCODING 9482
SWIDTH 1833 0
DWIDTH 22 0
BBX 2 22 4 -4
BITMAP
C0
C0
C0
C0
00
00
C0
C0
C0
C0
00
00
C0
C0
C0
C0
00
00
C0
C0
C0
C0
ENDCHAR
STARTCHAR uni250B
ENCODING 9483
SWIDTH 1833 0
DWIDTH 22 0
BBX 4 22 2 -4
BITMAP
F0
F0
F0
F0
00
00
F0
F0
F0
F0
00
00
F0
F0
F0
F0
00
00
F0
F0
F0
F0
ENDCHAR
STARTCHAR SF010000
ENCODING 9484
SWIDTH 833 0
DWIDTH 10 0
BBX 6 14 4 -4
BITMAP
FC
FC
C0
C0
C0
C0
C0
C0
C0
C0
C0
C0
C0
C0
ENDCHAR
STARTCHAR uni250D
ENCODING 9485
SWIDTH 1833 0
DWIDTH 22 0
BBX 6 16 4 -4
BITMAP
FC
FC
FC
FC
C0
C0
C0
C0
C0
C0
C0
C0
C0
C0
C0
C0
ENDCHAR
STARTCHAR uni250E
ENCODING 9486
SWIDTH 1833 0
DWIDTH 22 0
BBX 8 14 2 -4
BITMAP
FF
FF
FC
FC
FC
FC
FC
FC
FC
FC
FC
FC
FC
FC
ENDCHAR
STARTCHAR uni250F
ENCODING 9487
SWIDTH 1833 0
DWIDTH 22 0
BBX 8 16 2 -4
BITMAP
FF
FF
FF
FF
FC
FC
FC
FC
FC
FC
FC
FC
FC
FC
FC
FC
ENDCHAR
STARTCHAR SF030000
ENCODING 9488
SWIDTH 1833 0
DWIDTH 22 0
BBX 6 14 0 -4
BITMAP
FC
FC
0C
0C
0C
0C
0C
0C
0C
0C
0C
0C
0C
0C
ENDCHAR
STARTCHAR uni2511
ENCODING 9489
SWIDTH 1833 0
DWIDTH 22 0
BBX 6 16 0 -4
BITMAP
FC
FC
FC
FC
0C
0C
0C
0C
0C
0C
0C
0C
0C
0C
0C
0C
ENDCHAR
STARTCHAR uni2512
ENCODING 9490
SWIDTH 1833 0
DWIDTH 22 0
BBX 8 14 0 -4
BITMAP
FF
FF
3F
3F
3F
3F
3F
3F
3F
3F
3F
3F
3F
3F
ENDCHAR
STARTCHAR uni2513
ENCODING 9491
SWIDTH 1833 0
DWIDTH 22 0
BBX 8 16 0 -4
BITMAP
FF
FF
FF
FF
3F
3F
3F
3F
3F
3F
3F
3F
3F
3F
3F
3F
ENDCHAR
STARTCHAR SF020000
ENCODING 9492
SWIDTH 833 0
DWIDTH 10 0
BBX 6 10 4 8
BITMAP
C0
C0
C0
C0
C0
C0
C0
C0
FC
FC
ENDCHAR
STARTCHAR uni2515
ENCODING 9493
SWIDTH 1833 0
DWIDTH 22 0
BBX 6 10 4 8
BITMAP
C0
C0
C0
C0
C0
C0
FC
FC
FC
FC
ENDCHAR
STARTCHAR uni2516
ENCODING 9494
SWIDTH 1833 0
DWIDTH 22 0
BBX 8 10 2 8
BITMAP
FC
FC
FC
FC
FC
FC
FC
FC
FF
FF
ENDCHAR
STARTCHAR uni2517
ENCODING 9495
SWIDTH 1833 0
DWIDTH 22 0
BBX 8 10 2 8
BITMAP
FC
FC
FC
FC
FC
FC
FF
FF
FF
FF
ENDCHAR
STARTCHAR SF040000
ENCODING 9496
SWIDTH 1833 0
DWIDTH 22 0
BBX 6 10 0 8
BITMAP
0C
0C
0C
0C
0C
0C
0C
0C
FC
FC
ENDCHAR
STARTCHAR uni2519
ENCODING 9497
SWIDTH 1833 0
DWIDTH 22 0
BBX 6 10 0 8
BITMAP
0C
0C
0C
0C
0C
0C
FC
FC
FC
FC
ENDCHAR
STARTCHAR uni251A
ENCODING 9498
SWIDTH 1833 0
DWIDTH 22 0
BBX 8 10 0 8
BITMAP
3F
3F
3F
3F
3F
3F
3F
3F
FF
FF
ENDCHAR
STARTCHAR uni251B
ENCODING 9499
SWIDTH 1833 0
DWIDTH 22 0
BBX 8 10 0 8
BITMAP
3F
3F
3F
3F
3F
3F
FF
FF
FF
FF
ENDCHAR
STARTCHAR SF080000
ENCODING 9500
SWIDTH 1833 0
DWIDTH 22 0
BBX 6 22 4 -4
BITMAP
C0
C0
C0
C0
C0
C0
C0
C0
FC
FC
C0
C0
C0
C0
C0
C0
C0
C0
C0
C0
C0
C0
ENDCHAR
STARTCHAR uni251D
ENCODING 9501
SWIDTH 1833 0
DWIDTH 22 0
BBX 6 22 4 -4
BITMAP
C0
C0
C0
C0
C0
C0
FC
FC
FC
FC
C0
C0
C0
C0
C0
C0
C0
C0
C0
C0
C0
C0
ENDCHAR
STARTCHAR uni2520
ENCODING 9504
SWIDTH 1833 0
DWIDTH 22 0
BBX 8 22 2 -4
BITMAP
FC
FC
FC
FC
FC
FC
FC
FC
FF
FF
FC
FC
FC
FC
FC
FC
FC
FC
FC
FC
FC
FC
ENDCHAR
STARTCHAR uni2523
ENCODING 9507
SWIDTH 1833 0
DWIDTH 22 0
BBX 8 22 2 -4
BITMAP
FC
FC
FC
FC
FC
FC
FF
FF
FF
FF
FC
FC
FC
FC
FC
FC
FC
FC
FC
FC
FC
FC
ENDCHAR
STARTCHAR SF090000
ENCODING 9508
SWIDTH 1833 0
DWIDTH 22 0
BBX 6 22 0 -4
BITMAP
0C
0C
0C
0C
0C
0C
0C
0C
FC
FC
0C
0C
0C
0C
0C
0C
0C
0C
0C
0C
0C
0C
ENDCHAR
STARTCHAR uni2525
ENCODING 9509
SWIDTH 1833 0
DWIDTH 22 0
BBX 6 22 0 -4
BITMAP
0C
0C
0C
0C
0C
0C
FC
FC
FC
FC
0C
0C
0C
0C
0C
0C
0C
0C
0C
0C
0C
0C
ENDCHAR
STARTCHAR uni2528
ENCODING 9512
SWIDTH 1833 0
DWIDTH 22 0
BBX 8 22 0 -4
BITMAP
3F
3F
3F
3F
3F
3F
3F
3F
FF
FF
3F
3F
3F
3F
3F
3F
3F
3F
3F
3F
3F
3F
ENDCHAR
STARTCHAR uni252B
ENCODING 9515
SWIDTH 1833 0
DWIDTH 22 0
BBX 8 22 0 -4
BITMAP
3F
3F
3F
3F
3F
3F
FF
FF
FF
FF
3F
3F
3F
3F
3F
3F
3F
3F
3F
3F
3F
3F
ENDCHAR
STARTCHAR SF060000
ENCODING 9516
SWIDTH 1833 0
DWIDTH 22 0
BBX 10 14 0 -4
BITMAP
FFC0
FFC0
0C00
0C00
0C00
0C00
0C00
0C00
0C00
0C00
0C00
0C00
0C00
0C00
ENDCHAR
STARTCHAR uni252F
ENCODING 9519
SWIDTH 1833 0
DWIDTH 22 0
BBX 10 16 0 -4
BITMAP
FFC0
FFC0
FFC0
FFC0
0C00
0C00
0C00
0C00
0C00
0C00
0C00
0C00
0C00
0C00
0C00
0C00
ENDCHAR
STARTCHAR uni2530
ENCODING 9520
SWIDTH 1833 0
DWIDTH 22 0
BBX 10 14 0 -4
BITMAP
FFC0
FFC0
3F00
3F00
3F00
3F00
3F00
3F00
3F00
3F00
3F00
3F00
3F00
3F00
ENDCHAR
STARTCHAR uni2533
ENCODING 9523
SWIDTH 1833 0
DWIDTH 22 0
BBX 10 16 0 -4
BITMAP
FFC0
FFC0
FFC0
FFC0
3F00
3F00
3F00
3F00
3F00
3F00
3F00
3F00
3F00
3F00
3F00
3F00
ENDCHAR
STARTCHAR SF070000
ENCODING 9524
SWIDTH 1833 0
DWIDTH 22 0
BBX 10 10 0 8
BITMAP
0C00
0C00
0C00
0C00
0C00
0C00
0C00
0C00
FFC0
FFC0
ENDCHAR
STARTCHAR uni2537
ENCODING 9527
SWIDTH 1833 0
DWIDTH 22 0
BBX 10 10 0 8
BITMAP
0C00
0C00
0C00
0C00
0C00
0C00
FFC0
FFC0
FFC0
FFC0
ENDCHAR
STARTCHAR uni2538
ENCODING 9528
SWIDTH 1833 0
DWIDTH 22 0
BBX 10 10 0 8
BITMAP
3F00
3F00
3F00
3F00
3F00
3F00
3F00
3F00
FFC0
FFC0
ENDCHAR
STARTCHAR uni253B
ENCODING 9531
SWIDTH 1833 0
DWIDTH 22 0
BBX 10 10 0 8
BITMAP
3F00
3F00
3F00
3F00
3F00
3F00
FFC0
FFC0
FFC0
FFC0
ENDCHAR
STARTCHAR SF050000
ENCODING 9532
SWIDTH 1833 0
DWIDTH 22 0
BBX 10 22 0 -4
BITMAP
0C00
0C00
0C00
0C00
0C00
0C00
0C00
0C00
FFC0
FFC0
0C00
0C00
0C00
0C00
0C00
0C00
0C00
0C00
0C00
0C00
0C00
0C00
ENDCHAR
STARTCHAR uni253F
ENCODING 9535
SWIDTH 1833 0
DWIDTH 22 0
BBX 10 22 0 -4
BITMAP
0C00
0C00
0C00
0C00
0C00
0C00
0C00
0C00
FFC0
FFC0
FFC0
FFC0
0C00
0C00
0C00
0C00
0C00
0C00
0C00
0C00
0C00
0C00
ENDCHAR
STARTCHAR uni2542
ENCODING 9538
SWIDTH 1833 0
DWIDTH 22 0
BBX 10 22 0 -4
BITMAP
3F00
3F00
3F00
3F00
3F00
3F00
3F00
3F00
FFC0
FFC0
3F00
3F00
3F00
3F00
3F00
3F00
3F00
3F00
3F00
3F00
3F00
3F00
ENDCHAR
STARTCHAR uni254B
ENCODING 9547
SWIDTH 1833 0
DWIDTH 22 0
BBX 10 22 0 -4
BITMAP
3F00
3F00
3F00
3F00
3F00
3F00
FFC0
FFC0
FFC0
FFC0
3F00
3F00
3F00
3F00
3F00
3F00
3F00
3F00
3F00
3F00
3F00
3F00
ENDCHAR
STARTCHAR SF430000
ENCODING 9552
SWIDTH 1833 0
DWIDTH 22 0
BBX 10 6 0 6
BITMAP
FFC0
FFC0
0000
0000
FFC0
FFC0
ENDCHAR
STARTCHAR SF240000
ENCODING 9553
SWIDTH 1833 0
DWIDTH 22 0
BBX 6 22 2 -4
BITMAP
CC
CC
CC
CC
CC
CC
CC
CC
CC
CC
CC
CC
CC
CC
CC
CC
CC
CC
CC
CC
CC
CC
ENDCHAR
STARTCHAR SF510000
ENCODING 9554
SWIDTH 1833 0
DWIDTH 22 0
BBX 6 16 4 -4
BITMAP
FC
FC
C0
C0
FC
FC
C0
C0
C0
C0
C0
C0
C0
C0
C0
C0
ENDCHAR
STARTCHAR SF520000
ENCODING 9555
SWIDTH 1833 0
DWIDTH 22 0
BBX 8 14 2 -4
BITMAP
FF
FF
CC
CC
CC
CC
CC
CC
CC
CC
CC
CC
CC
CC
ENDCHAR
STARTCHAR SF390000
ENCODING 9556
SWIDTH 1833 0
DWIDTH 22 0
BBX 8 16 2 -4
BITMAP
FF
FF
C0
C0
CF
CF
CC
CC
CC
CC
CC
CC
CC
CC
CC
CC
ENDCHAR
STARTCHAR SF220000
ENCODING 9557
SWIDTH 1833 0
DWIDTH 22 0
BBX 6 16 0 -4
BITMAP
FC
FC
0C
0C
FC
FC
0C
0C
0C
0C
0C
0C
0C
0C
0C
0C
ENDCHAR
STARTCHAR SF210000
ENCODING 9558
SWIDTH 1833 0
DWIDTH 22 0
BBX 8 14 0 -4
BITMAP
FF
FF
33
33
33
33
33
33
33
33
33
33
33
33
ENDCHAR
STARTCHAR SF250000
ENCODING 9559
SWIDTH 1833 0
DWIDTH 22 0
BBX 8 16 0 -4
BITMAP
FF
FF
03
03
F3
F3
33
33
33
33
33
33
33
33
33
33
ENDCHAR
STARTCHAR SF500000
ENCODING 9560
SWIDTH 1833 0
DWIDTH 22 0
BBX 6 12 4 6
BITMAP
C0
C0
C0
C0
C0
C0
FC
FC
C0
C0
FC
FC
ENDCHAR
STARTCHAR SF490000
ENCODING 9561
SWIDTH 1833 0
DWIDTH 22 0
BBX 8 10 2 8
BITMAP
CC
CC
CC
CC
CC
CC
CC
CC
FF
FF
ENDCHAR
STARTCHAR SF380000
ENCODING 9562
SWIDTH 1833 0
DWIDTH 22 0
BBX 8 12 2 6
BITMAP
CC
CC
CC
CC
CC
CC
CF
CF
C0
C0
FF
FF
ENDCHAR
STARTCHAR SF280000
ENCODING 9563
SWIDTH 1833 0
DWIDTH 22 0
BBX 6 12 0 6
BITMAP
0C
0C
0C
0C
0C
0C
FC
FC
0C
0C
FC
FC
ENDCHAR
STARTCHAR SF270000
ENCODING 9564
SWIDTH 1833 0
DWIDTH 22 0
BBX 8 10 0 8
BITMAP
33
33
33
33
33
33
33
33
FF
FF
ENDCHAR
STARTCHAR SF260000
ENCODING 9565
SWIDTH 1833 0
DWIDTH 22 0
BBX 8 12 0 6
BITMAP
33
33
33
33
33
33
F3
F3
03
03
FF
FF
ENDCHAR
STARTCHAR SF360000
ENCODING 9566
SWIDTH 1833 0
DWIDTH 22 0
BBX 6 22 4 -4
BITMAP
C0
C0
C0
C0
C0
C0
FC
FC
C0
C0
FC
FC
C0
C0
C0
C0
C0
C0
C0
C0
C0
C0
ENDCHAR
STARTCHAR SF370000
ENCODING 9567
SWIDTH 1833 0
DWIDTH 22 0
BBX 8 22 2 -4
BITMAP
CC
CC
CC
CC
CC
CC
CC
CC
CF
CF
CC
CC
CC
CC
CC
CC
CC
CC
CC
CC
CC
CC
ENDCHAR
STARTCHAR SF420000
ENCODING 9568
SWIDTH 1833 0
DWIDTH 22 0
BBX 8 22 2 -4
BITMAP
CC
CC
CC
CC
CC
CC
CF
CF
C0
C0
CF
CF
CC
CC
CC
CC
CC
CC
CC
CC
CC
CC
ENDCHAR
STARTCHAR SF190000
ENCODING 9569
SWIDTH 1833 0
DWIDTH 22 0
BBX 6 22 0 -4
BITMAP
0C
0C
0C
0C
0C
0C
FC
FC
0C
0C
FC
FC
0C
0C
0C
0C
0C
0C
0C
0C
0C
0C
ENDCHAR
STARTCHAR SF200000
ENCODING 9570
SWIDTH 1833 0
DWIDTH 22 0
BBX 8 22 0 -4
BITMAP
33
33
33
33
33
33
33
33
F3
F3
33
33
33
33
33
33
33
33
33
33
33
33
ENDCHAR
STARTCHAR SF230000
ENCODING 9571
SWIDTH 1833 0
DWIDTH 22 0
BBX 8 22 0 -4
BITMAP
33
33
33
33
33
33
F3
F3
03
03
F3
F3
33
33
33
33
33
33
33
33
33
33
ENDCHAR
STARTCHAR SF470000
ENCODING 9572
SWIDTH 1833 0
DWIDTH 22 0
BBX 10 16 0 -4
BITMAP
FFC0
FFC0
0000
0000
FFC0
FFC0
0C00
0C00
0C00
0C00
0C00
0C00
0C00
0C00
0C00
0C00
ENDCHAR
STARTCHAR SF480000
ENCODING 9573
SWIDTH 1833 0
DWIDTH 22 0
BBX 10 14 0 -4
BITMAP
FFC0
FFC0
3300
3300
3300
3300
3300
3300
3300
3300
3300
3300
3300
3300
ENDCHAR
STARTCHAR SF410000
ENCODING 9574
SWIDTH 1833 0
DWIDTH 22 0
BBX 10 16 0 -4
BITMAP
FFC0
FFC0
0000
0000
F3C0
F3C0
3300
3300
3300
3300
3300
3300
3300
3300
3300
3300
ENDCHAR
STARTCHAR SF450000
ENCODING 9575
SWIDTH 1833 0
DWIDTH 22 0
BBX 10 12 0 6
BITMAP
0C00
0C00
0C00
0C00
0C00
0C00
FFC0
FFC0
0000
0000
FFC0
FFC0
ENDCHAR
STARTCHAR SF460000
ENCODING 9576
SWIDTH 1833 0
DWIDTH 22 0
BBX 10 10 0 8
BITMAP
3300
3300
3300
3300
3300
3300
3300
3300
FFC0
FFC0
ENDCHAR
STARTCHAR SF400000
ENCODING 9577
SWIDTH 1833 0
DWIDTH 22 0
BBX 10 12 0 6
BITMAP
3300
3300
3300
3300
3300
3300
F3C0
F3C0
0000
0000
FFC0
FFC0
ENDCHAR
STARTCHAR SF540000
ENCODING 9578
SWIDTH 1833 0
DWIDTH 22 0
BBX 10 22 0 -4
BITMAP
0C00
0C00
0C00
0C00
0C00
0C00
FFC0
FFC0
0C00
0C00
FFC0
FFC0
0C00
0C00
0C00
0C00
0C00
0C00
0C00
0C00
0C00
0C00
ENDCHAR
STARTCHAR SF530000
ENCODING 9579
SWIDTH 1833 0
DWIDTH 22 0
BBX 10 22 0 -4
BITMAP
3300
3300
3300
3300
3300
3300
3300
3300
FFC0
FFC0
3300
3300
3300
3300
3300
3300
3300
3300
3300
3300
3300
3300
ENDCHAR
STARTCHAR SF440000
ENCODING 9580
SWIDTH 1833 0
DWIDTH 22 0
BBX 10 22 0 -4
BITMAP
3300
3300
3300
3300
3300
3300
F3C0
F3C0
0000
0000
F3C0
F3C0
3300
3300
3300
3300
3300
3300
3300
3300
3300
3300
ENDCHAR
STARTCHAR uni256D
ENCODING 9581
SWIDTH 1833 0
DWIDTH 22 0
BBX 6 14 4 -4
BITMAP
3C
3C
C0
C0
C0
C0
C0
C0
C0
C0
C0
C0
C0
C0
ENDCHAR
STARTCHAR uni256E
ENCODING 9582
SWIDTH 1833 0
DWIDTH 22 0
BBX 6 14 0 -4
BITMAP
F0
F0
0C
0C
0C
0C
0C
0C
0C
0C
0C
0C
0C
0C
ENDCHAR
STARTCHAR uni256F
ENCODING 9583
SWIDTH 1833 0
DWIDTH 22 0
BBX 6 10 0 8
BITMAP
0C
0C
0C
0C
0C
0C
0C
0C
F0
F0
ENDCHAR
STARTCHAR uni2570
ENCODING 9584
SWIDTH 1833 0
DWIDTH 22 0
BBX 6 10 4 8
BITMAP
C0
C0
C0
C0
C0
C0
C0
C0
3C
3C
ENDCHAR
STARTCHAR uni2571
ENCODING 9585
SWIDTH 1833 0
DWIDTH 22 0
BBX 10 22 0 -4
BITMAP
00C0
00C0
00C0
00C0
00C0
00C0
0300
0300
0300
0300
0C00
0C00
0C00
0C00
3000
3000
3000
3000
C000
C000
C000
C000
ENDCHAR
STARTCHAR uni2572
ENCODING 9586
SWIDTH 1833 0
DWIDTH 22 0
BBX 10 22 0 -4
BITMAP
C000
C000
C000
C000
C000
C000
3000
3000
3000
3000
0C00
0C00
0C00
0C00
0300
0300
0300
0300
00C0
00C0
00C0
00C0
ENDCHAR
STARTCHAR uni2573
ENCODING 9587
SWIDTH 1833 0
DWIDTH 22 0
BBX 10 22 0 -4
BITMAP
C0C0
C0C0
C0C0
C0C0
3300
3300
3300
3300
0C00
0C00
0C00
0C00
0C00
0C00
3300
3300
3300
3300
C0C0
C0C0
C0C0
C0C0
ENDCHAR
STARTCHAR uni257C
ENCODING 9596
SWIDTH 1833 0
DWIDTH 22 0
BBX 10 6 0 6
BITMAP
0FC0
0FC0
FFC0
FFC0
0FC0
0FC0
ENDCHAR
STARTCHAR uni257E
ENCODING 9598
SWIDTH 1833 0
DWIDTH 22 0
BBX 10 6 0 6
BITMAP
FC00
FC00
FFC0
FFC0
FC00
FC00
ENDCHAR
STARTCHAR uni2581
ENCODING 9601
SWIDTH 1833 0
DWIDTH 22 0
BBX 10 4 0 0
BITMAP
FFC0
FFC0
FFC0
FFC0
ENDCHAR
STARTCHAR uni2582
ENCODING 9602
SWIDTH 1833 0
DWIDTH 22 0
BBX 10 6 0 0
BITMAP
FFC0
FFC0
FFC0
FFC0
FFC0
FFC0
ENDCHAR
STARTCHAR uni2583
ENCODING 9603
SWIDTH 1833 0
DWIDTH 22 0
BBX 10 8 0 0
BITMAP
FFC0
FFC0
FFC0
FFC0
FFC0
FFC0
FFC0
FFC0
ENDCHAR
STARTCHAR dnblock
ENCODING 9604
SWIDTH 1833 0
DWIDTH 22 0
BBX 10 10 0 0
BITMAP
FFC0
FFC0
FFC0
FFC0
FFC0
FFC0
FFC0
FFC0
FFC0
FFC0
ENDCHAR
STARTCHAR uni2585
ENCODING 9605
SWIDTH 1833 0
DWIDTH 22 0
BBX 10 12 0 0
BITMAP
FFC0
FFC0
FFC0
FFC0
FFC0
FFC0
FFC0
FFC0
FFC0
FFC0
FFC0
FFC0
ENDCHAR
STARTCHAR uni2586
ENCODING 9606
SWIDTH 1833 0
DWIDTH 22 0
BBX 10 14 0 0
BITMAP
FFC0
FFC0
FFC0
FFC0
FFC0
FFC0
FFC0
FFC0
FFC0
FFC0
FFC0
FFC0
FFC0
FFC0
ENDCHAR
STARTCHAR uni2587
ENCODING 9607
SWIDTH 1833 0
DWIDTH 22 0
BBX 10 16 0 0
BITMAP
FFC0
FFC0
FFC0
FFC0
FFC0
FFC0
FFC0
FFC0
FFC0
FFC0
FFC0
FFC0
FFC0
FFC0
FFC0
FFC0
ENDCHAR
STARTCHAR block
ENCODING 9608
SWIDTH 1833 0
DWIDTH 22 0
BBX 10 22 0 -4
BITMAP
FFC0
FFC0
FFC0
FFC0
FFC0
FFC0
FFC0
FFC0
FFC0
FFC0
FFC0
FFC0
FFC0
FFC0
FFC0
FFC0
FFC0
FFC0
FFC0
FFC0
FFC0
FFC0
ENDCHAR
STARTCHAR uni2589
ENCODING 9609
SWIDTH 1833 0
DWIDTH 22 0
BBX 8 18 0 0
BITMAP
FF
FF
FF
FF
FF
FF
FF
FF
FF
FF
FF
FF
FF
FF
FF
FF
FF
FF
ENDCHAR
STARTCHAR uni258A
ENCODING 9610
SWIDTH 1833 0
DWIDTH 22 0
BBX 8 18 0 0
BITMAP
FF
FF
FF
FF
FF
FF
FF
FF
FF
FF
FF
FF
FF
FF
FF
FF
FF
FF
ENDCHAR
STARTCHAR uni258F
ENCODING 9615
SWIDTH 1833 0
DWIDTH 22 0
BBX 2 20 0 -2
BITMAP
C0
C0
C0
C0
C0
C0
C0
C0
C0
C0
C0
C0
C0
C0
C0
C0
C0
C0
C0
C0
ENDCHAR
STARTCHAR ltshade
ENCODING 9617
SWIDTH 1833 0
DWIDTH 22 0
BBX 10 22 0 -4
BITMAP
0C00
0C00
C0C0
C0C0
0C00
0C00
C0C0
C0C0
0C00
0C00
C0C0
C0C0
0C00
0C00
C0C0
C0C0
0C00
0C00
C0C0
C0C0
0C00
0C00
ENDCHAR
STARTCHAR shade
ENCODING 9618
SWIDTH 1833 0
DWIDTH 22 0
BBX 10 22 0 -4
BITMAP
3300
3300
CCC0
CCC0
3300
3300
CCC0
CCC0
3300
3300
CCC0
CCC0
3300
3300
CCC0
CCC0
3300
3300
CCC0
CCC0
3300
3300
ENDCHAR
STARTCHAR dkshade
ENCODING 9619
SWIDTH 1833 0
DWIDTH 22 0
BBX 10 22 0 -4
BITMAP
FFC0
FFC0
CCC0
CCC0
FFC0
FFC0
CCC0
CCC0
FFC0
FFC0
CCC0
CCC0
FFC0
FFC0
CCC0
CCC0
FFC0
FFC0
CCC0
CCC0
FFC0
FFC0
ENDCHAR
STARTCHAR H22073
ENCODING 9633
SWIDTH 833 0
DWIDTH 10 0
BBX 8 8 0 2
BITMAP
FF
FF
C3
C3
C3
C3
FF
FF
ENDCHAR
STARTCHAR uni25A2
ENCODING 9634
SWIDTH 833 0
DWIDTH 10 0
BBX 8 8 0 2
BITMAP
3C
3C
C3
C3
C3
C3
3C
3C
ENDCHAR
STARTCHAR H18543
ENCODING 9642
SWIDTH 833 0
DWIDTH 10 0
BBX 8 8 0 2
BITMAP
FF
FF
FF
FF
FF
FF
FF
FF
ENDCHAR
STARTCHAR H18551
ENCODING 9643
SWIDTH 1833 0
DWIDTH 22 0
BBX 8 8 0 2
BITMAP
FF
FF
C3
C3
C3
C3
FF
FF
ENDCHAR
STARTCHAR triagup
ENCODING 9650
SWIDTH 833 0
DWIDTH 10 0
BBX 10 10 0 2
BITMAP
0C00
0C00
0C00
0C00
3F00
3F00
3F00
3F00
FFC0
FFC0
ENDCHAR
STARTCHAR uni25B3
ENCODING 9651
SWIDTH 833 0
DWIDTH 10 0
BBX 10 10 0 2
BITMAP
0C00
0C00
0C00
0C00
3300
3300
3300
3300
FFC0
FFC0
ENDCHAR
STARTCHAR uni25B4
ENCODING 9652
SWIDTH 833 0
DWIDTH 10 0
BBX 10 6 0 2
BITMAP
0C00
0C00
3F00
3F00
FFC0
FFC0
ENDCHAR
STARTCHAR uni25B5
ENCODING 9653
SWIDTH 1833 0
DWIDTH 22 0
BBX 10 6 0 2
BITMAP
0C00
0C00
3300
3300
FFC0
FFC0
ENDCHAR
STARTCHAR uni25B6
ENCODING 9654
SWIDTH 1833 0
DWIDTH 22 0
BBX 10 10 0 0
BITMAP
C000
C000
FC00
FC00
FFC0
FFC0
FC00
FC00
C000
C000
ENDCHAR
STARTCHAR uni25B7
ENCODING 9655
SWIDTH 1833 0
DWIDTH 22 0
BBX 10 10 0 0
BITMAP
C000
C000
FC00
FC00
C3C0
C3C0
FC00
FC00
C000
C000
ENDCHAR
STARTCHAR uni25B8
ENCODING 9656
SWIDTH 1833 0
DWIDTH 22 0
BBX 6 10 0 0
BITMAP
C0
C0
F0
F0
FC
FC
F0
F0
C0
C0
ENDCHAR
STARTCHAR uni25B9
ENCODING 9657
SWIDTH 1833 0
DWIDTH 22 0
BBX 6 10 0 0
BITMAP
C0
C0
F0
F0
CC
CC
F0
F0
C0
C0
ENDCHAR
STARTCHAR triagdn
ENCODING 9660
SWIDTH 1833 0
DWIDTH 22 0
BBX 10 6 0 2
BITMAP
FFC0
FFC0
3F00
3F00
0C00
0C00
ENDCHAR
STARTCHAR uni25BD
ENCODING 9661
SWIDTH 1833 0
DWIDTH 22 0
BBX 10 6 0 2
BITMAP
FFC0
FFC0
3300
3300
0C00
0C00
ENDCHAR
STARTCHAR uni25BE
ENCODING 9662
SWIDTH 1833 0
DWIDTH 22 0
BBX 6 4 0 2
BITMAP
FC
FC
30
30
ENDCHAR
STARTCHAR uni25C0
ENCODING 9664
SWIDTH 1833 0
DWIDTH 22 0
BBX 10 10 0 0
BITMAP
00C0
00C0
0FC0
0FC0
FFC0
FFC0
0FC0
0FC0
00C0
00C0
ENDCHAR
STARTCHAR uni25C1
ENCODING 9665
SWIDTH 1833 0
DWIDTH 22 0
BBX 10 10 0 0
BITMAP
00C0
00C0
0FC0
0FC0
F0C0
F0C0
0FC0
0FC0
00C0
00C0
ENDCHAR
STARTCHAR uni25C2
ENCODING 9666
SWIDTH 1833 0
DWIDTH 22 0
BBX 6 10 0 0
BITMAP
0C
0C
3C
3C
FC
FC
3C
3C
0C
0C
ENDCHAR
STARTCHAR uni25C3
ENCODING 9667
SWIDTH 1833 0
DWIDTH 22 0
BBX 6 10 0 0
BITMAP
0C
0C
3C
3C
CC
CC
3C
3C
0C
0C
ENDCHAR
STARTCHAR triaglf
ENCODING 9668
SWIDTH 1833 0
DWIDTH 22 0
BBX 2 2 4 0
BITMAP
00
00
ENDCHAR
STARTCHAR circle
ENCODING 9675
SWIDTH 1833 0
DWIDTH 22 0
BBX 10 10 0 2
BITMAP
3F00
3F00
C0C0
C0C0
C0C0
C0C0
C0C0
C0C0
3F00
3F00
ENDCHAR
STARTCHAR uni25CE
ENCODING 9678
SWIDTH 1833 0
DWIDTH 22 0
BBX 10 10 0 2
BITMAP
3F00
3F00
C0C0
C0C0
CCC0
CCC0
C0C0
C0C0
3F00
3F00
ENDCHAR
STARTCHAR H18533
ENCODING 9679
SWIDTH 1833 0
DWIDTH 22 0
BBX 10 10 0 2
BITMAP
3F00
3F00
FFC0
FFC0
FFC0
FFC0
FFC0
FFC0
3F00
3F00
ENDCHAR
STARTCHAR uni25D0
ENCODING 9680
SWIDTH 1833 0
DWIDTH 22 0
BBX 10 10 0 2
BITMAP
3F00
3F00
FCC0
FCC0
FCC0
FCC0
FCC0
FCC0
3F00
3F00
ENDCHAR
STARTCHAR uni25D1
ENCODING 9681
SWIDTH 1833 0
DWIDTH 22 0
BBX 10 10 0 2
BITMAP
3F00
3F00
CFC0
CFC0
CFC0
CFC0
CFC0
CFC0
3F00
3F00
ENDCHAR
STARTCHAR uni25D2
ENCODING 9682
SWIDTH 1833 0
DWIDTH 22 0
BBX 10 10 0 2
BITMAP
3F00
3F00
C0C0
C0C0
FFC0
FFC0
FFC0
FFC0
3F00
3F00
ENDCHAR
STARTCHAR uni25D3
ENCODING 9683
SWIDTH 1833 0
DWIDTH 22 0
BBX 10 10 0 2
BITMAP
3F00
3F00
FFC0
FFC0
FFC0
FFC0
C0C0
C0C0
3F00
3F00
ENDCHAR
STARTCHAR uni25D4
ENCODING 9684
SWIDTH 1833 0
DWIDTH 22 0
BBX 10 10 0 2
BITMAP
3F00
3F00
CFC0
CFC0
CFC0
CFC0
C0C0
C0C0
3F00
3F00
ENDCHAR
STARTCHAR uni25D5
ENCODING 9685
SWIDTH 1833 0
DWIDTH 22 0
BBX 10 10 0 2
BITMAP
3F00
3F00
C3C0
C3C0
C3C0
C3C0
FFC0
FFC0
3F00
3F00
ENDCHAR
STARTCHAR uni25D6
ENCODING 9686
SWIDTH 1833 0
DWIDTH 22 0
BBX 4 10 0 2
BITMAP
30
30
F0
F0
F0
F0
F0
F0
30
30
ENDCHAR
STARTCHAR uni25D7
ENCODING 9687
SWIDTH 1833 0
DWIDTH 22 0
BBX 4 10 6 2
BITMAP
C0
C0
F0
F0
F0
F0
F0
F0
C0
C0
ENDCHAR
STARTCHAR uni25E7
ENCODING 9703
SWIDTH 1833 0
DWIDTH 22 0
BBX 10 10 0 0
BITMAP
FFC0
FFC0
FCC0
FCC0
FCC0
FCC0
FCC0
FCC0
FFC0
FFC0
ENDCHAR
STARTCHAR uni25E8
ENCODING 9704
SWIDTH 1833 0
DWIDTH 22 0
BBX 10 10 0 0
BITMAP
FFC0
FFC0
CFC0
CFC0
CFC0
CFC0
CFC0
CFC0
FFC0
FFC0
ENDCHAR
STARTCHAR uni25E9
ENCODING 9705
SWIDTH 1833 0
DWIDTH 22 0
BBX 10 10 0 0
BITMAP
FFC0
FFC0
FFC0
FFC0
FCC0
FCC0
F0C0
F0C0
FFC0
FFC0
ENDCHAR
STARTCHAR uni25EA
ENCODING 9706
SWIDTH 1833 0
DWIDTH 22 0
BBX 10 10 0 0
BITMAP
FFC0
FFC0
C3C0
C3C0
CFC0
CFC0
FFC0
FFC0
FFC0
FFC0
ENDCHAR
STARTCHAR uni25EB
ENCODING 9707
SWIDTH 1833 0
DWIDTH 22 0
BBX 10 10 0 0
BITMAP
FFC0
FFC0
CCC0
CCC0
CCC0
CCC0
CCC0
CCC0
FFC0
FFC0
ENDCHAR
STARTCHAR uni25F0
ENCODING 9712
SWIDTH 1833 0
DWIDTH 22 0
BBX 10 10 0 0
BITMAP
FFC0
FFC0
CCC0
CCC0
FCC0
FCC0
C0C0
C0C0
FFC0
FFC0
ENDCHAR
STARTCHAR uni25F1
ENCODING 9713
SWIDTH 1833 0
DWIDTH 22 0
BBX 10 10 0 0
BITMAP
FFC0
FFC0
C0C0
C0C0
FCC0
FCC0
CCC0
CCC0
FFC0
FFC0
ENDCHAR
STARTCHAR uni25F2
ENCODING 9714
SWIDTH 1833 0
DWIDTH 22 0
BBX 10 10 0 0
BITMAP
FFC0
FFC0
C0C0
C0C0
CFC0
CFC0
CCC0
CCC0
FFC0
FFC0
ENDCHAR
STARTCHAR uni25F3
ENCODING 9715
SWIDTH 1833 0
DWIDTH 22 0
BBX 10 10 0 0
BITMAP
FFC0
FFC0
CCC0
CCC0
CFC0
CFC0
C0C0
C0C0
FFC0
FFC0
ENDCHAR
STARTCHAR uni2600
ENCODING 9728
SWIDTH 833 0
DWIDTH 10 0
BBX 10 14 0 -2
BITMAP
0C00
0C00
CCC0
CCC0
3F00
3F00
FFC0
FFC0
3F00
3F00
CCC0
CCC0
0C00
0C00
ENDCHAR
STARTCHAR uni2601
ENCODING 9729
SWIDTH 833 0
DWIDTH 10 0
BBX 10 8 0 2
BITMAP
3C00
3C00
3F00
3F00
FFC0
FFC0
FFC0
FFC0
ENDCHAR
STARTCHAR uni2602
ENCODING 9730
SWIDTH 833 0
DWIDTH 10 0
BBX 10 16 0 -2
BITMAP
3F00
3F00
FFC0
FFC0
FFC0
FFC0
0C00
0C00
0C00
0C00
CC00
CC00
CC00
CC00
3000
3000
ENDCHAR
STARTCHAR uni2630
ENCODING 9776
SWIDTH 1833 0
DWIDTH 22 0
BBX 10 14 0 0
BITMAP
FFC0
FFC0
0000
0000
0000
0000
FFC0
FFC0
0000
0000
0000
0000
FFC0
FFC0
ENDCHAR
STARTCHAR uni2631
ENCODING 9777
SWIDTH 1833 0
DWIDTH 22 0
BBX 10 14 0 0
BITMAP
F3C0
F3C0
0000
0000
0000
0000
FFC0
FFC0
0000
0000
0000
0000
FFC0
FFC0
ENDCHAR
STARTCHAR uni2632
ENCODING 9778
SWIDTH 1833 0
DWIDTH 22 0
BBX 10 14 0 0
BITMAP
FFC0
FFC0
0000
0000
0000
0000
F3C0
F3C0
0000
0000
0000
0000
FFC0
FFC0
ENDCHAR
STARTCHAR uni2633
ENCODING 9779
SWIDTH 1833 0
DWIDTH 22 0
BBX 10 14 0 0
BITMAP
F3C0
F3C0
0000
0000
0000
0000
F3C0
F3C0
0000
0000
0000
0000
FFC0
FFC0
ENDCHAR
STARTCHAR uni2634
ENCODING 9780
SWIDTH 1833 0
DWIDTH 22 0
BBX 10 14 0 0
BITMAP
FFC0
FFC0
0000
0000
0000
0000
FFC0
FFC0
0000
0000
0000
0000
F3C0
F3C0
ENDCHAR
STARTCHAR uni2635
ENCODING 9781
SWIDTH 1833 0
DWIDTH 22 0
BBX 10 14 0 0
BITMAP
F3C0
F3C0
0000
0000
0000
0000
FFC0
FFC0
0000
0000
0000
0000
F3C0
F3C0
ENDCHAR
STARTCHAR uni2636
ENCODING 9782
SWIDTH 1833 0
DWIDTH 22 0
BBX 10 14 0 0
BITMAP
FFC0
FFC0
0000
0000
0000
0000
F3C0
F3C0
0000
0000
0000
0000
F3C0
F3C0
ENDCHAR
STARTCHAR uni2637
ENCODING 9783
SWIDTH 1833 0
DWIDTH 22 0
BBX 10 14 0 0
BITMAP
F3C0
F3C0
0000
0000
0000
0000
F3C0
F3C0
0000
0000
0000
0000
F3C0
F3C0
ENDCHAR
STARTCHAR uni2661
ENCODING 9825
SWIDTH 833 0
DWIDTH 10 0
BBX 10 10 0 0
BITMAP
3300
3300
CCC0
CCC0
C0C0
C0C0
3300
3300
0C00
0C00
ENDCHAR
STARTCHAR heart
ENCODING 9829
SWIDTH 833 0
DWIDTH 10 0
BBX 10 10 0 0
BITMAP
3300
3300
FFC0
FFC0
FFC0
FFC0
3F00
3F00
0C00
0C00
ENDCHAR
STARTCHAR diamond
ENCODING 9830
SWIDTH 1833 0
DWIDTH 22 0
BBX 10 10 0 0
BITMAP
0C00
0C00
3F00
3F00
FFC0
FFC0
3F00
3F00
0C00
0C00
ENDCHAR
STARTCHAR uni2669
ENCODING 9833
SWIDTH 1833 0
DWIDTH 22 0
BBX 4 16 0 0
BITMAP
30
30
30
30
30
30
30
30
30
30
30
30
F0
F0
F0
F0
ENDCHAR
STARTCHAR musicalnote
ENCODING 9834
SWIDTH 1833 0
DWIDTH 22 0
BBX 8 16 0 0
BITMAP
30
30
3C
3C
33
33
30
30
30
30
30
30
F0
F0
F0
F0
ENDCHAR
STARTCHAR musicalnotedbl
ENCODING 9835
SWIDTH 1833 0
DWIDTH 22 0
BBX 10 16 0 0
BITMAP
3C00
3C00
33C0
33C0
30C0
30C0
30C0
30C0
30C0
30C0
F0C0
F0C0
F3C0
F3C0
03C0
03C0
ENDCHAR
STARTCHAR uni266C
ENCODING 9836
SWIDTH 1833 0
DWIDTH 22 0
BBX 10 16 0 0
BITMAP
30C0
30C0
3FC0
3FC0
30C0
30C0
3FC0
3FC0
30C0
30C0
30C0
30C0
F3C0
F3C0
F3C0
F3C0
ENDCHAR
STARTCHAR uni267A
ENCODING 9850
SWIDTH 1833 0
DWIDTH 22 0
BBX 10 10 0 0
BITMAP
0C00
0C00
3300
3300
0000
0000
C0C0
C0C0
F3C0
F3C0
ENDCHAR
STARTCHAR uni26AA
ENCODING 9898
SWIDTH 1833 0
DWIDTH 22 0
BBX 8 8 0 2
BITMAP
3C
3C
C3
C3
C3
C3
3C
3C
ENDCHAR
STARTCHAR uni26AB
ENCODING 9899
SWIDTH 1833 0
DWIDTH 22 0
BBX 8 8 0 2
BITMAP
3C
3C
FF
FF
FF
FF
3C
3C
ENDCHAR
STARTCHAR uni2713
ENCODING 10003
SWIDTH 833 0
DWIDTH 10 0
BBX 10 12 0 0
BITMAP
00C0
00C0
00C0
00C0
0300
0300
C300
C300
3C00
3C00
0C00
0C00
ENDCHAR
STARTCHAR uni2714
ENCODING 10004
SWIDTH 833 0
DWIDTH 10 0
BBX 10 14 0 0
BITMAP
00C0
00C0
00C0
00C0
03C0
03C0
C300
C300
FF00
FF00
3C00
3C00
0C00
0C00
ENDCHAR
STARTCHAR uni2715
ENCODING 10005
SWIDTH 833 0
DWIDTH 10 0
BBX 10 10 0 0
BITMAP
C0C0
C0C0
3300
3300
0C00
0C00
3300
3300
C0C0
C0C0
ENDCHAR
STARTCHAR uni2716
ENCODING 10006
SWIDTH 833 0
DWIDTH 10 0
BBX 10 10 0 0
BITMAP
F3C0
F3C0
FFC0
FFC0
3F00
3F00
FFC0
FFC0
F3C0
F3C0
ENDCHAR
STARTCHAR uni2717
ENCODING 10007
SWIDTH 1833 0
DWIDTH 22 0
BBX 8 16 0 0
BITMAP
03
03
03
03
CC
CC
3C
3C
3C
3C
3C
3C
C3
C3
C3
C3
ENDCHAR
STARTCHAR uni2718
ENCODING 10008
SWIDTH 1833 0
DWIDTH 22 0
BBX 8 16 0 0
BITMAP
03
03
03
03
CC
CC
CC
CC
3C
3C
3C
3C
C3
C3
C3
C3
ENDCHAR
STARTCHAR uni272E
ENCODING 10030
SWIDTH 833 0
DWIDTH 10 0
BBX 10 12 0 0
BITMAP
0C00
0C00
0C00
0C00
FFC0
FFC0
3F00
3F00
3F00
3F00
C0C0
C0C0
ENDCHAR
STARTCHAR uni2744
ENCODING 10052
SWIDTH 833 0
DWIDTH 10 0
BBX 10 14 0 0
BITMAP
0C00
0C00
F3C0
F3C0
CCC0
CCC0
3F00
3F00
CCC0
CCC0
F3C0
F3C0
0C00
0C00
ENDCHAR
STARTCHAR uni276E
ENCODING 10094
SWIDTH 1833 0
DWIDTH 22 0
BBX 10 14 0 0
BITMAP
03C0
03C0
0F00
0F00
3C00
3C00
F000
F000
3C00
3C00
0F00
0F00
03C0
03C0
ENDCHAR
STARTCHAR uni276F
ENCODING 10095
SWIDTH 1833 0
DWIDTH 22 0
BBX 10 14 0 0
BITMAP
F000
F000
3C00
3C00
0F00
0F00
03C0
03C0
0F00
0F00
3C00
3C00
F000
F000
ENDCHAR
STARTCHAR uni2770
ENCODING 10096
SWIDTH 1833 0
DWIDTH 22 0
BBX 10 14 0 0
BITMAP
0FC0
0FC0
3F00
3F00
FC00
FC00
F000
F000
FC00
FC00
3F00
3F00
0FC0
0FC0
ENDCHAR
STARTCHAR uni2771
ENCODING 10097
SWIDTH 1833 0
DWIDTH 22 0
BBX 10 14 0 0
BITMAP
FC00
FC00
3F00
3F00
0FC0
0FC0
03C0
03C0
0FC0
0FC0
3F00
3F00
FC00
FC00
ENDCHAR
STARTCHAR uni27C2
ENCODING 10178
SWIDTH 833 0
DWIDTH 10 0
BBX 6 10 0 0
BITMAP
30
30
30
30
30
30
30
30
FC
FC
ENDCHAR
STARTCHAR uni27C3
ENCODING 10179
SWIDTH 833 0
DWIDTH 10 0
BBX 8 10 0 0
BITMAP
3F
3F
C0
C0
CC
CC
C0
C0
3F
3F
ENDCHAR
STARTCHAR uni27C4
ENCODING 10180
SWIDTH 833 0
DWIDTH 10 0
BBX 8 10 0 0
BITMAP
FC
FC
03
03
33
33
03
03
FC
FC
ENDCHAR
STARTCHAR uni27D8
ENCODING 10200
SWIDTH 833 0
DWIDTH 10 0
BBX 10 14 0 0
BITMAP
0C00
0C00
0C00
0C00
0C00
0C00
0C00
0C00
0C00
0C00
0C00
0C00
FFC0
FFC0
ENDCHAR
STARTCHAR uni27D9
ENCODING 10201
SWIDTH 833 0
DWIDTH 10 0
BBX 10 14 0 0
BITMAP
FFC0
FFC0
0C00
0C00
0C00
0C00
0C00
0C00
0C00
0C00
0C00
0C00
0C00
0C00
ENDCHAR
STARTCHAR uni27DC
ENCODING 10204
SWIDTH 833 0
DWIDTH 10 0
BBX 10 6 0 2
BITMAP
3000
3000
CFC0
CFC0
3000
3000
ENDCHAR
STARTCHAR uni27DD
ENCODING 10205
SWIDTH 833 0
DWIDTH 10 0
BBX 10 6 0 2
BITMAP
C000
C000
FFC0
FFC0
C000
C000
ENDCHAR
STARTCHAR uni27DE
ENCODING 10206
SWIDTH 833 0
DWIDTH 10 0
BBX 10 6 0 2
BITMAP
00C0
00C0
FFC0
FFC0
00C0
00C0
ENDCHAR
STARTCHAR uni2864
ENCODING 10340
SWIDTH 1833 0
DWIDTH 22 0
BBX 6 6 0 -4
BITMAP
CC
CC
00
00
C0
C0
ENDCHAR
STARTCHAR uni2865
ENCODING 10341
SWIDTH 1833 0
DWIDTH 22 0
BBX 6 14 0 -4
BITMAP
C0
C0
00
00
00
00
00
00
CC
CC
00
00
C0
C0
ENDCHAR
STARTCHAR uni2866
ENCODING 10342
SWIDTH 1833 0
DWIDTH 22 0
BBX 6 10 0 -4
BITMAP
C0
C0
00
00
CC
CC
00
00
C0
C0
ENDCHAR
STARTCHAR uni2867
ENCODING 10343
SWIDTH 1833 0
DWIDTH 22 0
BBX 6 14 0 -4
BITMAP
C0
C0
00
00
C0
C0
00
00
CC
CC
00
00
C0
C0
ENDCHAR
STARTCHAR uni2868
ENCODING 10344
SWIDTH 1833 0
DWIDTH 22 0
BBX 6 14 0 -4
BITMAP
0C
0C
00
00
00
00
00
00
0C
0C
00
00
C0
C0
ENDCHAR
STARTCHAR uni2869
ENCODING 10345
SWIDTH 1833 0
DWIDTH 22 0
BBX 6 14 0 -4
BITMAP
CC
CC
00
00
00
00
00
00
0C
0C
00
00
C0
C0
ENDCHAR
STARTCHAR uni286A
ENCODING 10346
SWIDTH 1833 0
DWIDTH 22 0
BBX 6 14 0 -4
BITMAP
0C
0C
00
00
C0
C0
00
00
0C
0C
00
00
C0
C0
ENDCHAR
STARTCHAR uni286B
ENCODING 10347
SWIDTH 1833 0
DWIDTH 22 0
BBX 6 14 0 -4
BITMAP
CC
CC
00
00
C0
C0
00
00
0C
0C
00
00
C0
C0
ENDCHAR
STARTCHAR uni286C
ENCODING 10348
SWIDTH 1833 0
DWIDTH 22 0
BBX 6 14 0 -4
BITMAP
0C
0C
00
00
00
00
00
00
CC
CC
00
00
C0
C0
ENDCHAR
STARTCHAR uni286D
ENCODING 10349
SWIDTH 1833 0
DWIDTH 22 0
BBX 6 12 0 -4
BITMAP
CC
CC
00
00
00
00
CC
CC
00
00
C0
C0
ENDCHAR
STARTCHAR uni286E
ENCODING 10350
SWIDTH 1833 0
DWIDTH 22 0
BBX 6 14 0 -4
BITMAP
0C
0C
00
00
C0
C0
00
00
CC
CC
00
00
C0
C0
ENDCHAR
STARTCHAR uni286F
ENCODING 10351
SWIDTH 1833 0
DWIDTH 22 0
BBX 6 14 0 -4
BITMAP
CC
CC
00
00
C0
C0
00
00
CC
CC
00
00
C0
C0
ENDCHAR
STARTCHAR uni2870
ENCODING 10352
SWIDTH 1833 0
DWIDTH 22 0
BBX 6 10 0 -4
BITMAP
0C
0C
00
00
0C
0C
00
00
C0
C0
ENDCHAR
STARTCHAR uni2871
ENCODING 10353
SWIDTH 1833 0
DWIDTH 22 0
BBX 6 14 0 -4
BITMAP
C0
C0
00
00
0C
0C
00
00
0C
0C
00
00
C0
C0
ENDCHAR
STARTCHAR uni2872
ENCODING 10354
SWIDTH 1833 0
DWIDTH 22 0
BBX 6 10 0 -4
BITMAP
CC
CC
00
00
0C
0C
00
00
C0
C0
ENDCHAR
STARTCHAR uni2873
ENCODING 10355
SWIDTH 1833 0
DWIDTH 22 0
BBX 6 14 0 -4
BITMAP
C0
C0
00
00
CC
CC
00
00
0C
0C
00
00
C0
C0
ENDCHAR
STARTCHAR uni2874
ENCODING 10356
SWIDTH 1833 0
DWIDTH 22 0
BBX 6 10 0 -4
BITMAP
0C
0C
00
00
CC
CC
00
00
C0
C0
ENDCHAR
STARTCHAR uni2875
ENCODING 10357
SWIDTH 1833 0
DWIDTH 22 0
BBX 6 14 0 -4
BITMAP
C0
C0
00
00
0C
0C
00
00
CC
CC
00
00
C0
C0
ENDCHAR
STARTCHAR uni2876
ENCODING 10358
SWIDTH 1833 0
DWIDTH 22 0
BBX 6 10 0 -4
BITMAP
CC
CC
00
00
CC
CC
00
00
C0
C0
ENDCHAR
STARTCHAR uni2877
ENCODING 10359
SWIDTH 1833 0
DWIDTH 22 0
BBX 6 14 0 -4
BITMAP
C0
C0
00
00
CC
CC
00
00
CC
CC
00
00
C0
C0
ENDCHAR
STARTCHAR uni2878
ENCODING 10360
SWIDTH 1833 0
DWIDTH 22 0
BBX 6 14 0 -4
BITMAP
0C
0C
00
00
0C
0C
00
00
0C
0C
00
00
C0
C0
ENDCHAR
STARTCHAR uni2879
ENCODING 10361
SWIDTH 1833 0
DWIDTH 22 0
BBX 6 14 0 -4
BITMAP
CC
CC
00
00
0C
0C
00
00
0C
0C
00
00
C0
C0
ENDCHAR
STARTCHAR uni287A
ENCODING 10362
SWIDTH 1833 0
DWIDTH 22 0
BBX 6 14 0 -4
BITMAP
0C
0C
00
00
CC
CC
00
00
0C
0C
00
00
C0
C0
ENDCHAR
STARTCHAR uni287B
ENCODING 10363
SWIDTH 1833 0
DWIDTH 22 0
BBX 6 14 0 -4
BITMAP
CC
CC
00
00
CC
CC
00
00
0C
0C
00
00
C0
C0
ENDCHAR
STARTCHAR uni287C
ENCODING 10364
SWIDTH 1833 0
DWIDTH 22 0
BBX 6 14 0 -4
BITMAP
0C
0C
00
00
0C
0C
00
00
CC
CC
00
00
C0
C0
ENDCHAR
STARTCHAR uni287D
ENCODING 10365
SWIDTH 1833 0
DWIDTH 22 0
BBX 6 14 0 -4
BITMAP
CC
CC
00
00
0C
0C
00
00
CC
CC
00
00
C0
C0
ENDCHAR
STARTCHAR uni287E
ENCODING 10366
SWIDTH 1833 0
DWIDTH 22 0
BBX 6 14 0 -4
BITMAP
0C
0C
00
00
CC
CC
00
00
CC
CC
00
00
C0
C0
ENDCHAR
STARTCHAR uni287F
ENCODING 10367
SWIDTH 1833 0
DWIDTH 22 0
BBX 6 14 0 -4
BITMAP
CC
CC
00
00
CC
CC
00
00
CC
CC
00
00
C0
C0
ENDCHAR
STARTCHAR uni2880
ENCODING 10368
SWIDTH 1833 0
DWIDTH 22 0
BBX 2 2 4 -4
BITMAP
C0
C0
ENDCHAR
STARTCHAR uni2881
ENCODING 10369
SWIDTH 1833 0
DWIDTH 22 0
BBX 6 14 0 -4
BITMAP
C0
C0
00
00
00
00
00
00
00
00
00
00
0C
0C
ENDCHAR
STARTCHAR uni2882
ENCODING 10370
SWIDTH 1833 0
DWIDTH 22 0
BBX 6 10 0 -4
BITMAP
C0
C0
00
00
00
00
00
00
0C
0C
ENDCHAR
STARTCHAR uni2883
ENCODING 10371
SWIDTH 1833 0
DWIDTH 22 0
BBX 6 14 0 -4
BITMAP
C0
C0
00
00
C0
C0
00
00
00
00
00
00
0C
0C
ENDCHAR
STARTCHAR uni2884
ENCODING 10372
SWIDTH 1833 0
DWIDTH 22 0
BBX 6 6 0 -4
BITMAP
C0
C0
00
00
0C
0C
ENDCHAR
STARTCHAR uni2885
ENCODING 10373
SWIDTH 1833 0
DWIDTH 22 0
BBX 6 14 0 -4
BITMAP
C0
C0
00
00
00
00
00
00
C0
C0
00
00
0C
0C
ENDCHAR
STARTCHAR uni2886
ENCODING 10374
SWIDTH 1833 0
DWIDTH 22 0
BBX 6 10 0 -4
BITMAP
C0
C0
00
00
C0
C0
00
00
0C
0C
ENDCHAR
STARTCHAR uni2887
ENCODING 10375
SWIDTH 1833 0
DWIDTH 22 0
BBX 6 14 0 -4
BITMAP
C0
C0
00
00
C0
C0
00
00
C0
C0
00
00
0C
0C
ENDCHAR
STARTCHAR uni2888
ENCODING 10376
SWIDTH 1833 0
DWIDTH 22 0
BBX 2 14 0 -4
BITMAP
C0
C0
00
00
00
00
00
00
00
00
00
00
C0
C0
ENDCHAR
STARTCHAR uni2889
ENCODING 10377
SWIDTH 1833 0
DWIDTH 22 0
BBX 6 14 0 -4
BITMAP
CC
CC
00
00
00
00
00
00
00
00
00
00
0C
0C
ENDCHAR
STARTCHAR uni288A
ENCODING 10378
SWIDTH 1833 0
DWIDTH 22 0
BBX 6 14 0 -4
BITMAP
0C
0C
00
00
C0
C0
00
00
00
00
00
00
0C
0C
ENDCHAR
STARTCHAR uni288B
ENCODING 10379
SWIDTH 1833 0
DWIDTH 22 0
BBX 6 14 0 -4
BITMAP
CC
CC
00
00
C0
C0
00
00
00
00
00
00
0C
0C
ENDCHAR
STARTCHAR uni288C
ENCODING 10380
SWIDTH 1833 0
DWIDTH 22 0
BBX 6 14 0 -4
BITMAP
0C
0C
00
00
00
00
00
00
C0
C0
00
00
0C
0C
ENDCHAR
STARTCHAR uni288D
ENCODING 10381
SWIDTH 1833 0
DWIDTH 22 0
BBX 6 12 0 -4
BITMAP
CC
CC
00
00
00
00
C0
C0
00
00
0C
0C
ENDCHAR
STARTCHAR uni288E
ENCODING 10382
SWIDTH 1833 0
DWIDTH 22 0
BBX 6 14 0 -4
BITMAP
0C
0C
00
00
C0
C0
00
00
C0
C0
00
00
0C
0C
ENDCHAR
STARTCHAR uni288F
ENCODING 10383
SWIDTH 1833 0
DWIDTH 22 0
BBX 6 14 0 -4
BITMAP
CC
CC
00
00
C0
C0
00
00
C0
C0
00
00
0C
0C
ENDCHAR
STARTCHAR uni2890
ENCODING 10384
SWIDTH 1833 0
DWIDTH 22 0
BBX 2 10 0 -4
BITMAP
C0
C0
00
00
00
00
00
00
C0
C0
ENDCHAR
STARTCHAR uni2891
ENCODING 10385
SWIDTH 1833 0
DWIDTH 22 0
BBX 6 14 0 -4
BITMAP
C0
C0
00
00
0C
0C
00
00
00
00
00
00
0C
0C
ENDCHAR
STARTCHAR uni2892
ENCODING 10386
SWIDTH 1833 0
DWIDTH 22 0
BBX 6 10 0 -4
BITMAP
CC
CC
00
00
00
00
00
00
0C
0C
ENDCHAR
STARTCHAR uni2893
ENCODING 10387
SWIDTH 1833 0
DWIDTH 22 0
BBX 6 14 0 -4
BITMAP
C0
C0
00
00
CC
CC
00
00
00
00
00
00
0C
0C
ENDCHAR
STARTCHAR uni2894
ENCODING 10388
SWIDTH 1833 0
DWIDTH 22 0
BBX 6 10 0 -4
BITMAP
0C
0C
00
00
C0
C0
00
00
0C
0C
ENDCHAR
STARTCHAR uni2895
ENCODING 10389
SWIDTH 1833 0
DWIDTH 22 0
BBX 6 14 0 -4
BITMAP
C0
C0
00
00
0C
0C
00
00
C0
C0
00
00
0C
0C
ENDCHAR
STARTCHAR uni2896
ENCODING 10390
SWIDTH 1833 0
DWIDTH 22 0
BBX 6 10 0 -4
BITMAP
CC
CC
00
00
C0
C0
00
00
0C
0C
ENDCHAR
STARTCHAR uni2897
ENCODING 10391
SWIDTH 1833 0
DWIDTH 22 0
BBX 6 14 0 -4
BITMAP
C0
C0
00
00
CC
CC
00
00
C0
C0
00
00
0C
0C
ENDCHAR
STARTCHAR uni2898
ENCODING 10392
SWIDTH 1833 0
DWIDTH 22 0
BBX 2 14 0 -4
BITMAP
C0
C0
00
00
C0
C0
00
00
00
00
00
00
C0
C0
ENDCHAR
STARTCHAR uni2899
ENCODING 10393
SWIDTH 1833 0
DWIDTH 22 0
BBX 6 14 0 -4
BITMAP
CC
CC
00
00
0C
0C
00
00
00
00
00
00
0C
0C
ENDCHAR
STARTCHAR uni289A
ENCODING 10394
SWIDTH 1833 0
DWIDTH 22 0
BBX 6 14 0 -4
BITMAP
0C
0C
00
00
CC
CC
00
00
00
00
00
00
0C
0C
ENDCHAR
STARTCHAR uni289B
ENCODING 10395
SWIDTH 1833 0
DWIDTH 22 0
BBX 6 14 0 -4
BITMAP
CC
CC
00
00
CC
CC
00
00
00
00
00
00
0C
0C
ENDCHAR
STARTCHAR uni289C
ENCODING 10396
SWIDTH 1833 0
DWIDTH 22 0
BBX 6 14 0 -4
BITMAP
0C
0C
00
00
0C
0C
00
00
C0
C0
00
00
0C
0C
ENDCHAR
STARTCHAR uni289D
ENCODING 10397
SWIDTH 1833 0
DWIDTH 22 0
BBX 6 14 0 -4
BITMAP
CC
CC
00
00
0C
0C
00
00
C0
C0
00
00
0C
0C
ENDCHAR
STARTCHAR uni289E
ENCODING 10398
SWIDTH 1833 0
DWIDTH 22 0
BBX 6 14 0 -4
BITMAP
0C
0C
00
00
CC
CC
00
00
C0
C0
00
00
0C
0C
ENDCHAR
STARTCHAR uni289F
ENCODING 10399
SWIDTH 1833 0
DWIDTH 22 0
BBX 6 14 0 -4
BITMAP
CC
CC
00
00
CC
CC
00
00
C0
C0
00
00
0C
0C
ENDCHAR
STARTCHAR uni28A0
ENCODING 10400
SWIDTH 1833 0
DWIDTH 22 0
BBX 2 6 0 -4
BITMAP
C0
C0
00
00
C0
C0
ENDCHAR
STARTCHAR uni28A1
ENCODING 10401
SWIDTH 1833 0
DWIDTH 22 0
BBX 6 14 0 -4
BITMAP
C0
C0
00
00
00
00
00
00
0C
0C
00
00
0C
0C
ENDCHAR
STARTCHAR uni28A2
ENCODING 10402
SWIDTH 1833 0
DWIDTH 22 0
BBX 6 10 0 -4
BITMAP
C0
C0
00
00
0C
0C
00
00
0C
0C
ENDCHAR
STARTCHAR uni28A3
ENCODING 10403
SWIDTH 1833 0
DWIDTH 22 0
BBX 6 14 0 -4
BITMAP
C0
C0
00
00
C0
C0
00
00
0C
0C
00
00
0C
0C
ENDCHAR
STARTCHAR uni28A4
ENCODING 10404
SWIDTH 1833 0
DWIDTH 22 0
BBX 6 6 0 -4
BITMAP
CC
CC
00
00
0C
0C
ENDCHAR
STARTCHAR uni28A5
ENCODING 10405
SWIDTH 1833 0
DWIDTH 22 0
BBX 6 14 0 -4
BITMAP
C0
C0
00
00
00
00
00
00
CC
CC
00
00
0C
0C
ENDCHAR
STARTCHAR uni28A6
ENCODING 10406
SWIDTH 1833 0
DWIDTH 22 0
BBX 6 10 0 -4
BITMAP
C0
C0
00
00
CC
CC
00
00
0C
0C
ENDCHAR
STARTCHAR uni28A7
ENCODING 10407
SWIDTH 1833 0
DWIDTH 22 0
BBX 6 14 0 -4
BITMAP
C0
C0
00
00
C0
C0
00
00
CC
CC
00
00
0C
0C
ENDCHAR
STARTCHAR uni28A8
ENCODING 10408
SWIDTH 1833 0
DWIDTH 22 0
BBX 2 14 0 -4
BITMAP
C0
C0
00
00
00
00
00
00
C0
C0
00
00
C0
C0
ENDCHAR
STARTCHAR uni28A9
ENCODING 10409
SWIDTH 1833 0
DWIDTH 22 0
BBX 6 14 0 -4
BITMAP
CC
CC
00
00
00
00
00
00
0C
0C
00
00
0C
0C
ENDCHAR
STARTCHAR uni28AA
ENCODING 10410
SWIDTH 1833 0
DWIDTH 22 0
BBX 6 14 0 -4
BITMAP
0C
0C
00
00
C0
C0
00
00
0C
0C
00
00
0C
0C
ENDCHAR
STARTCHAR uni28AB
ENCODING 10411
SWIDTH 1833 0
DWIDTH 22 0
BBX 6 14 0 -4
BITMAP
CC
CC
00
00
C0
C0
00
00
0C
0C
00
00
0C
0C
ENDCHAR
STARTCHAR uni28AC
ENCODING 10412
SWIDTH 1833 0
DWIDTH 22 0
BBX 6 14 0 -4
BITMAP
0C
0C
00
00
00
00
00
00
CC
CC
00
00
0C
0C
ENDCHAR
STARTCHAR uni28AD
ENCODING 10413
SWIDTH 1833 0
DWIDTH 22 0
BBX 6 14 0 -4
BITMAP
CC
CC
00
00
00
00
00
00
CC
CC
00
00
0C
0C
ENDCHAR
STARTCHAR uni28AE
ENCODING 10414
SWIDTH 1833 0
DWIDTH 22 0
BBX 6 14 0 -4
BITMAP
0C
0C
00
00
C0
C0
00
00
CC
CC
00
00
0C
0C
ENDCHAR
STARTCHAR uni28AF
ENCODING 10415
SWIDTH 1833 0
DWIDTH 22 0
BBX 6 14 0 -4
BITMAP
CC
CC
00
00
C0
C0
00
00
CC
CC
00
00
0C
0C
ENDCHAR
STARTCHAR uni28B0
ENCODING 10416
SWIDTH 1833 0
DWIDTH 22 0
BBX 2 10 4 -4
BITMAP
C0
C0
00
00
C0
C0
00
00
C0
C0
ENDCHAR
STARTCHAR uni28B1
ENCODING 10417
SWIDTH 1833 0
DWIDTH 22 0
BBX 6 14 0 -4
BITMAP
C0
C0
00
00
0C
0C
00
00
0C
0C
00
00
0C
0C
ENDCHAR
STARTCHAR uni28B2
ENCODING 10418
SWIDTH 1833 0
DWIDTH 22 0
BBX 6 10 0 -4
BITMAP
CC
CC
00
00
0C
0C
00
00
0C
0C
ENDCHAR
STARTCHAR uni28B3
ENCODING 10419
SWIDTH 1833 0
DWIDTH 22 0
BBX 6 14 0 -4
BITMAP
C0
C0
00
00
CC
CC
00
00
0C
0C
00
00
0C
0C
ENDCHAR
STARTCHAR uni28B4
ENCODING 10420
SWIDTH 1833 0
DWIDTH 22 0
BBX 6 10 0 -4
BITMAP
0C
0C
00
00
CC
CC
00
00
0C
0C
ENDCHAR
STARTCHAR uni28B5
ENCODING 10421
SWIDTH 1833 0
DWIDTH 22 0
BBX 6 14 0 -4
BITMAP
C0
C0
00
00
0C
0C
00
00
CC
CC
00
00
0C
0C
ENDCHAR
STARTCHAR uni28B6
ENCODING 10422
SWIDTH 1833 0
DWIDTH 22 0
BBX 6 10 0 -4
BITMAP
CC
CC
00
00
CC
CC
00
00
0C
0C
ENDCHAR
STARTCHAR uni28B7
ENCODING 10423
SWIDTH 1833 0
DWIDTH 22 0
BBX 6 14 0 -4
BITMAP
C0
C0
00
00
CC
CC
00
00
CC
CC
00
00
0C
0C
ENDCHAR
STARTCHAR uni28B8
ENCODING 10424
SWIDTH 1833 0
DWIDTH 22 0
BBX 2 14 0 -4
BITMAP
C0
C0
00
00
C0
C0
00
00
C0
C0
00
00
C0
C0
ENDCHAR
STARTCHAR uni28B9
ENCODING 10425
SWIDTH 1833 0
DWIDTH 22 0
BBX 6 14 0 -4
BITMAP
CC
CC
00
00
0C
0C
00
00
0C
0C
00
00
0C
0C
ENDCHAR
STARTCHAR uni28BA
ENCODING 10426
SWIDTH 1833 0
DWIDTH 22 0
BBX 6 14 0 -4
BITMAP
0C
0C
00
00
CC
CC
00
00
0C
0C
00
00
0C
0C
ENDCHAR
STARTCHAR uni28BB
ENCODING 10427
SWIDTH 1833 0
DWIDTH 22 0
BBX 6 14 0 -4
BITMAP
CC
CC
00
00
CC
CC
00
00
0C
0C
00
00
0C
0C
ENDCHAR
STARTCHAR uni28BC
ENCODING 10428
SWIDTH 1833 0
DWIDTH 22 0
BBX 6 14 0 -4
BITMAP
0C
0C
00
00
0C
0C
00
00
CC
CC
00
00
0C
0C
ENDCHAR
STARTCHAR uni28BD
ENCODING 10429
SWIDTH 1833 0
DWIDTH 22 0
BBX 6 14 0 -4
BITMAP
CC
CC
00
00
0C
0C
00
00
CC
CC
00
00
0C
0C
ENDCHAR
STARTCHAR uni28BE
ENCODING 10430
SWIDTH 1833 0
DWIDTH 22 0
BBX 6 14 0 -4
BITMAP
0C
0C
00
00
CC
CC
00
00
CC
CC
00
00
0C
0C
ENDCHAR
STARTCHAR uni28BF
ENCODING 10431
SWIDTH 1833 0
DWIDTH 22 0
BBX 6 14 0 -4
BITMAP
CC
CC
00
00
CC
CC
00
00
CC
CC
00
00
0C
0C
ENDCHAR
STARTCHAR uni28C0
ENCODING 10432
SWIDTH 1833 0
DWIDTH 22 0
BBX 6 2 0 -4
BITMAP
CC
CC
ENDCHAR
STARTCHAR uni28C1
ENCODING 10433
SWIDTH 1833 0
DWIDTH 22 0
BBX 6 14 0 -4
BITMAP
C0
C0
00
00
00
00
00
00
00
00
00
00
CC
CC
ENDCHAR
STARTCHAR uni28C2
ENCODING 10434
SWIDTH 1833 0
DWIDTH 22 0
BBX 6 10 0 -4
BITMAP
C0
C0
00
00
00
00
00
00
CC
CC
ENDCHAR
STARTCHAR uni28C3
ENCODING 10435
SWIDTH 1833 0
DWIDTH 22 0
BBX 6 14 0 -4
BITMAP
C0
C0
00
00
C0
C0
00
00
00
00
00
00
CC
CC
ENDCHAR
STARTCHAR uni28C4
ENCODING 10436
SWIDTH 1833 0
DWIDTH 22 0
BBX 6 6 0 -4
BITMAP
C0
C0
00
00
CC
CC
ENDCHAR
STARTCHAR uni28C5
ENCODING 10437
SWIDTH 1833 0
DWIDTH 22 0
BBX 6 14 0 -4
BITMAP
C0
C0
00
00
00
00
00
00
C0
C0
00
00
CC
CC
ENDCHAR
STARTCHAR uni28C6
ENCODING 10438
SWIDTH 1833 0
DWIDTH 22 0
BBX 6 10 0 -4
BITMAP
C0
C0
00
00
C0
C0
00
00
CC
CC
ENDCHAR
STARTCHAR uni28C7
ENCODING 10439
SWIDTH 1833 0
DWIDTH 22 0
BBX 6 14 0 -4
BITMAP
C0
C0
00
00
C0
C0
00
00
C0
C0
00
00
CC
CC
ENDCHAR
STARTCHAR uni28C8
ENCODING 10440
SWIDTH 1833 0
DWIDTH 22 0
BBX 6 14 0 -4
BITMAP
0C
0C
00
00
00
00
00
00
00
00
00
00
CC
CC
ENDCHAR
STARTCHAR uni28C9
ENCODING 10441
SWIDTH 1833 0
DWIDTH 22 0
BBX 6 14 0 -4
BITMAP
CC
CC
00
00
00
00
00
00
00
00
00
00
CC
CC
ENDCHAR
STARTCHAR uni28CA
ENCODING 10442
SWIDTH 1833 0
DWIDTH 22 0
BBX 6 14 0 -4
BITMAP
0C
0C
00
00
C0
C0
00
00
00
00
00
00
CC
CC
ENDCHAR
STARTCHAR uni28CB
ENCODING 10443
SWIDTH 1833 0
DWIDTH 22 0
BBX 6 14 0 -4
BITMAP
CC
CC
00
00
C0
C0
00
00
00
00
00
00
CC
CC
ENDCHAR
STARTCHAR uni28CC
ENCODING 10444
SWIDTH 1833 0
DWIDTH 22 0
BBX 6 14 0 -4
BITMAP
0C
0C
00
00
00
00
00
00
C0
C0
00
00
CC
CC
ENDCHAR
STARTCHAR uni28CD
ENCODING 10445
SWIDTH 1833 0
DWIDTH 22 0
BBX 6 14 0 -4
BITMAP
CC
CC
00
00
00
00
00
00
C0
C0
00
00
CC
CC
ENDCHAR
STARTCHAR uni28CE
ENCODING 10446
SWIDTH 1833 0
DWIDTH 22 0
BBX 6 14 0 -4
BITMAP
0C
0C
00
00
C0
C0
00
00
C0
C0
00
00
CC
CC
ENDCHAR
STARTCHAR uni28CF
ENCODING 10447
SWIDTH 1833 0
DWIDTH 22 0
BBX 6 14 0 -4
BITMAP
CC
CC
00
00
C0
C0
00
00
C0
C0
00
00
CC
CC
ENDCHAR
STARTCHAR uni28D0
ENCODING 10448
SWIDTH 1833 0
DWIDTH 22 0
BBX 6 10 0 -4
BITMAP
0C
0C
00
00
00
00
00
00
CC
CC
ENDCHAR
STARTCHAR uni28D1
ENCODING 10449
SWIDTH 1833 0
DWIDTH 22 0
BBX 6 14 0 -4
BITMAP
C0
C0
00
00
0C
0C
00
00
00
00
00
00
CC
CC
ENDCHAR
STARTCHAR uni28D2
ENCODING 10450
SWIDTH 1833 0
DWIDTH 22 0
BBX 6 10 0 -4
BITMAP
CC
CC
00
00
00
00
00
00
CC
CC
ENDCHAR
STARTCHAR uni28D3
ENCODING 10451
SWIDTH 1833 0
DWIDTH 22 0
BBX 6 14 0 -4
BITMAP
C0
C0
00
00
CC
CC
00
00
00
00
00
00
CC
CC
ENDCHAR
STARTCHAR uni28D4
ENCODING 10452
SWIDTH 1833 0
DWIDTH 22 0
BBX 6 10 0 -4
BITMAP
0C
0C
00
00
C0
C0
00
00
CC
CC
ENDCHAR
STARTCHAR uni28D5
ENCODING 10453
SWIDTH 1833 0
DWIDTH 22 0
BBX 6 14 0 -4
BITMAP
C0
C0
00
00
0C
0C
00
00
C0
C0
00
00
CC
CC
ENDCHAR
STARTCHAR uni28D6
ENCODING 10454
SWIDTH 1833 0
DWIDTH 22 0
BBX 6 10 0 -4
BITMAP
CC
CC
00
00
C0
C0
00
00
CC
CC
ENDCHAR
STARTCHAR uni28D7
ENCODING 10455
SWIDTH 1833 0
DWIDTH 22 0
BBX 6 14 0 -4
BITMAP
C0
C0
00
00
CC
CC
00
00
C0
C0
00
00
CC
CC
ENDCHAR
STARTCHAR uni28D8
ENCODING 10456
SWIDTH 1833 0
DWIDTH 22 0
BBX 6 14 0 -4
BITMAP
0C
0C
00
00
0C
0C
00
00
00
00
00
00
CC
CC
ENDCHAR
STARTCHAR uni28D9
ENCODING 10457
SWIDTH 1833 0
DWIDTH 22 0
BBX 6 14 0 -4
BITMAP
CC
CC
00
00
0C
0C
00
00
00
00
00
00
CC
CC
ENDCHAR
STARTCHAR uni28DA
ENCODING 10458
SWIDTH 1833 0
DWIDTH 22 0
BBX 6 14 0 -4
BITMAP
0C
0C
00
00
CC
CC
00
00
00
00
00
00
CC
CC
ENDCHAR
STARTCHAR uni28DB
ENCODING 10459
SWIDTH 1833 0
DWIDTH 22 0
BBX 6 14 0 -4
BITMAP
CC
CC
00
00
CC
CC
00
00
00
00
00
00
CC
CC
ENDCHAR
STARTCHAR uni28DC
ENCODING 10460
SWIDTH 1833 0
DWIDTH 22 0
BBX 6 14 0 -4
BITMAP
0C
0C
00
00
0C
0C
00
00
C0
C0
00
00
CC
CC
ENDCHAR
STARTCHAR uni28DD
ENCODING 10461
SWIDTH 1833 0
DWIDTH 22 0
BBX 6 14 0 -4
BITMAP
CC
CC
00
00
0C
0C
00
00
C0
C0
00
00
CC
CC
ENDCHAR
STARTCHAR uni28DE
ENCODING 10462
SWIDTH 1833 0
DWIDTH 22 0
BBX 6 14 0 -4
BITMAP
0C
0C
00
00
CC
CC
00
00
C0
C0
00
00
CC
CC
ENDCHAR
STARTCHAR uni28DF
ENCODING 10463
SWIDTH 1833 0
DWIDTH 22 0
BBX 6 14 0 -4
BITMAP
CC
CC
00
00
CC
CC
00
00
C0
C0
00
00
CC
CC
ENDCHAR
STARTCHAR uni28E0
ENCODING 10464
SWIDTH 1833 0
DWIDTH 22 0
BBX 6 6 0 -4
BITMAP
0C
0C
00
00
CC
CC
ENDCHAR
STARTCHAR uni28E1
ENCODING 10465
SWIDTH 1833 0
DWIDTH 22 0
BBX 6 14 0 -4
BITMAP
C0
C0
00
00
00
00
00
00
0C
0C
00
00
CC
CC
ENDCHAR
STARTCHAR uni28E2
ENCODING 10466
SWIDTH 1833 0
DWIDTH 22 0
BBX 6 10 0 -4
BITMAP
C0
C0
00
00
0C
0C
00
00
CC
CC
ENDCHAR
STARTCHAR uni28E3
ENCODING 10467
SWIDTH 1833 0
DWIDTH 22 0
BBX 6 14 0 -4
BITMAP
C0
C0
00
00
C0
C0
00
00
0C
0C
00
00
CC
CC
ENDCHAR
STARTCHAR uni28E4
ENCODING 10468
SWIDTH 1833 0
DWIDTH 22 0
BBX 6 6 0 -4
BITMAP
CC
CC
00
00
CC
CC
ENDCHAR
STARTCHAR uni28E5
ENCODING 10469
SWIDTH 1833 0
DWIDTH 22 0
BBX 6 12 0 -4
BITMAP
C0
C0
00
00
00
00
CC
CC
00
00
CC
CC
ENDCHAR
STARTCHAR uni28E6
ENCODING 10470
SWIDTH 1833 0
DWIDTH 22 0
BBX 6 10 0 -4
BITMAP
C0
C0
00
00
CC
CC
00
00
CC
CC
ENDCHAR
STARTCHAR uni28E7
ENCODING 10471
SWIDTH 1833 0
DWIDTH 22 0
BBX 6 14 0 -4
BITMAP
C0
C0
00
00
C0
C0
00
00
CC
CC
00
00
CC
CC
ENDCHAR
STARTCHAR uni28E8
ENCODING 10472
SWIDTH 1833 0
DWIDTH 22 0
BBX 6 14 0 -4
BITMAP
0C
0C
00
00
00
00
00
00
0C
0C
00
00
CC
CC
ENDCHAR
STARTCHAR uni28E9
ENCODING 10473
SWIDTH 1833 0
DWIDTH 22 0
BBX 6 14 0 -4
BITMAP
CC
CC
00
00
00
00
00
00
0C
0C
00
00
CC
CC
ENDCHAR
STARTCHAR uni28EA
ENCODING 10474
SWIDTH 1833 0
DWIDTH 22 0
BBX 6 14 0 -4
BITMAP
0C
0C
00
00
C0
C0
00
00
0C
0C
00
00
CC
CC
ENDCHAR
STARTCHAR uni28EB
ENCODING 10475
SWIDTH 1833 0
DWIDTH 22 0
BBX 6 14 0 -4
BITMAP
CC
CC
00
00
C0
C0
00
00
0C
0C
00
00
CC
CC
ENDCHAR
STARTCHAR uni28EC
ENCODING 10476
SWIDTH 1833 0
DWIDTH 22 0
BBX 6 14 0 -4
BITMAP
0C
0C
00
00
00
00
00
00
CC
CC
00
00
CC
CC
ENDCHAR
STARTCHAR uni28ED
ENCODING 10477
SWIDTH 1833 0
DWIDTH 22 0
BBX 6 12 0 -4
BITMAP
CC
CC
00
00
00
00
CC
CC
00
00
CC
CC
ENDCHAR
STARTCHAR uni28EE
ENCODING 10478
SWIDTH 1833 0
DWIDTH 22 0
BBX 6 14 0 -4
BITMAP
0C
0C
00
00
C0
C0
00
00
CC
CC
00
00
CC
CC
ENDCHAR
STARTCHAR uni28EF
ENCODING 10479
SWIDTH 1833 0
DWIDTH 22 0
BBX 6 14 0 -4
BITMAP
CC
CC
00
00
C0
C0
00
00
CC
CC
00
00
CC
CC
ENDCHAR
STARTCHAR uni28F0
ENCODING 10480
SWIDTH 1833 0
DWIDTH 22 0
BBX 6 10 0 -4
BITMAP
0C
0C
00
00
0C
0C
00
00
CC
CC
ENDCHAR
STARTCHAR uni28F1
ENCODING 10481
SWIDTH 1833 0
DWIDTH 22 0
BBX 6 14 0 -4
BITMAP
C0
C0
00
00
0C
0C
00
00
0C
0C
00
00
CC
CC
ENDCHAR
STARTCHAR uni28F2
ENCODING 10482
SWIDTH 1833 0
DWIDTH 22 0
BBX 6 10 0 -4
BITMAP
CC
CC
00
00
0C
0C
00
00
CC
CC
ENDCHAR
STARTCHAR uni28F3
ENCODING 10483
SWIDTH 1833 0
DWIDTH 22 0
BBX 6 14 0 -4
BITMAP
C0
C0
00
00
CC
CC
00
00
0C
0C
00
00
CC
CC
ENDCHAR
STARTCHAR uni28F4
ENCODING 10484
SWIDTH 1833 0
DWIDTH 22 0
BBX 6 10 0 -4
BITMAP
0C
0C
00
00
CC
CC
00
00
CC
CC
ENDCHAR
STARTCHAR uni28F5
ENCODING 10485
SWIDTH 1833 0
DWIDTH 22 0
BBX 6 14 0 -4
BITMAP
C0
C0
00
00
0C
0C
00
00
CC
CC
00
00
CC
CC
ENDCHAR
STARTCHAR uni28F6
ENCODING 10486
SWIDTH 1833 0
DWIDTH 22 0
BBX 6 10 0 -4
BITMAP
CC
CC
00
00
CC
CC
00
00
CC
CC
ENDCHAR
STARTCHAR uni28F7
ENCODING 10487
SWIDTH 1833 0
DWIDTH 22 0
BBX 6 14 0 -4
BITMAP
C0
C0
00
00
CC
CC
00
00
CC
CC
00
00
CC
CC
ENDCHAR
STARTCHAR uni28F8
ENCODING 10488
SWIDTH 1833 0
DWIDTH 22 0
BBX 6 14 0 -4
BITMAP
0C
0C
00
00
0C
0C
00
00
0C
0C
00
00
CC
CC
ENDCHAR
STARTCHAR uni28F9
ENCODING 10489
SWIDTH 1833 0
DWIDTH 22 0
BBX 6 14 0 -4
BITMAP
CC
CC
00
00
0C
0C
00
00
0C
0C
00
00
CC
CC
ENDCHAR
STARTCHAR uni28FA
ENCODING 10490
SWIDTH 1833 0
DWIDTH 22 0
BBX 6 14 0 -4
BITMAP
0C
0C
00
00
CC
CC
00
00
0C
0C
00
00
CC
CC
ENDCHAR
STARTCHAR uni28FB
ENCODING 10491
SWIDTH 1833 0
DWIDTH 22 0
BBX 6 14 0 -4
BITMAP
CC
CC
00
00
CC
CC
00
00
0C
0C
00
00
CC
CC
ENDCHAR
STARTCHAR uni28FC
ENCODING 10492
SWIDTH 1833 0
DWIDTH 22 0
BBX 6 14 0 -4
BITMAP
0C
0C
00
00
0C
0C
00
00
CC
CC
00
00
CC
CC
ENDCHAR
STARTCHAR uni28FD
ENCODING 10493
SWIDTH 1833 0
DWIDTH 22 0
BBX 6 14 0 -4
BITMAP
CC
CC
00
00
0C
0C
00
00
CC
CC
00
00
CC
CC
ENDCHAR
STARTCHAR uni28FE
ENCODING 10494
SWIDTH 1833 0
DWIDTH 22 0
BBX 6 14 0 -4
BITMAP
0C
0C
00
00
CC
CC
00
00
CC
CC
00
00
CC
CC
ENDCHAR
STARTCHAR uni28FF
ENCODING 10495
SWIDTH 1833 0
DWIDTH 22 0
BBX 6 14 0 -4
BITMAP
CC
CC
00
00
CC
CC
00
00
CC
CC
00
00
CC
CC
ENDCHAR
STARTCHAR uni2919
ENCODING 10521
SWIDTH 833 0
DWIDTH 10 0
BBX 10 10 0 0
BITMAP
00C0
00C0
0300
0300
FC00
FC00
0300
0300
00C0
00C0
ENDCHAR
STARTCHAR uni291A
ENCODING 10522
SWIDTH 833 0
DWIDTH 10 0
BBX 10 10 0 0
BITMAP
C000
C000
3000
3000
0FC0
0FC0
3000
3000
C000
C000
ENDCHAR
STARTCHAR uni291B
ENCODING 10523
SWIDTH 833 0
DWIDTH 10 0
BBX 10 10 0 0
BITMAP
30C0
30C0
C300
C300
0C00
0C00
C300
C300
30C0
30C0
ENDCHAR
STARTCHAR uni291C
ENCODING 10524
SWIDTH 833 0
DWIDTH 10 0
BBX 10 10 0 0
BITMAP
C300
C300
30C0
30C0
0C00
0C00
30C0
30C0
C300
C300
ENDCHAR
STARTCHAR uni2B5E
ENCODING 11102
SWIDTH 1833 0
DWIDTH 22 0
BBX 10 6 0 4
BITMAP
FFC0
FFC0
0000
0000
FFC0
FFC0
ENDCHAR
STARTCHAR uni2B5F
ENCODING 11103
SWIDTH 1833 0
DWIDTH 22 0
BBX 10 2 0 4
BITMAP
FFC0
FFC0
ENDCHAR
STARTCHAR uni2B60
ENCODING 11104
SWIDTH 833 0
DWIDTH 10 0
BBX 8 18 0 0
BITMAP
C0
C0
C0
C0
CC
CC
FF
FF
CC
CC
CC
CC
FC
FC
C0
C0
C0
C0
ENDCHAR
STARTCHAR uni2B61
ENCODING 11105
SWIDTH 833 0
DWIDTH 10 0
BBX 8 18 0 0
BITMAP
C0
C0
C0
C0
C0
C0
FC
FC
00
00
3C
3C
33
33
33
33
33
33
ENDCHAR
STARTCHAR uni2B62
ENCODING 11106
SWIDTH 833 0
DWIDTH 10 0
BBX 10 16 0 0
BITMAP
3C00
3C00
3000
3000
F000
F000
3300
3300
33C0
33C0
F300
F300
0300
0300
03C0
03C0
ENDCHAR
STARTCHAR uni2B64
ENCODING 11108
SWIDTH 833 0
DWIDTH 10 0
BBX 8 14 0 0
BITMAP
3C
3C
C3
C3
C3
C3
FF
FF
FF
FF
F3
F3
FF
FF
ENDCHAR
STARTCHAR uni2B80
ENCODING 11136
SWIDTH 833 0
DWIDTH 10 0
BBX 10 18 0 0
BITMAP
C000
C000
F000
F000
FC00
FC00
FF00
FF00
FFC0
FFC0
FF00
FF00
FC00
FC00
F000
F000
C000
C000
ENDCHAR
STARTCHAR uni2B81
ENCODING 11137
SWIDTH 833 0
DWIDTH 10 0
BBX 10 18 0 0
BITMAP
C000
C000
3000
3000
0C00
0C00
0300
0300
00C0
00C0
0300
0300
0C00
0C00
3000
3000
C000
C000
ENDCHAR
STARTCHAR uni2B82
ENCODING 11138
SWIDTH 833 0
DWIDTH 10 0
BBX 10 18 0 0
BITMAP
00C0
00C0
03C0
03C0
0FC0
0FC0
3FC0
3FC0
FFC0
FFC0
3FC0
3FC0
0FC0
0FC0
03C0
03C0
00C0
00C0
ENDCHAR
STARTCHAR uni2B83
ENCODING 11139
SWIDTH 833 0
DWIDTH 10 0
BBX 10 18 0 0
BITMAP
00C0
00C0
0300
0300
0C00
0C00
3000
3000
C000
C000
3000
3000
0C00
0C00
0300
0300
00C0
00C0
ENDCHAR
STARTCHAR uni30C3
ENCODING 12483
SWIDTH 1833 0
DWIDTH 22 0
BBX 8 8 0 0
BITMAP
C3
C3
00
00
C3
C3
3C
3C
ENDCHAR
STARTCHAR uni30C4
ENCODING 12484
SWIDTH 1833 0
DWIDTH 22 0
BBX 8 12 0 0
BITMAP
C3
C3
00
00
00
00
C3
C3
C3
C3
3C
3C
ENDCHAR
STARTCHAR uni5350
ENCODING 21328
SWIDTH 1833 0
DWIDTH 22 0
BBX 10 14 0 0
BITMAP
CFC0
CFC0
CC00
CC00
CC00
CC00
FFC0
FFC0
0CC0
0CC0
0CC0
0CC0
FCC0
FCC0
ENDCHAR
STARTCHAR uniE09E
ENCODING 57502
SWIDTH 1833 0
DWIDTH 22 0
BBX 10 6 0 2
BITMAP
FFC0
FFC0
0000
0000
FFC0
FFC0
ENDCHAR
STARTCHAR uniE09F
ENCODING 57503
SWIDTH 1833 0
DWIDTH 22 0
BBX 10 2 0 4
BITMAP
FFC0
FFC0
ENDCHAR
STARTCHAR uniE0A0
ENCODING 57504
SWIDTH 833 0
DWIDTH 10 0
BBX 8 16 0 0
BITMAP
C0
C0
CC
CC
CF
CF
CC
CC
CC
CC
F0
F0
C0
C0
C0
C0
ENDCHAR
STARTCHAR uniE0A1
ENCODING 57505
SWIDTH 833 0
DWIDTH 10 0
BBX 8 18 0 0
BITMAP
C0
C0
C0
C0
C0
C0
FC
FC
00
00
3C
3C
33
33
33
33
33
33
ENDCHAR
STARTCHAR uniE0A2
ENCODING 57506
SWIDTH 833 0
DWIDTH 10 0
BBX 8 14 0 0
BITMAP
3C
3C
C3
C3
C3
C3
FF
FF
F3
F3
F3
F3
FF
FF
ENDCHAR
STARTCHAR uniE0B0
ENCODING 57520
SWIDTH 833 0
DWIDTH 10 0
BBX 10 18 0 -2
BITMAP
C000
C000
F000
F000
FC00
FC00
FF00
FF00
FFC0
FFC0
FF00
FF00
FC00
FC00
F000
F000
C000
C000
ENDCHAR
STARTCHAR uniE0B1
ENCODING 57521
SWIDTH 833 0
DWIDTH 10 0
BBX 10 18 0 -2
BITMAP
C000
C000
3000
3000
0C00
0C00
0300
0300
00C0
00C0
0300
0300
0C00
0C00
3000
3000
C000
C000
ENDCHAR
STARTCHAR uniE0B2
ENCODING 57522
SWIDTH 833 0
DWIDTH 10 0
BBX 10 18 0 -2
BITMAP
00C0
00C0
03C0
03C0
0FC0
0FC0
3FC0
3FC0
FFC0
FFC0
3FC0
3FC0
0FC0
0FC0
03C0
03C0
00C0
00C0
ENDCHAR
STARTCHAR uniE0B3
ENCODING 57523
SWIDTH 833 0
DWIDTH 10 0
BBX 10 18 0 -2
BITMAP
00C0
00C0
0300
0300
0C00
0C00
3000
3000
C000
C000
3000
3000
0C00
0C00
0300
0300
00C0
00C0
ENDCHAR
STARTCHAR uniE0B4
ENCODING 57524
SWIDTH 1833 0
DWIDTH 22 0
BBX 10 22 0 -4
BITMAP
FFC0
FFC0
3FC0
3FC0
0FC0
0FC0
03C0
03C0
00C0
00C0
0000
0000
00C0
00C0
03C0
03C0
0FC0
0FC0
3FC0
3FC0
FFC0
FFC0
ENDCHAR
STARTCHAR uniE0B5
ENCODING 57525
SWIDTH 1833 0
DWIDTH 22 0
BBX 10 22 0 -4
BITMAP
FFC0
FFC0
FF00
FF00
FC00
FC00
F000
F000
C000
C000
0000
0000
C000
C000
F000
F000
FC00
FC00
FF00
FF00
FFC0
FFC0
ENDCHAR
STARTCHAR uniE0C0
ENCODING 57536
SWIDTH 833 0
DWIDTH 10 0
BBX 10 10 0 0
BITMAP
3000
3000
CC00
CC00
3300
3300
CCC0
CCC0
30C0
30C0
ENDCHAR
STARTCHAR uniE0C1
ENCODING 57537
SWIDTH 833 0
DWIDTH 10 0
BBX 6 10 4 0
BITMAP
C0
C0
30
30
0C
0C
30
30
C0
C0
ENDCHAR
STARTCHAR uniE0C2
ENCODING 57538
SWIDTH 833 0
DWIDTH 10 0
BBX 10 16 0 -2
BITMAP
3300
3300
3300
3300
FFC0
FFC0
3F00
3F00
3F00
3F00
0C00
0C00
0C00
0C00
0C00
0C00
ENDCHAR
STARTCHAR uniE0C3
ENCODING 57539
SWIDTH 833 0
DWIDTH 10 0
BBX 10 10 0 0
BITMAP
C000
C000
3FC0
3FC0
0000
0000
3FC0
3FC0
C000
C000
ENDCHAR
STARTCHAR uniE0C4
ENCODING 57540
SWIDTH 833 0
DWIDTH 10 0
BBX 10 10 0 0
BITMAP
CC00
CC00
33C0
33C0
0C00
0C00
33C0
33C0
CC00
CC00
ENDCHAR
STARTCHAR uniE0C5
ENCODING 57541
SWIDTH 833 0
DWIDTH 10 0
BBX 10 10 0 0
BITMAP
00C0
00C0
FF00
FF00
0000
0000
FF00
FF00
00C0
00C0
ENDCHAR
STARTCHAR uniE0C6
ENCODING 57542
SWIDTH 833 0
DWIDTH 10 0
BBX 10 10 0 0
BITMAP
0CC0
0CC0
F300
F300
0C00
0C00
F300
F300
0CC0
0CC0
ENDCHAR
STARTCHAR uniE0D1
ENCODING 57553
SWIDTH 833 0
DWIDTH 10 0
BBX 6 10 0 0
BITMAP
0C
0C
30
30
C0
C0
30
30
0C
0C
ENDCHAR
STARTCHAR uniF031
ENCODING 61489
SWIDTH 833 0
DWIDTH 10 0
BBX 8 10 0 0
BITMAP
FF
FF
FF
FF
C3
C3
C3
C3
FF
FF
ENDCHAR
STARTCHAR uniF033
ENCODING 61491
SWIDTH 833 0
DWIDTH 10 0
BBX 6 10 0 0
BITMAP
0C
0C
3C
3C
FC
FC
3C
3C
0C
0C
ENDCHAR
STARTCHAR uniF034
ENCODING 61492
SWIDTH 833 0
DWIDTH 10 0
BBX 6 10 0 0
BITMAP
C0
C0
F0
F0
FC
FC
F0
F0
C0
C0
ENDCHAR
STARTCHAR uniF035
ENCODING 61493
SWIDTH 833 0
DWIDTH 10 0
BBX 10 6 0 2
BITMAP
0C00
0C00
3F00
3F00
FFC0
FFC0
ENDCHAR
STARTCHAR uniF036
ENCODING 61494
SWIDTH 833 0
DWIDTH 10 0
BBX 10 6 0 2
BITMAP
FFC0
FFC0
3F00
3F00
0C00
0C00
ENDCHAR
STARTCHAR uniF037
ENCODING 61495
SWIDTH 833 0
DWIDTH 10 0
BBX 8 6 0 2
BITMAP
33
33
FF
FF
33
33
ENDCHAR
STARTCHAR uniF038
ENCODING 61496
SWIDTH 833 0
DWIDTH 10 0
BBX 8 6 0 2
BITMAP
CC
CC
FF
FF
CC
CC
ENDCHAR
STARTCHAR uniF039
ENCODING 61497
SWIDTH 833 0
DWIDTH 10 0
BBX 10 10 0 0
BITMAP
C000
C000
CCC0
CCC0
FFC0
FFC0
CCC0
CCC0
C000
C000
ENDCHAR
STARTCHAR uniF03A
ENCODING 61498
SWIDTH 833 0
DWIDTH 10 0
BBX 10 10 0 0
BITMAP
00C0
00C0
CCC0
CCC0
FFC0
FFC0
CCC0
CCC0
00C0
00C0
ENDCHAR
STARTCHAR uniF03B
ENCODING 61499
SWIDTH 833 0
DWIDTH 10 0
BBX 6 8 0 0
BITMAP
CC
CC
CC
CC
CC
CC
CC
CC
ENDCHAR
STARTCHAR uniF03C
ENCODING 61500
SWIDTH 833 0
DWIDTH 10 0
BBX 8 8 0 0
BITMAP
FF
FF
FF
FF
FF
FF
FF
FF
ENDCHAR
STARTCHAR uniF03D
ENCODING 61501
SWIDTH 833 0
DWIDTH 10 0
BBX 8 8 0 0
BITMAP
3C
3C
FF
FF
FF
FF
3C
3C
ENDCHAR
STARTCHAR uniF057
ENCODING 61527
SWIDTH 833 0
DWIDTH 10 0
BBX 8 14 0 -2
BITMAP
C0
C0
F0
F0
FF
FF
FF
FF
FF
FF
F0
F0
C0
C0
ENDCHAR
STARTCHAR uniF058
ENCODING 61528
SWIDTH 833 0
DWIDTH 10 0
BBX 8 14 0 -2
BITMAP
03
03
0F
0F
FF
FF
FF
FF
FF
FF
0F
0F
03
03
ENDCHAR
STARTCHAR uniF059
ENCODING 61529
SWIDTH 833 0
DWIDTH 10 0
BBX 10 10 0 0
BITMAP
3300
3300
FFC0
FFC0
FFC0
FFC0
3F00
3F00
0C00
0C00
ENDCHAR
STARTCHAR uniF061
ENCODING 61537
SWIDTH 833 0
DWIDTH 10 0
BBX 10 8 0 0
BITMAP
00C0
00C0
F3C0
F3C0
3F00
3F00
0C00
0C00
ENDCHAR
STARTCHAR uniF073
ENCODING 61555
SWIDTH 833 0
DWIDTH 10 0
BBX 10 18 0 -4
BITMAP
3C00
3C00
FF00
FF00
C3C0
C3C0
C3C0
C3C0
0F00
0F00
3C00
3C00
3C00
3C00
0000
0000
3C00
3C00
ENDCHAR
STARTCHAR uniF078
ENCODING 61560
SWIDTH 833 0
DWIDTH 10 0
BBX 10 10 0 0
BITMAP
3F00
3F00
F0C0
F0C0
CCC0
CCC0
C3C0
C3C0
3F00
3F00
ENDCHAR
STARTCHAR uniF079
ENCODING 61561
SWIDTH 833 0
DWIDTH 10 0
BBX 10 10 0 0
BITMAP
3F00
3F00
C0C0
C0C0
FFC0
FFC0
C0C0
C0C0
3F00
3F00
ENDCHAR
STARTCHAR uniF07E
ENCODING 61566
SWIDTH 833 0
DWIDTH 10 0
BBX 8 12 0 0
BITMAP
03
03
0C
0C
3F
3F
FC
FC
30
30
C0
C0
ENDCHAR
STARTCHAR uniF0CF
ENCODING 61647
SWIDTH 833 0
DWIDTH 10 0
BBX 8 14 0 0
BITMAP
3C
3C
C3
C3
C3
C3
FF
FF
F3
F3
F3
F3
FF
FF
ENDCHAR
STARTCHAR uniF0D0
ENCODING 61648
SWIDTH 833 0
DWIDTH 10 0
BBX 8 16 0 0
BITMAP
3C
3C
C3
C3
03
03
03
03
FF
FF
F3
F3
F3
F3
FF
FF
ENDCHAR
STARTCHAR uniF0D1
ENCODING 61649
SWIDTH 833 0
DWIDTH 10 0
BBX 6 14 0 -2
BITMAP
3C
3C
3C
3C
30
30
30
30
30
30
CC
CC
30
30
ENDCHAR
STARTCHAR uniF0D5
ENCODING 61653
SWIDTH 833 0
DWIDTH 10 0
BBX 10 14 0 0
BITMAP
0C00
0C00
30C0
30C0
FF00
FF00
C3C0
C3C0
C300
C300
FF00
FF00
CCC0
CCC0
ENDCHAR
STARTCHAR uniF0D6
ENCODING 61654
SWIDTH 833 0
DWIDTH 10 0
BBX 10 16 0 0
BITMAP
0300
0300
CC00
CC00
30C0
30C0
FF00
FF00
C3C0
C3C0
CFC0
CFC0
FFC0
FFC0
FFC0
FFC0
ENDCHAR
STARTCHAR uniF0D7
ENCODING 61655
SWIDTH 833 0
DWIDTH 10 0
BBX 10 8 0 4
BITMAP
3C00
3C00
C3C0
C3C0
CFC0
CFC0
3FC0
3FC0
ENDCHAR
STARTCHAR uniF0D8
ENCODING 61656
SWIDTH 833 0
DWIDTH 10 0
BBX 10 14 0 -2
BITMAP
3C00
3C00
C3C0
C3C0
CFC0
CFC0
3FC0
3FC0
0000
0000
0CC0
0CC0
3300
3300
ENDCHAR
STARTCHAR uniF0D9
ENCODING 61657
SWIDTH 833 0
DWIDTH 10 0
BBX 10 6 0 6
BITMAP
0300
0300
3FC0
3FC0
FFC0
FFC0
ENDCHAR
STARTCHAR uniF0DA
ENCODING 61658
SWIDTH 833 0
DWIDTH 10 0
BBX 10 14 0 -2
BITMAP
0300
0300
3FC0
3FC0
FFC0
FFC0
0000
0000
CCC0
CCC0
0000
0000
3300
3300
ENDCHAR
STARTCHAR uniF0DB
ENCODING 61659
SWIDTH 833 0
DWIDTH 10 0
BBX 10 12 0 0
BITMAP
0300
0300
3FC0
3FC0
FFC0
FFC0
0000
0000
CCC0
CCC0
3300
3300
ENDCHAR
STARTCHAR uniF0DC
ENCODING 61660
SWIDTH 833 0
DWIDTH 10 0
BBX 10 14 0 -2
BITMAP
0300
0300
3FC0
3FC0
FFC0
FFC0
0300
0300
0F00
0F00
0C00
0C00
3000
3000
ENDCHAR
STARTCHAR uniF0DE
ENCODING 61662
SWIDTH 833 0
DWIDTH 10 0
BBX 10 16 0 0
BITMAP
3300
3300
CC00
CC00
0000
0000
0300
0300
0CC0
0CC0
0000
0000
3300
3300
CC00
CC00
ENDCHAR
STARTCHAR uniF0DF
ENCODING 61663
SWIDTH 833 0
DWIDTH 10 0
BBX 10 10 0 0
BITMAP
CCC0
CCC0
3300
3300
CCC0
CCC0
3300
3300
CCC0
CCC0
ENDCHAR
STARTCHAR uniF0E0
ENCODING 61664
SWIDTH 833 0
DWIDTH 10 0
BBX 10 10 0 0
BITMAP
3F00
3F00
CFC0
CFC0
C3C0
C3C0
C3C0
C3C0
3F00
3F00
ENDCHAR
STARTCHAR uniF0ED
ENCODING 61677
SWIDTH 833 0
DWIDTH 10 0
BBX 10 8 0 0
BITMAP
0C00
0C00
0C00
0C00
C0C0
C0C0
3300
3300
ENDCHAR
STARTCHAR uniF0EE
ENCODING 61678
SWIDTH 833 0
DWIDTH 10 0
BBX 10 8 0 8
BITMAP
3300
3300
C0C0
C0C0
0C00
0C00
0C00
0C00
ENDCHAR
STARTCHAR uniF0EF
ENCODING 61679
SWIDTH 833 0
DWIDTH 10 0
BBX 6 14 2 -2
BITMAP
30
30
0C
0C
00
00
F0
F0
00
00
0C
0C
30
30
ENDCHAR
STARTCHAR uniF0F0
ENCODING 61680
SWIDTH 833 0
DWIDTH 10 0
BBX 6 14 0 -2
BITMAP
30
30
C0
C0
00
00
3C
3C
00
00
C0
C0
30
30
ENDCHAR
ENDFONT
